<?xml version="1.0" encoding="UTF-8"?>
<svg width="140px" height="140px" viewBox="0 0 140 140" version="1.1" xmlns="http://www.w3.org/2000/svg" xmlns:xlink="http://www.w3.org/1999/xlink">
    <!-- Generator: Sketch 52.5 (67469) - http://www.bohemiancoding.com/sketch -->
    <title>icon_gn_bzhzy</title>
    <desc>Created with Sketch.</desc>
    <g id="组件" stroke="none" stroke-width="1" fill="none" fill-rule="evenodd">
        <g id="icon_gn_bzhzy">
            <g>
                <path d="M120.918449,129.440464 L112.712203,129.440464 C111.977254,129.440464 111.38146,128.881908 111.38146,128.192893 L111.38146,32.3045664 C111.38146,31.6155518 111.977254,31.0569952 112.712203,31.0569952 L121.441875,31.0569952 C126.566333,31.0524198 130.720681,27.1614378 130.730458,22.3572649 C130.730458,21.6682503 131.326252,21.1096936 132.061201,21.1096936 L132.123303,21.1096936 C132.858251,21.1096936 133.454045,21.6682503 133.454045,22.3572649 L133.454045,117.688343 C133.444272,124.175062 127.837616,129.431302 120.918449,129.440464 Z M114.042945,126.945322 L120.918449,126.945322 C126.369743,126.940736 130.787669,122.798931 130.79256,117.688343 L130.79256,29.3103954 C128.533502,31.9927324 125.087359,33.5560027 121.441875,33.5521377 L114.007459,33.5521377 L114.042945,126.945322 Z" id="形状" fill="#363636" fill-rule="nonzero"></path>
                <rect id="矩形" fill="#FDF5E7" x="17.0933333" y="17.8" width="93.8666667" height="93.5"></rect>
                <path d="M121.441875,33.5521377 L112.712203,33.5521377 C111.977254,33.5521376 111.38146,32.993581 111.38146,32.3045664 C111.38146,31.6155519 111.977254,31.0569952 112.712203,31.0569952 L121.441875,31.0569952 C124.827218,31.1551148 128.001173,29.5179571 129.72478,26.7845891 C131.448388,24.0512212 131.448388,20.6549915 129.72478,17.9216235 C128.001173,15.1882555 124.827218,13.5510979 121.441875,13.6492175 L8.61263918,13.6492175 C7.87769029,13.6492175 7.2818965,13.0906608 7.2818965,12.4016462 C7.2818965,11.7126316 7.87769029,11.154075 8.61263918,11.154075 L121.441875,11.154075 C125.787258,11.043046 129.854214,13.1529533 132.061815,16.6636224 C134.269415,20.1742915 134.269415,24.5319211 132.061815,28.0425902 C129.854214,31.5532593 125.787258,33.6631666 121.441875,33.5521377 Z M112.712203,117.838052 L8.02711246,117.838052 C7.29216363,117.838052 6.69636994,117.279495 6.69636994,116.59048 C6.69636994,115.901466 7.29216363,115.342909 8.02711246,115.342909 L112.712203,115.342909 C113.447152,115.342909 114.042945,115.901466 114.042945,116.59048 C114.042945,117.279495 113.447152,117.838052 112.712203,117.838052 Z M132.123303,39.3741369 L127.465703,39.3741369 C126.730754,39.3741368 126.134961,38.8155802 126.134961,38.1265656 C126.134961,37.4375511 126.730754,36.8789944 127.465703,36.8789944 L132.123303,36.8789944 C132.858251,36.8789944 133.454045,37.437551 133.454045,38.1265656 C133.454045,38.8155802 132.858251,39.3741369 132.123303,39.3741369 Z M132.123303,49.2881697 L127.465703,49.2881697 C126.730754,49.2881697 126.13496,48.729613 126.13496,48.0405985 C126.13496,47.3515839 126.730754,46.7930272 127.465703,46.7930272 L132.123303,46.7930272 C132.858251,46.7930272 133.454045,47.3515839 133.454045,48.0405985 C133.454045,48.729613 132.858251,49.2881697 132.123303,49.2881697 Z M132.123303,59.218837 L127.465703,59.218837 C126.730754,59.218837 126.13496,58.6602803 126.13496,57.9712658 C126.13496,57.2822512 126.730754,56.7236945 127.465703,56.7236945 L132.123303,56.7236945 C132.858251,56.7236945 133.454045,57.2822512 133.454045,57.9712658 C133.454045,58.6602803 132.858251,59.218837 132.123303,59.218837 Z M132.123303,69.141187 L127.465703,69.141187 C126.730754,69.141187 126.13496,68.5826303 126.13496,67.8936157 C126.13496,67.2046012 126.730754,66.6460445 127.465703,66.6460445 L132.123303,66.6460445 C132.858251,66.6460445 133.454045,67.2046012 133.454045,67.8936157 C133.454045,68.5826303 132.858251,69.141187 132.123303,69.141187 Z M132.123303,79.063537 L127.465703,79.063537 C126.730754,79.063537 126.13496,78.5049803 126.13496,77.8159657 C126.13496,77.1269511 126.730754,76.5683945 127.465703,76.5683945 L132.123303,76.5683945 C132.858251,76.5683945 133.454045,77.1269511 133.454045,77.8159657 C133.454045,78.5049803 132.858251,79.063537 132.123303,79.063537 Z M132.123303,88.9858871 L127.465703,88.9858871 C126.730754,88.9858871 126.13496,88.4273304 126.13496,87.7383159 C126.13496,87.0493013 126.730754,86.4907446 127.465703,86.4907446 L132.123303,86.4907446 C132.858251,86.4907446 133.454045,87.0493013 133.454045,87.7383159 C133.454045,88.4273304 132.858251,88.9858871 132.123303,88.9858871 Z M132.123303,98.9165542 L127.465703,98.9165542 C126.730754,98.9165542 126.13496,98.3579975 126.13496,97.668983 C126.13496,96.9799684 126.730754,96.4214117 127.465703,96.4214117 L132.123303,96.4214117 C132.858251,96.4214117 133.454045,96.9799684 133.454045,97.668983 C133.454045,98.3579975 132.858251,98.9165542 132.123303,98.9165542 Z M132.123303,108.838904 L127.465703,108.838904 C126.730754,108.838904 126.134961,108.280348 126.134961,107.591333 C126.134961,106.902319 126.730754,106.343762 127.465703,106.343762 L132.123303,106.343762 C132.858251,106.343762 133.454045,106.902319 133.454045,107.591333 C133.454045,108.280348 132.858251,108.838904 132.123303,108.838904 Z M132.123303,118.761254 L127.465703,118.761254 C126.730754,118.761254 126.13496,118.202698 126.13496,117.513683 C126.13496,116.824669 126.730754,116.266112 127.465703,116.266112 L132.123303,116.266112 C132.858251,116.266112 133.454045,116.824669 133.454045,117.513683 C133.454045,118.202698 132.858251,118.761254 132.123303,118.761254 Z M119.55222,40.3638766 C119.199404,40.3635855 118.861152,40.2319543 118.611829,39.9979225 C118.488577,39.8799273 118.38936,39.7418128 118.319065,39.5903825 C118.255183,39.4394729 118.222081,39.2786634 118.221477,39.1163054 C118.221788,38.7855404 118.362195,38.468429 118.611829,38.2346885 C118.673506,38.1752069 118.741927,38.1222175 118.815876,38.0766627 L119.046538,37.9602227 C119.126395,37.929325 119.209728,37.9070038 119.294943,37.8936857 C119.464634,37.8604969 119.639806,37.8604969 119.809497,37.8936857 C119.89733,37.9080931 119.983484,37.9303743 120.066774,37.9602227 C120.143578,37.9940149 120.217699,38.0329281 120.288564,38.0766627 C120.364186,38.1200566 120.432882,38.1732587 120.492612,38.2346885 C120.555664,38.2928504 120.61215,38.3569544 120.661172,38.4259827 C120.707822,38.4924192 120.74933,38.561907 120.785375,38.6339113 C120.817196,38.7091444 120.84097,38.7871537 120.856348,38.8667912 C120.865066,38.9497618 120.865066,39.0333348 120.856348,39.1163054 C120.855744,39.2786634 120.822642,39.4394729 120.75876,39.5903825 C120.688465,39.7418128 120.589248,39.8799273 120.465997,39.9979225 C120.345466,40.113581 120.200396,40.2042496 120.040159,40.2640709 C119.88589,40.3264979 119.720206,40.3603878 119.55222,40.3638766 Z M118.221477,112.673107 C118.221477,111.984092 118.817271,111.425535 119.55222,111.425535 C120.287169,111.425535 120.882963,111.984092 120.882963,112.673107 C120.882963,113.362121 120.287169,113.920678 119.55222,113.920678 C118.817271,113.920678 118.221477,113.362121 118.221477,112.673107 Z M118.221477,102.168557 C118.221477,101.479542 118.817271,100.920985 119.55222,100.920985 C120.287169,100.920985 120.882963,101.479542 120.882963,102.168557 C120.882963,102.857571 120.287169,103.416128 119.55222,103.416128 C119.199285,103.416128 118.860805,103.284688 118.611243,103.050723 C118.36168,102.816758 118.221477,102.499433 118.221477,102.168557 Z M118.221477,91.6556895 C118.221469,91.3255727 118.361955,91.0090966 118.611776,90.7764508 C118.861597,90.543805 119.200103,90.4142198 119.55222,90.4164354 C119.904337,90.4142198 120.242843,90.543805 120.492664,90.7764508 C120.742485,91.0090966 120.882971,91.3255727 120.882963,91.6556895 C120.882963,92.3447041 120.287169,92.9032607 119.55222,92.9032607 C118.817271,92.9032607 118.221477,92.3447041 118.221477,91.6556895 Z M118.221477,81.1511395 C118.221477,80.4621249 118.817271,79.9035683 119.55222,79.9035683 C120.287169,79.9035683 120.882963,80.4621249 120.882963,81.1511395 C120.882963,81.8401541 120.287169,82.3987108 119.55222,82.3987108 C118.817271,82.3987108 118.221477,81.8401541 118.221477,81.1511395 Z M118.221477,70.6382724 C118.221477,69.9492578 118.817271,69.3907012 119.55222,69.3907012 C120.287169,69.3907012 120.882963,69.9492578 120.882963,70.6382724 C120.882963,71.327287 120.287169,71.8858437 119.55222,71.8858437 C118.817271,71.8858437 118.221477,71.327287 118.221477,70.6382724 Z M118.221477,60.1337225 C118.221477,59.4447079 118.817271,58.8861512 119.55222,58.8861512 C120.287169,58.8861512 120.882963,59.4447079 120.882963,60.1337225 C120.882963,60.822737 120.287169,61.3812937 119.55222,61.3812937 C118.830909,61.3815342 118.240712,60.8429794 118.221477,60.1669911 L118.221477,60.1337225 Z M118.221477,49.6208554 C118.221477,48.9318408 118.817271,48.3732841 119.55222,48.3732841 C120.287169,48.3732841 120.882963,48.9318408 120.882963,49.6208554 C120.882963,50.3098699 120.287169,50.8684266 119.55222,50.8684266 C118.817271,50.8684266 118.221477,50.3098699 118.221477,49.6208554 Z M119.55222,124.433545 C119.013214,124.429942 118.528276,124.125765 118.319065,123.660051 C118.255183,123.509141 118.222081,123.348332 118.221477,123.185974 C118.221788,122.855209 118.362195,122.538097 118.611829,122.304357 C119.140746,121.839578 119.963694,121.839578 120.492612,122.304357 C120.742245,122.538097 120.882652,122.855209 120.882963,123.185974 C120.882359,123.348332 120.849257,123.509141 120.785375,123.660051 C120.717361,123.812644 120.617869,123.95114 120.492612,124.067591 C120.370037,124.183031 120.225637,124.276101 120.066774,124.342057 C119.902464,124.401129 119.728191,124.432115 119.55222,124.433545 Z M30.8981432,23.5715676 C30.7210752,23.5723285 30.5457983,23.5383309 30.3835894,23.4717619 C30.2233522,23.4119405 30.0782825,23.3212719 29.9577518,23.2056133 C29.7055874,22.9734675 29.5647199,22.6553154 29.5674005,22.3239964 C29.5586818,22.2410257 29.5586818,22.1574526 29.5674005,22.074482 C29.5788107,21.9940246 29.6027219,21.9155663 29.6383735,21.8416021 C29.6708791,21.7653316 29.7125488,21.6927818 29.7625761,21.6253564 C29.811168,21.5560294 29.8676899,21.4918845 29.9311369,21.4340621 C30.4634204,20.9773347 31.2796365,20.9773347 31.8119199,21.4340621 C31.930551,21.5538084 32.0265549,21.6916266 32.0958116,21.8416021 C32.1303935,21.9166266 32.1571335,21.9946182 32.1756562,22.074482 L32.1756562,22.3239964 C32.1767435,22.6533986 32.0397422,22.9700149 31.7941765,23.2056133 C31.6687517,23.3195637 31.5211845,23.409911 31.3594672,23.4717619 C31.2138027,23.5320649 31.0572641,23.5659314 30.8981432,23.5715676 Z" id="形状" fill="#363636" fill-rule="nonzero"></path>
                <rect id="矩形" fill="#5B88F7" fill-rule="nonzero" x="50.1493877" y="51.0874407" width="28.16" height="10.2"></rect>
                <ellipse id="椭圆形" fill="#ED869C" cx="37.5733333" cy="79.85" rx="8.53333333" ry="8.5"></ellipse>
                <ellipse id="椭圆形-copy-10" fill="#5B88F7" cx="64.0266667" cy="79.85" rx="8.53333333" ry="8.5"></ellipse>
                <ellipse id="椭圆形-copy-11" fill="#FDDA43" cx="90.48" cy="79.85" rx="8.53333333" ry="8.5"></ellipse>
                <path d="M90.8525365,22.3572649 C90.8525365,21.6682503 91.4483302,21.1096936 92.1832791,21.1096936 C92.918228,21.1096936 93.5140218,21.6682503 93.5140218,22.3572649 C93.5140218,23.0462795 92.918228,23.6048361 92.1832791,23.6048361 C91.4483302,23.6048361 90.8525365,23.0462795 90.8525365,22.3572649 Z M80.6413044,22.3572649 C80.6413044,22.0263884 80.7815072,21.7090638 81.0310699,21.4750988 C81.2806325,21.2411338 81.6191121,21.1096936 81.972047,21.1096936 C82.7069959,21.1096936 83.3027897,21.6682503 83.3027897,22.3572649 C83.3027897,23.0462795 82.7069959,23.6048361 81.972047,23.6048361 C81.6191121,23.6048361 81.2806325,23.473396 81.0310699,23.239431 C80.7815072,23.005466 80.6413044,22.6881414 80.6413044,22.3572649 Z M70.4212005,22.3572649 C70.4212005,21.6682503 71.0169943,21.1096936 71.7519431,21.1096936 C72.486892,21.1096936 73.0826858,21.6682503 73.0826858,22.3572649 C73.0826858,23.0462795 72.486892,23.6048361 71.7519431,23.6048361 C71.0169943,23.6048361 70.4212005,23.0462795 70.4212005,22.3572649 Z M60.2099684,22.3572649 C60.2099684,21.6682503 60.8057622,21.1096936 61.540711,21.1096936 C62.2756599,21.1096936 62.8714537,21.6682503 62.8714537,22.3572649 C62.8714537,23.0462795 62.2756599,23.6048361 61.540711,23.6048361 C60.8057622,23.6048361 60.2099684,23.0462795 60.2099684,22.3572649 Z M49.9898647,22.3572649 C49.9827134,22.0198807 50.1206876,21.6939928 50.3726933,21.4530437 C50.6246989,21.2120946 50.9695314,21.0763585 51.3294789,21.0764251 C52.0609609,21.080997 52.6513663,21.6382168 52.65135,22.3239964 C52.6513663,23.0097759 52.0609609,23.5669958 51.3294789,23.5715676 C50.6066127,23.5719393 50.0138005,23.0345805 49.9898647,22.3572649 Z M39.7786326,22.3572649 C39.7786326,21.6682503 40.3744264,21.1096936 41.1093752,21.1096936 C41.8443241,21.1096936 42.4401179,21.6682503 42.4401179,22.3572649 C42.4401179,23.0462795 41.8443241,23.6048361 41.1093752,23.6048361 C40.3744264,23.6048361 39.7786326,23.0462795 39.7786326,22.3572649 Z M102.403383,23.5715676 C101.668434,23.5715676 101.07264,23.013011 101.07264,22.3239964 C101.063921,22.2410257 101.063921,22.1574526 101.07264,22.074482 C101.088018,21.9948445 101.111792,21.9168352 101.143613,21.8416021 C101.179679,21.7669368 101.221177,21.6946845 101.267816,21.6253564 C101.316407,21.5560294 101.372929,21.4918845 101.436376,21.4340621 C101.75016,21.1408336 102.20052,21.0157336 102.634045,21.1013765 C102.72015,21.1107668 102.80405,21.13324 102.88245,21.1679137 L103.113112,21.2843537 C103.184929,21.3295278 103.253126,21.379564 103.317159,21.4340621 C103.435791,21.5538084 103.531795,21.6916266 103.601051,21.8416021 C103.771413,22.2222462 103.72991,22.6572495 103.490194,23.0035058 C103.250478,23.3497622 102.843588,23.5624379 102.403383,23.5715676 Z M102.403383,33.5521377 L30.8981432,33.5521377 C30.4227146,33.5521377 29.9834004,33.314352 29.7456861,32.9283521 C29.5079718,32.5423522 29.5079718,32.0667807 29.7456861,31.6807808 C29.9834004,31.2947809 30.4227146,31.0569951 30.8981432,31.0569952 L102.403383,31.0569952 C103.138332,31.0569952 103.734125,31.6155519 103.734125,32.3045664 C103.734125,32.993581 103.138332,33.5521376 102.403383,33.5521377 Z M102.403383,42.0106707 L30.8981432,42.0106707 C30.1631943,42.0106707 29.5674005,41.4521141 29.5674005,40.7630995 C29.5674005,40.0740849 30.1631943,39.5155282 30.8981432,39.5155282 L102.403383,39.5155282 C103.138332,39.5155282 103.734125,40.0740849 103.734125,40.7630995 C103.734125,41.4521141 103.138332,42.0106707 102.403383,42.0106707 Z M7.98275444,117.838052 C7.62981954,117.838052 7.29133994,117.706611 7.04177727,117.472646 C6.79221461,117.238681 6.65201177,116.921357 6.65201177,116.59048 C6.60411086,114.325412 7.27074321,112.097517 8.56828117,110.186281 C10.6622961,107.013806 10.6622961,103.003915 8.56828117,99.8314398 C6.013919,95.9007591 6.013919,90.9620395 8.56828117,87.0313588 C10.6622961,83.8588835 10.6622961,79.8489925 8.56828117,76.6765173 C6.013919,72.7458366 6.013919,67.8071169 8.56828117,63.8764362 C10.6628018,60.7070928 10.6628018,56.6992555 8.56828117,53.529912 C6.013919,49.5992313 6.013919,44.6605117 8.56828117,40.729831 C9.64166636,39.1925666 10.1894575,37.3849719 10.1385575,35.5482517 C10.1719684,33.7609052 9.59023143,32.011028 8.47956495,30.5579666 C7.03031543,28.622289 6.39812609,26.2515789 6.70524138,23.9042533 L6.84718741,21.9081393 C7.17277287,19.5950423 7.32101332,17.2630347 7.2907683,14.9300574 L7.2907683,12.385012 C7.2907683,11.6959974 7.88656209,11.1374407 8.62151097,11.1374407 C9.35645986,11.1374407 9.95225364,11.6959974 9.95225364,12.385012 L9.95225364,14.8801545 C9.98172389,17.2963041 9.83053594,19.7114196 9.49980096,22.1077507 L9.32236872,24.0955476 C9.07088358,25.9253112 9.58957863,27.7749523 10.7684424,29.2521753 C12.1362025,31.0986992 12.8528487,33.3004084 12.817786,35.5482517 C12.8715588,37.814019 12.2044573,40.0434815 10.9015166,41.9524508 C8.806996,45.1217943 8.806996,49.1296316 10.9015166,52.298975 C13.4574597,56.2322305 13.4574597,61.1741177 10.9015166,65.1073732 C8.80699592,68.2767167 8.80699592,72.2845541 10.9015166,75.4538976 C13.4558788,79.3845783 13.4558788,84.3232979 10.9015166,88.2539787 C8.80750183,91.4264538 8.80750183,95.4363448 10.9015166,98.60882 C13.4574597,102.542075 13.4574597,107.483963 10.9015166,111.417218 C9.82518617,112.950516 9.27421253,114.755496 9.32236872,116.59048 C9.3223766,116.922803 9.18095659,117.241395 8.92947187,117.4756 C8.67798716,117.709806 8.33722396,117.840267 7.98275444,117.838052 Z M78.813751,63.2942364 L49.5374122,63.2942364 C48.8024633,63.2942364 48.2066695,62.7356797 48.2066695,62.0466652 L48.2066695,50.4026668 C48.2066695,49.7136522 48.8024633,49.1550955 49.5374122,49.1550955 L78.813751,49.1550955 C79.5486999,49.1550955 80.1444937,49.7136522 80.1444937,50.4026668 L80.1444937,62.0466652 C80.1444937,62.7356797 79.5486999,63.2942364 78.813751,63.2942364 Z M50.8504116,60.7990939 L77.4652651,60.7990939 L77.4652651,51.650238 L50.8504116,51.650238 L50.8504116,60.7990939 Z M107.15857,109.670619 L21.1837218,109.670619 C20.4487729,109.670619 19.8529791,109.112062 19.8529791,108.423047 L19.8529791,96.7790489 C19.8529791,96.4481724 19.9931819,96.1308478 20.2427446,95.8968828 C20.4923072,95.6629178 20.8307869,95.5314777 21.1837218,95.5314777 L107.15857,95.5314777 C107.511505,95.5314777 107.849985,95.6629178 108.099547,95.8968828 C108.34911,96.1308478 108.489313,96.4481724 108.489313,96.7790489 L108.489313,108.423047 C108.489313,109.112062 107.893519,109.670619 107.15857,109.670619 Z M22.5144644,107.175476 L105.827827,107.175476 L105.827827,98.0266202 L22.5144644,98.0266202 L22.5144644,107.175476 Z M37.7115457,89.8841383 C31.8319547,89.8841383 27.0656044,85.4156849 27.0656044,79.9035683 C27.0656044,74.3914516 31.8319547,69.9229982 37.7115457,69.9229982 C43.5911368,69.9229982 48.3574871,74.3914516 48.3574871,79.9035683 C48.3574871,85.4156849 43.5911368,89.8841383 37.7115457,89.8841383 Z M37.7115457,72.5013122 C33.3018524,72.5013122 29.7270897,75.8526522 29.7270897,79.9867397 C29.7270897,84.1208272 33.3018524,87.4721673 37.7115457,87.4721673 C42.121239,87.4721673 45.6960018,84.1208272 45.6960018,79.9867397 C45.6960018,75.8526522 42.121239,72.5013122 37.7115457,72.5013122 Z M64.16671,89.8841383 C58.2871189,89.8841383 53.5207686,85.4156849 53.5207686,79.9035683 C53.5207686,74.3914516 58.2871189,69.9229982 64.16671,69.9229982 C70.0463011,69.9229982 74.8126514,74.3914516 74.8126514,79.9035683 C74.8126514,85.4156849 70.0463011,89.8841383 64.16671,89.8841383 Z M64.16671,72.5013122 C59.7570167,72.5013122 56.1822539,75.8526522 56.1822539,79.9867397 C56.1822539,84.1208272 59.7570167,87.4721673 64.16671,87.4721673 C68.5764033,87.4721673 72.151166,84.1208272 72.151166,79.9867397 C72.151166,75.8526522 68.5764033,72.5013122 64.16671,72.5013122 Z M90.630746,89.8841383 C86.3208735,89.9009739 82.4253838,87.4799894 80.7636088,83.7518703 C79.1018338,80.0237512 80.0016736,75.7241271 83.0428712,72.861075 C86.0840687,69.9980229 90.6665373,69.1364779 94.6501015,70.6788121 C98.6336657,72.2211464 101.232292,75.8630277 101.232329,79.9035683 C101.23238,85.3994854 96.4930067,89.8612386 90.630746,89.8841383 Z M90.630746,72.5013122 C87.397359,72.4844713 84.4723503,74.2975209 83.2225196,77.093258 C81.972689,79.8889952 82.6448125,83.115408 84.9248201,85.2648565 C87.2048276,87.414305 90.6425368,88.0623854 93.631573,86.9062624 C96.6206092,85.7501394 98.5707939,83.0180868 98.5708438,79.9867397 C98.5709116,75.8688382 95.0231065,72.5241895 90.630746,72.5013122 Z" id="形状" fill="#363636" fill-rule="nonzero"></path>
                <path d="M64.16671,72.5013122 C63.4317611,72.5013122 62.8359673,71.9427555 62.8359673,71.2537409 L62.8359673,62.6621337 C62.8359673,61.9731191 63.4317611,61.4145624 64.16671,61.4145624 C64.9016589,61.4145624 65.4974527,61.9731191 65.4974527,62.6621337 L65.4974527,71.2537409 C65.4974527,71.9427555 64.9016589,72.5013122 64.16671,72.5013122 Z M54.8958695,81.1927253 L46.9823863,81.1927253 C46.2474374,81.1927253 45.6516436,80.6341687 45.6516436,79.9451541 C45.6516436,79.2561395 46.2474374,78.6975828 46.9823863,78.6975828 L54.8958695,78.6975828 C55.6308184,78.6975828 56.2266121,79.2561395 56.2266121,79.9451541 C56.2266121,80.6341687 55.6308184,81.1927253 54.8958695,81.1927253 Z M81.3599053,81.1927253 L73.4375507,81.1927253 C72.7026018,81.1927253 72.106808,80.6341687 72.106808,79.9451541 C72.106808,79.2561395 72.7026018,78.6975828 73.4375507,78.6975828 L81.3599053,78.6975828 C82.0948542,78.6975828 82.690648,79.2561395 82.690648,79.9451541 C82.690648,80.6341687 82.0948542,81.1927253 81.3599053,81.1927253 Z M37.7115457,97.2947117 C36.9765969,97.2947117 36.3808031,96.736155 36.3808031,96.0471404 L36.3808031,88.5617129 C36.3808031,87.8726983 36.9765969,87.3141417 37.7115457,87.3141417 C38.4464946,87.3141417 39.0422884,87.8726983 39.0422884,88.5617129 L39.0422884,96.0471404 C39.0422884,96.736155 38.4464946,97.2947117 37.7115457,97.2947117 Z M64.16671,97.2947117 C63.4317611,97.2947117 62.8359673,96.736155 62.8359673,96.0471404 L62.8359673,88.5617129 C62.8359673,87.8726983 63.4317611,87.3141417 64.16671,87.3141417 C64.9016589,87.3141417 65.4974527,87.8726983 65.4974527,88.5617129 L65.4974527,96.0471404 C65.4974527,96.736155 64.9016589,97.2947117 64.16671,97.2947117 Z M90.630746,97.3945174 C90.2778111,97.3945174 89.9393315,97.2630772 89.6897688,97.0291122 C89.4402062,96.7951473 89.3000033,96.4778226 89.3000033,96.1469462 L89.3000033,88.6615186 C89.3000033,87.972504 89.8957971,87.4139474 90.630746,87.4139474 C91.3656949,87.4139474 91.9614887,87.972504 91.9614887,88.6615186 L91.9614887,96.1469462 C91.9614887,96.8359607 91.3656949,97.3945174 90.630746,97.3945174 Z M28.4318334,103.865254 C27.9016363,103.858365 27.4263983,103.557042 27.2221832,103.098281 C27.0179681,102.639519 27.1237524,102.110878 27.491442,101.752699 C27.5531191,101.693218 27.6215404,101.640229 27.6954891,101.594674 L27.9261511,101.478234 L28.1745566,101.411697 C28.5504609,101.351742 28.9357394,101.44584 29.2326595,101.670121 C29.5295797,101.894401 29.7096125,102.227315 29.7270897,102.584414 C29.7307995,102.91592 29.5897714,103.234436 29.3367384,103.466031 C29.1019438,103.704345 28.7773625,103.847543 28.4318334,103.865254 Z M90.5065434,102.584414 C90.5065434,101.895399 91.1023371,101.336843 91.8372859,101.336842 C92.5722347,101.336842 93.1680285,101.895399 93.1680285,102.584414 C93.1680285,103.273428 92.5722347,103.831985 91.8372859,103.831985 C91.1023371,103.831985 90.5065434,103.273428 90.5065434,102.584414 Z M79.9404464,102.584414 C79.9404464,101.895399 80.5362402,101.336842 81.2711891,101.336842 C82.006138,101.336842 82.6019318,101.895399 82.6019318,102.584414 C82.6019318,103.273428 82.006138,103.831985 81.2711891,103.831985 C80.5362402,103.831985 79.9404464,103.273428 79.9404464,102.584414 Z M69.365478,102.584414 C69.365478,101.895399 69.9612718,101.336842 70.6962207,101.336842 C71.4311696,101.336842 72.0269634,101.895399 72.0269634,102.584414 C72.0269634,103.273428 71.4311696,103.831985 70.6962207,103.831985 C69.9612718,103.831985 69.365478,103.273428 69.365478,102.584414 Z M58.7993813,102.584414 C58.7993813,101.895399 59.3951751,101.336842 60.1301239,101.336842 C60.8650728,101.336842 61.4608666,101.895399 61.4608666,102.584414 C61.4608666,103.273428 60.8650728,103.831985 60.1301239,103.831985 C59.3951751,103.831985 58.7993813,103.273428 58.7993813,102.584414 Z M48.2332845,102.584414 C48.2332845,101.895399 48.8290783,101.336842 49.5640272,101.336842 C50.2989761,101.336842 50.8947698,101.895399 50.8947698,102.584414 C50.8947698,103.273428 50.2989761,103.831985 49.5640272,103.831985 C48.8290783,103.831985 48.2332845,103.273428 48.2332845,102.584414 Z M37.7115457,102.584414 C37.7115457,101.895399 38.3073395,101.336842 39.0422884,101.336842 C39.3952233,101.336842 39.7337029,101.468283 39.9832656,101.702248 C40.2328282,101.936213 40.3730311,102.253537 40.3730311,102.584414 C40.3730311,103.273428 39.7772373,103.831985 39.0422884,103.831985 C38.6893535,103.831985 38.3508739,103.700545 38.1013112,103.46658 C37.8517486,103.232615 37.7115457,102.91529 37.7115457,102.584414 Z M102.403383,103.865254 C102.050567,103.864962 101.712315,103.733331 101.462991,103.499299 C101.209958,103.267704 101.06893,102.949189 101.07264,102.617682 C101.072951,102.286917 101.213357,101.969806 101.462991,101.736065 C101.521544,101.676715 101.587011,101.623709 101.658167,101.57804 L101.888829,101.4616 L102.137234,101.395062 C102.872183,101.326161 103.527556,101.828862 103.601051,102.517877 C103.674546,103.206891 103.138332,103.821304 102.403383,103.890205 L102.403383,103.865254 Z" id="形状" fill="#363636" fill-rule="nonzero"></path>
            </g>
        </g>
    </g>
</svg>