<?xml version="1.0" encoding="UTF-8"?>
<svg width="140px" height="140px" viewBox="0 0 140 140" version="1.1" xmlns="http://www.w3.org/2000/svg" xmlns:xlink="http://www.w3.org/1999/xlink">
    <!-- Generator: Sketch 52.5 (67469) - http://www.bohemiancoding.com/sketch -->
    <title>icon_gn_bglc</title>
    <desc>Created with Sketch.</desc>
    <g id="组件" stroke="none" stroke-width="1" fill="none" fill-rule="evenodd">
        <g id="icon_gn_bglc">
            <g>
                <rect id="矩形" fill="#000000" opacity="0" x="0" y="0" width="140" height="140"></rect>
                <g id="流程" transform="translate(0.000000, 10.000000)">
                    <path d="M61.28125,42.796875 L27.34375,42.796875 L27.34375,0.21875 L61.28125,0.21875 L61.28125,42.796875 Z M29.234375,40.90625 L59.375,40.90625 L59.375,2.125 L29.234375,2.125 L29.234375,40.90625 Z" id="形状" fill="#495460" fill-rule="nonzero"></path>
                    <polygon id="路径" fill="#FDF5E7" points="31.453125 4.328125 57.171875 4.328125 57.171875 38.6875 31.453125 38.6875"></polygon>
                    <path d="M114.21875,42.796875 L80.28125,42.796875 L80.28125,0.21875 L114.21875,0.21875 L114.21875,42.796875 Z M82.171875,40.90625 L112.3125,40.90625 L112.3125,2.125 L82.171875,2.125 L82.171875,40.90625 Z" id="形状" fill="#495460" fill-rule="nonzero"></path>
                    <polygon id="路径" fill="#FDF5E7" points="84.390625 4.328125 110.109375 4.328125 110.109375 38.6875 84.390625 38.6875"></polygon>
                    <path d="M34.90625,119.203125 L0.96875,119.203125 L0.96875,76.625 L34.90625,76.625 L34.90625,119.203125 Z M2.859375,117.296875 L33,117.296875 L33,78.515625 L2.859375,78.515625 L2.859375,117.296875 Z" id="形状" fill="#495460" fill-rule="nonzero"></path>
                    <polygon id="路径" fill="#FDF5E7" points="5.078125 80.734375 30.796875 80.734375 30.796875 115.09375 5.078125 115.09375"></polygon>
                    <path d="M87.28125,119.203125 L53.34375,119.203125 L53.34375,76.625 L87.28125,76.625 L87.28125,119.203125 Z M55.234375,117.296875 L85.375,117.296875 L85.375,78.515625 L55.234375,78.515625 L55.234375,117.296875 Z" id="形状" fill="#495460" fill-rule="nonzero"></path>
                    <polygon id="路径" fill="#FDF5E7" points="57.453125 80.734375 83.171875 80.734375 83.171875 115.09375 57.453125 115.09375"></polygon>
                    <path d="M139.71875,119.203125 L105.78125,119.203125 L105.78125,76.625 L139.71875,76.625 L139.71875,119.203125 Z M107.671875,117.296875 L137.8125,117.296875 L137.8125,78.515625 L107.671875,78.515625 L107.671875,117.296875 Z" id="形状" fill="#495460" fill-rule="nonzero"></path>
                    <polygon id="路径" fill="#FDF5E7" points="109.890625 80.734375 135.609375 80.734375 135.609375 115.09375 109.890625 115.09375"></polygon>
                    <polygon id="路径" fill="#5B88F7" points="34.125 7.578125 54.515625 7.578125 54.515625 11.953125 34.125 11.953125"></polygon>
                    <path d="M54.671875,19.328125 L52.78125,19.328125 L52.78125,17.4375 L54.671875,17.4375 L54.671875,19.328125 Z M50.875,19.328125 L48.984375,19.328125 L48.984375,17.4375 L50.875,17.4375 L50.875,19.328125 Z M47.078125,19.328125 L45.1875,19.328125 L45.1875,17.4375 L47.078125,17.4375 L47.078125,19.328125 Z M43.296875,19.328125 L41.40625,19.328125 L41.40625,17.4375 L43.296875,17.4375 L43.296875,19.328125 Z M39.5,19.328125 L37.609375,19.328125 L37.609375,17.4375 L39.5,17.4375 L39.5,19.328125 Z M35.703125,19.328125 L33.8125,19.328125 L33.8125,17.4375 L35.703125,17.4375 L35.703125,19.328125 Z M33.8125,22.71875 L54.828125,22.71875 L54.828125,24.609375 L33.8125,24.609375 L33.8125,22.71875 Z M54.671875,29.90625 L52.78125,29.90625 L52.78125,28.015625 L54.671875,28.015625 L54.671875,29.90625 Z M50.875,29.90625 L48.984375,29.90625 L48.984375,28.015625 L50.875,28.015625 L50.875,29.90625 Z M47.078125,29.90625 L45.1875,29.90625 L45.1875,28.015625 L47.078125,28.015625 L47.078125,29.90625 Z M43.296875,29.90625 L41.40625,29.90625 L41.40625,28.015625 L43.296875,28.015625 L43.296875,29.90625 Z M39.5,29.90625 L37.609375,29.90625 L37.609375,28.015625 L39.5,28.015625 L39.5,29.90625 Z M35.703125,29.90625 L33.8125,29.90625 L33.8125,28.015625 L35.703125,28.015625 L35.703125,29.90625 Z M33.8125,33.296875 L54.828125,33.296875 L54.828125,35.203125 L33.8125,35.203125 L33.8125,33.296875 Z" id="形状" fill="#495460" fill-rule="nonzero"></path>
                    <polygon id="路径" fill="#ED869C" points="87.1875 16.875 107.296875 16.875 107.296875 34.875 87.1875 34.875"></polygon>
                    <path d="M108.25,35.828125 L86.25,35.828125 L86.25,15.9375 L108.25,15.9375 L108.25,35.828125 Z M88.140625,33.9375 L106.34375,33.9375 L106.34375,17.84375 L88.140625,17.84375 L88.140625,33.9375 Z M87.1875,5.953125 L107.296875,5.953125 L107.296875,7.84375 L87.1875,7.84375 L87.1875,5.953125 Z M87.1875,10.421875 L107.296875,10.421875 L107.296875,12.328125 L87.1875,12.328125 L87.1875,10.421875 Z" id="形状" fill="#495460" fill-rule="nonzero"></path>
                    <path d="M18.390625,68.703125 L16.5,68.703125 L16.5,67.453125 C16.5,62.015625 20.921875,57.609375 26.34375,57.609375 L122.171875,57.609375 C126.5625,57.609375 130.125,54.046875 130.125,49.65625 L130.125,30.40625 C130.125,26.015625 126.5625,22.453125 122.171875,22.453125 L118.6875,22.453125 L118.6875,20.5625 L122.171875,20.5625 C127.609375,20.5625 132.015625,24.984375 132.015625,30.40625 L132.015625,49.65625 C132.015625,55.078125 127.59375,59.5 122.171875,59.5 L26.328125,59.5 C21.9375,59.5 18.375,63.0625 18.375,67.453125 L18.375,68.703125 L18.390625,68.703125 Z M65.421875,20.5625 L76.359375,20.5625 L76.359375,22.453125 L65.421875,22.453125 L65.421875,20.5625 Z M38.359375,96.953125 L49.75,96.953125 L49.75,98.84375 L38.359375,98.84375 L38.359375,96.953125 Z M91.234375,96.953125 L102.625,96.953125 L102.625,98.84375 L91.234375,98.84375 L91.234375,96.953125 Z" id="形状" fill="#495460" fill-rule="nonzero"></path>
                    <polygon id="路径" fill="#FDDA43" points="112.78125 83.96875 133.125 83.96875 133.125 111.75 112.78125 111.75"></polygon>
                    <path d="M134.078125,112.703125 L111.84375,112.703125 L111.84375,83.015625 L134.078125,83.015625 L134.078125,112.703125 Z M113.734375,110.796875 L132.171875,110.796875 L132.171875,84.921875 L113.734375,84.921875 L113.734375,110.796875 Z" id="形状" fill="#495460" fill-rule="nonzero"></path>
                    <polygon id="路径" fill="#495460" points="132.359375 112.3125 112.015625 84.53125 113.546875 83.40625 133.890625 111.1875"></polygon>
                    <path d="M113.546875,112.3125 L112.015625,111.1875 L132.359375,83.40625 L133.890625,84.53125 L113.546875,112.3125 Z M8.359375,83.015625 L12.203125,83.015625 L12.203125,84.90625 L8.359375,84.90625 L8.359375,83.015625 Z M15.046875,83.015625 L27.609375,83.015625 L27.609375,84.90625 L15.046875,84.90625 L15.046875,83.015625 Z M17.9375,89.046875 L27.59375,89.046875 L27.59375,90.9375 L17.9375,90.9375 L17.9375,89.046875 Z M11.75,89.046875 L15.046875,89.046875 L15.046875,90.9375 L11.75,90.9375 L11.75,89.046875 Z M17.9375,94.421875 L27.59375,94.421875 L27.59375,96.328125 L17.9375,96.328125 L17.9375,94.421875 Z M11.75,94.421875 L15.046875,94.421875 L15.046875,96.328125 L11.75,96.328125 L11.75,94.421875 Z M17.9375,100.09375 L27.59375,100.09375 L27.59375,102 L17.9375,102 L17.9375,100.09375 Z M11.75,100.09375 L15.046875,100.09375 L15.046875,102 L11.75,102 L11.75,100.09375 Z M28.09375,108.109375 L26.203125,108.109375 L26.203125,106.203125 L28.09375,106.203125 L28.09375,108.109375 Z M24.296875,108.109375 L22.40625,108.109375 L22.40625,106.203125 L24.296875,106.203125 L24.296875,108.109375 Z M20.5,108.109375 L18.609375,108.109375 L18.609375,106.203125 L20.5,106.203125 L20.5,108.109375 Z M16.703125,108.109375 L14.8125,108.109375 L14.8125,106.203125 L16.703125,106.203125 L16.703125,108.109375 Z M12.921875,108.109375 L11.03125,108.109375 L11.03125,106.203125 L12.921875,106.203125 L12.921875,108.109375 Z M9.125,108.109375 L7.234375,108.109375 L7.234375,106.203125 L9.125,106.203125 L9.125,108.109375 Z M28.09375,113.171875 L26.203125,113.171875 L26.203125,111.28125 L28.09375,111.28125 L28.09375,113.171875 Z M24.296875,113.171875 L22.40625,113.171875 L22.40625,111.28125 L24.296875,111.28125 L24.296875,113.171875 Z M20.5,113.171875 L18.609375,113.171875 L18.609375,111.28125 L20.5,111.28125 L20.5,113.171875 Z M16.703125,113.171875 L14.8125,113.171875 L14.8125,111.28125 L16.703125,111.28125 L16.703125,113.171875 Z M12.921875,113.171875 L11.03125,113.171875 L11.03125,111.28125 L12.921875,111.28125 L12.921875,113.171875 Z M9.125,113.171875 L7.234375,113.171875 L7.234375,111.28125 L9.125,111.28125 L9.125,113.171875 Z" id="形状" fill="#495460" fill-rule="nonzero"></path>
                    <polygon id="路径" fill="#5B88F7" points="60.46875 83.96875 79.984375 83.96875 79.984375 94.84375 60.46875 94.84375"></polygon>
                    <path d="M55.453125,12.890625 L33.171875,12.890625 L33.171875,6.625 L55.453125,6.625 L55.453125,12.890625 Z M35.0625,11 L53.546875,11 L53.546875,8.53125 L35.0625,8.53125 L35.0625,11 Z M80.9375,95.796875 L59.53125,95.796875 L59.53125,83.03125 L80.9375,83.03125 L80.9375,95.796875 Z M61.421875,93.90625 L79.03125,93.90625 L79.03125,84.921875 L61.421875,84.921875 L61.421875,93.90625 Z" id="形状" fill="#495460" fill-rule="nonzero"></path>
                    <polygon id="路径" fill="#ED869C" points="60.46875 100.875 79.984375 100.875 79.984375 111.75 60.46875 111.75"></polygon>
                    <path d="M80.9375,112.703125 L59.53125,112.703125 L59.53125,99.921875 L80.9375,99.921875 L80.9375,112.703125 Z M61.421875,110.796875 L79.03125,110.796875 L79.03125,101.8125 L61.421875,101.8125 L61.421875,110.796875 Z M64.796875,88.453125 L75.359375,88.453125 L75.359375,90.34375 L64.796875,90.34375 L64.796875,88.453125 Z" id="形状" fill="#495460" fill-rule="nonzero"></path>
                    <path d="M75.4375,115.359375 L73.4440898,115.359375 L73.4440898,105.359375 L75.4375,105.359375 L75.4375,115.359375 Z M71.4342051,115.359375 L69.4407949,115.359375 L69.4407949,105.359375 L71.4342051,105.359375 L71.4342051,115.359375 Z M67.4309102,115.359375 L65.4375,115.359375 L65.4375,105.359375 L67.4309102,105.359375 L67.4309102,115.359375 Z" id="形状" fill="#495460" fill-rule="nonzero"></path>
                </g>
            </g>
        </g>
    </g>
</svg>