<?xml version="1.0" encoding="UTF-8"?>
<svg width="140px" height="140px" viewBox="0 0 140 140" version="1.1" xmlns="http://www.w3.org/2000/svg" xmlns:xlink="http://www.w3.org/1999/xlink">
    <!-- Generator: Sketch 52.5 (67469) - http://www.bohemiancoding.com/sketch -->
    <title>icon_gn_zsk</title>
    <desc>Created with Sketch.</desc>
    <g id="组件" stroke="none" stroke-width="1" fill="none" fill-rule="evenodd">
        <g id="icon_gn_zsk">
            <g id="知识增长">
                <g transform="translate(5.000000, 6.000000)">
                    <path d="M127.879475,128.821661 L1.82916853,128.821661 C1.09265073,128.821661 0.495585085,128.224998 0.495585085,127.488977 L0.495585085,112.47407 C0.495585085,111.738049 1.09265073,111.141386 1.82916853,111.141386 L127.879475,111.141386 C128.615993,111.141386 129.213059,111.738049 129.213059,112.47407 L129.213059,127.488977 C129.213059,128.224998 128.615993,128.821661 127.879475,128.821661 Z" id="路径" fill="#363636" fill-rule="nonzero"></path>
                    <polygon id="路径" fill="#FDF5E7" fill-rule="nonzero" points="3.18942359 126.156293 126.51922 126.156293 126.51922 113.806754 3.16275197 113.806754"></polygon>
                    <path d="M12.9245826,128.821661 C12.1880648,128.821661 11.5909992,128.224998 11.5909992,127.488977 L11.5909992,122.158241 C11.5909992,121.42222 12.1880648,120.825557 12.9245826,120.825557 C13.6611004,120.825557 14.2581661,121.42222 14.2581661,122.158241 L14.2581661,127.488977 C14.2581661,128.224998 13.6611004,128.821661 12.9245826,128.821661 Z M24.4467436,128.821661 C23.7102258,128.821661 23.1131602,128.224998 23.1131602,127.488977 L23.1131602,122.158241 C23.1131602,121.42222 23.7102258,120.825557 24.4467436,120.825557 C25.1832614,120.825557 25.7803271,121.42222 25.7803271,122.158241 L25.7803271,127.488977 C25.7803271,128.224998 25.1832614,128.821661 24.4467436,128.821661 Z M35.9600141,128.821661 C35.2234963,128.821661 34.6264306,128.224998 34.6264306,127.488977 L34.6264306,122.158241 C34.6264306,121.42222 35.2234963,120.825557 35.9600141,120.825557 C36.6965319,120.825557 37.2935975,121.42222 37.2935975,122.158241 L37.2935975,127.488977 C37.2935975,128.224998 36.6965319,128.821661 35.9600141,128.821661 Z M47.4821749,128.821661 C46.7456571,128.821661 46.1485914,128.224998 46.1485914,127.488977 L46.1485914,122.158241 C46.1485914,121.42222 46.7456571,120.825557 47.4821749,120.825557 C48.2186927,120.825557 48.8157583,121.42222 48.8157583,122.158241 L48.8157583,127.488977 C48.8157583,128.224998 48.2186927,128.821661 47.4821749,128.821661 Z M59.0043359,128.821661 C58.2678181,128.821661 57.6707525,128.224998 57.6707525,127.488977 L57.6707525,122.158241 C57.6707525,121.42222 58.2678181,120.825557 59.0043359,120.825557 C59.7408537,120.825557 60.3379193,121.42222 60.3379193,122.158241 L60.3379193,127.488977 C60.3379193,128.224998 59.7408537,128.821661 59.0043359,128.821661 Z M70.5264967,128.821661 C69.7899789,128.821661 69.1929133,128.224998 69.1929133,127.488977 L69.1929133,122.158241 C69.1929133,121.42222 69.7899789,120.825557 70.5264967,120.825557 C71.2630145,120.825557 71.8600802,121.42222 71.8600802,122.158241 L71.8600802,127.488977 C71.8600802,128.224998 71.2630145,128.821661 70.5264967,128.821661 Z M82.0486577,128.821661 C81.3121399,128.821661 80.7150743,128.224998 80.7150743,127.488977 L80.7150743,122.158241 C80.7150743,121.42222 81.3121399,120.825557 82.0486577,120.825557 C82.7851755,120.825557 83.3822412,121.42222 83.3822412,122.158241 L83.3822412,127.488977 C83.3822412,127.842426 83.241739,128.1814 82.9916436,128.431327 C82.7415482,128.681253 82.402346,128.821661 82.0486577,128.821661 Z M93.5708187,128.821661 C93.2171304,128.821661 92.8779282,128.681253 92.6278328,128.431327 C92.3777374,128.1814 92.2372353,127.842426 92.2372353,127.488977 L92.2372353,122.158241 C92.2372353,121.42222 92.8343009,120.825557 93.5708187,120.825557 C94.3073365,120.825557 94.9044022,121.42222 94.9044022,122.158241 L94.9044022,127.488977 C94.9044022,128.224998 94.3073365,128.821661 93.5708187,128.821661 Z M105.084089,128.821661 C104.347571,128.821661 103.750506,128.224998 103.750506,127.488977 L103.750506,122.158241 C103.750505,121.682119 104.004685,121.242163 104.417297,121.004102 C104.829909,120.766041 105.338269,120.766041 105.750881,121.004102 C106.163493,121.242163 106.417672,121.682119 106.417672,122.158241 L106.417672,127.488977 C106.417672,128.224998 105.820607,128.821661 105.084089,128.821661 Z M116.60625,128.821661 C115.869732,128.821661 115.272667,128.224998 115.272667,127.488977 L115.272667,122.158241 C115.272667,121.42222 115.869732,120.825557 116.60625,120.825557 C117.342768,120.825557 117.939833,121.42222 117.939833,122.158241 L117.939833,127.488977 C117.939833,127.842426 117.799331,128.1814 117.549236,128.431327 C117.29914,128.681253 116.959938,128.821661 116.60625,128.821661 Z M111.396384,66.407627 L71.7800653,66.407627 C71.3656628,66.4109509 70.9735832,66.2202815 70.7204878,65.8923516 C70.4673925,65.5644217 70.38245,65.1370244 70.4909345,64.7373297 C70.612904,64.2853491 70.675662,63.8194614 70.6776363,63.3513385 L70.6776363,59.6908997 C70.6776363,58.9548787 71.2747019,58.3582158 72.0112197,58.3582158 L102.416922,58.3582158 L102.416922,6.75669146 C102.416922,6.02067042 103.013988,5.42400747 103.750506,5.42400747 L111.396384,5.42400747 C111.750072,5.42400747 112.089274,5.56441485 112.33937,5.81434157 C112.589465,6.0642683 112.729967,6.40324169 112.729967,6.75669146 L112.729967,65.074943 C112.729967,65.4283928 112.589465,65.7673661 112.33937,66.0172929 C112.089274,66.2672196 111.750072,66.407627 111.396384,66.407627 Z M73.3359126,63.742259 L110.098363,63.742259 L110.098363,8.08937546 L105.119651,8.08937546 L105.119651,59.6908997 C105.119651,60.4269208 104.522586,61.0235837 103.786068,61.0235837 L73.3803653,61.0235837 L73.3803653,63.3513385 C73.3448032,63.4846068 73.3448032,63.6178752 73.3359126,63.742259 Z M58.8087436,66.407627 L19.1924249,66.407627 C18.4559071,66.407627 17.8588415,65.810964 17.8588415,65.074943 L17.8588415,6.75669146 C17.8588415,6.02067042 18.4559071,5.42400747 19.1924249,5.42400747 L26.8383033,5.42400747 C27.5728035,5.42885254 28.1670385,6.02268668 28.1718868,6.75669146 L28.1718868,58.3582158 L58.5775892,58.3582158 C59.314107,58.3582158 59.9111726,58.9548787 59.9111726,59.6908997 L59.9111726,63.3513385 C59.9131468,63.8194614 59.9759048,64.2853491 60.0978743,64.7373297 C60.2063589,65.1370244 60.1214164,65.5644217 59.8683211,65.8923516 C59.6152257,66.2202815 59.2231461,66.4109509 58.8087436,66.407627 Z M20.5260083,63.742259 L57.2528963,63.742259 L57.2528963,61.0235837 L26.8383033,61.0235837 C26.1017855,61.0235837 25.5047199,60.4269208 25.5047199,59.6908997 L25.5047199,8.08937546 L20.5260083,8.08937546 L20.5260083,63.742259 Z M67.1303043,8.08937546 L63.4585046,8.08937546 C63.1003637,8.09009417 62.7571923,7.94586712 62.507215,7.68957037 C61.6969065,6.86061278 60.6270255,6.33387144 59.4755353,6.19696419 C59.0200209,6.14137812 58.6251035,5.85565172 58.4300541,5.44054884 C58.2350046,5.02544597 58.267226,4.53928528 58.5153552,4.15351548 C59.9787457,1.82126664 62.5397281,0.405251016 65.2944044,0.405251016 C68.0490806,0.405251016 70.610063,1.82126664 72.0734535,4.15351548 C72.3203209,4.54052034 72.3505512,5.02723474 72.1534686,5.44177656 C71.9617898,5.85718192 71.5678495,6.14318492 71.1132736,6.19696419 C69.9617834,6.33387139 68.8919023,6.86061274 68.0815937,7.68957037 C67.8316165,7.94586707 67.4884451,8.09009412 67.1303043,8.08937546 Z M63.991938,5.42400747 L66.5968709,5.42400747 C67.1737431,4.91720544 67.8242309,4.50081455 68.5261215,4.18905366 C66.6169071,2.73619063 63.9719016,2.73619063 62.0626872,4.18905366 C62.763426,4.50294806 63.413608,4.91914314 63.991938,5.42400747 Z" id="形状" fill="#363636" fill-rule="nonzero"></path>
                    <path d="M65.2899591,71.4007497 C61.6442414,71.3946091 58.4571942,68.942165 57.5196129,65.4214408 C57.3369744,64.7465357 57.2443046,64.0504869 57.2440057,63.3513385 L57.2440057,59.6908997 C57.2440057,58.9548787 57.8410714,58.3582158 58.5775892,58.3582158 L72.0112197,58.3582158 C72.7477375,58.3582158 73.3448032,58.9548787 73.3448032,59.6908997 L73.3448032,63.3513385 C73.3400618,64.0501849 73.2474674,64.7456665 73.0691958,65.4214408 C72.1280458,68.943545 68.9379318,71.3955435 65.2899591,71.4007497 Z M59.9556253,61.0235837 L59.9556253,63.3513385 C60.0730147,66.237418 62.4484449,68.5167175 65.3388572,68.5167175 C68.2292694,68.5167175 70.6046996,66.237418 70.722089,63.3513385 L70.722089,61.0235837 L59.9556253,61.0235837 Z M65.2899591,12.5849629 C64.5534413,12.5849629 63.9563756,11.9882999 63.9563756,11.2522789 C63.9566574,9.92393023 63.4364753,8.64827066 62.507215,7.69845492 C62.1314816,7.31538917 62.0221848,6.7445468 62.2298713,6.2499267 C62.4375579,5.75530661 62.9217431,5.43332598 63.4585046,5.43289201 L67.1303043,5.43289201 C67.6670658,5.43332606 68.1512509,5.75530671 68.3589374,6.24992679 C68.5666239,6.74454687 68.4573271,7.31538919 68.0815937,7.69845492 C67.1458238,8.64469496 66.6218077,9.92192115 66.6235425,11.2522789 C66.6235425,11.9882999 66.0264769,12.5849629 65.2899591,12.5849629 Z" id="形状" fill="#363636" fill-rule="nonzero"></path>
                    <path d="M65.2899591,61.0235837 L26.8383033,61.0235837 C26.1017855,61.0235837 25.5047199,60.4269208 25.5047199,59.6908997 L25.5047199,4.81985748 C25.5047199,4.08383643 26.1017855,3.48717348 26.8383033,3.48717348 L58.8443058,3.48717348 C59.141576,3.49156405 59.4383781,3.51232614 59.7333614,3.5493653 C61.4842348,3.76531477 63.1104804,4.56692962 64.3475602,5.82381274 C65.7717216,7.27157255 66.5671691,9.22213734 66.5613087,11.2522789 L66.5613087,59.6908997 C66.5620854,60.4033019 66.0020658,60.9903388 65.2899591,61.0235837 Z M28.1718868,58.3582158 L63.9563758,58.3582158 L63.9563756,11.270048 C63.9566574,9.94169932 63.4364753,8.66603975 62.507215,7.71622401 C61.6969064,6.88726648 60.6270254,6.36052521 59.4755353,6.22361802 C59.2722633,6.1952448 59.0673288,6.18040445 58.862087,6.1791951 L28.1718868,6.1791951 L28.1718868,58.3582158 Z" id="形状" fill="#363636" fill-rule="nonzero"></path>
                    <path d="M103.750506,61.0235837 L65.2899591,61.0235837 C64.5534413,61.0235837 63.9563756,60.4269208 63.9563756,59.6908997 L63.9563756,11.2522789 C63.9552944,9.2230689 64.7500321,7.27424455 66.1701242,5.82381274 C67.4107611,4.56686658 69.0397931,3.76542246 70.7932135,3.5493653 C71.0881663,3.5120155 71.3849858,3.49125219 71.6822691,3.48717348 L103.688272,3.48717348 C104.42479,3.48717348 105.021855,4.08383643 105.021855,4.81985748 L105.021855,59.6908997 C105.022632,60.4033019 104.462612,60.9903388 103.750506,61.0235837 Z M66.6235425,58.3582158 L102.416922,58.3582158 L102.416922,6.15254147 L71.7178313,6.15254147 C71.5155418,6.15374855 71.3135641,6.16858981 71.1132736,6.19696419 C68.5536574,6.50668884 66.6273056,8.67570843 66.6235425,11.2522789 L66.6235425,58.3582158 Z" id="形状" fill="#363636" fill-rule="nonzero"></path>
                    <rect id="矩形" fill="#FDF5E7" x="32.5" y="11.1353417" width="27.8571429" height="36.1898606"></rect>
                    <rect id="矩形-copy" fill="#FDF5E7" x="70.5714286" y="11.1353417" width="27.8571429" height="36.1898606"></rect>
                    <path d="M65.2899591,61.0235837 C64.5534413,61.0235837 63.9563756,60.4269208 63.9563756,59.6908997 L63.9563756,55.8705388 C63.9563756,54.4966329 62.8418531,53.3828621 61.46702,53.3828621 L30.6612425,53.3828621 C29.2864093,53.3828621 28.1718868,54.4966329 28.1718868,55.8705388 C28.1718868,56.6065599 27.5748211,57.2032228 26.8383033,57.2032228 C26.1017855,57.2032228 25.5047199,56.6065599 25.5047199,55.8705388 C25.5047199,53.0245908 27.8133737,50.7174942 30.6612425,50.7174942 L61.46702,50.7174942 C64.3148887,50.7174942 66.6235425,53.0245908 66.6235425,55.8705388 L66.6235425,59.6908997 C66.6235425,60.4269208 66.0264769,61.0235837 65.2899591,61.0235837 Z" id="路径" fill="#363636"></path>
                    <path d="M65.2899591,61.0235837 C64.5534413,61.0235837 63.9563756,60.4269208 63.9563756,59.6908997 L63.9563756,55.8705388 C63.9563756,54.5038664 64.4996506,53.1931693 65.4666862,52.2267859 C66.4337218,51.2604026 67.7453035,50.7174941 69.1128984,50.7174942 L99.9275664,50.7174942 C102.775435,50.7174942 105.084089,53.0245908 105.084089,55.8705388 C105.084089,56.6065599 104.487023,57.2032228 103.750506,57.2032228 C103.013988,57.2032228 102.416922,56.6065599 102.416922,55.8705388 C102.412045,54.4986567 101.300374,53.3877356 99.9275664,53.3828621 L69.1128984,53.3828621 C67.7400903,53.3877355 66.6284193,54.4986566 66.6235425,55.8705388 L66.6235425,59.6908997 C66.6235425,60.4269208 66.0264769,61.0235837 65.2899591,61.0235837 Z M65.2899591,113.806754 C64.5534413,113.806754 63.9563756,113.210091 63.9563756,112.47407 L63.9563756,70.0680657 C63.9563756,69.3320446 64.5534413,68.7353817 65.2899591,68.7353817 C66.0264769,68.7353817 66.6235425,69.3320446 66.6235425,70.0680657 L66.6235425,112.47407 C66.6235425,112.82752 66.4830404,113.166494 66.232945,113.41642 C65.9828496,113.666347 65.6436474,113.806754 65.2899591,113.806754 Z" id="形状" fill="#363636" fill-rule="nonzero"></path>
                    <path d="M54.1856543,107.854099 C42.7968518,107.854099 26.7316165,105.961688 24.1889175,95.5578681 C20.7216006,81.3425722 16.6941787,77.7887482 16.6497258,77.7887484 C16.230128,77.4504167 16.0519235,76.8952127 16.1963074,76.3761033 C16.3437846,75.8574552 16.7894587,75.4787124 17.325408,75.4165708 C18.8545838,75.2299949 54.8702273,71.072021 58.782072,87.0997671 C62.2582794,101.315063 66.2945921,104.868887 66.3390448,104.868887 C66.7449692,105.216196 66.9115962,105.767776 66.7657916,106.281532 C66.6154655,106.794831 66.1761747,107.171112 65.6455815,107.241065 C61.8395844,107.653278 58.013937,107.857926 54.1856543,107.854099 Z" id="路径" fill="#363636" fill-rule="nonzero"></path>
                    <path d="M20.1081522,77.8509402 C21.8151389,80.3386169 24.4556342,85.3850471 26.7849599,94.9270645 C29.6121567,106.476992 54.7991027,105.464153 62.8628372,104.824464 C61.1558504,102.336788 58.5242457,97.2903574 56.1949202,87.74834 C53.3677233,76.1539893 28.1718868,77.2112518 20.1081522,77.8509402 Z" id="路径" fill="#ED869C" fill-rule="nonzero"></path>
                    <path d="M65.4944419,107.249949 C65.2494614,107.251498 65.0090435,107.183734 64.8009786,107.054489 L16.7919746,77.8953631 C16.3483644,77.6676419 16.0689715,77.211598 16.0677412,76.7132205 C16.0665109,76.214843 16.3436489,75.7574271 16.7861295,75.5275214 C17.2286101,75.2976158 17.7624803,75.3336452 18.170011,75.6209157 L66.1790147,104.771157 C66.6837446,105.086693 66.9202263,105.696736 66.7599291,106.26972 C66.5996318,106.842704 66.0808513,107.241741 65.4855514,107.249949 L65.4944419,107.249949 Z" id="路径-4" fill="#363636"></path>
                    <path d="M77.0077124,107.854099 C73.1764544,107.85862 69.3478102,107.65397 65.5388948,107.241065 C65.0025665,107.173025 64.5584317,106.792095 64.409794,106.272648 C64.2663935,105.754373 64.4487209,105.200752 64.8721031,104.868887 C64.8721031,104.868887 68.9350874,101.315063 72.4112946,87.0997671 C76.3231394,71.1075591 112.338783,75.2299949 113.867959,75.4165708 C114.398459,75.4806431 114.839466,75.8549816 114.988566,76.3677737 C115.137667,76.8805659 114.966069,77.4327864 114.552531,77.7709791 C114.454735,77.8598247 110.445094,81.4225333 107.004449,95.540099 C104.46175,105.961688 88.3876243,107.854099 77.0077124,107.854099 Z" id="路径" fill="#363636" fill-rule="nonzero"></path>
                    <path d="M68.3127484,104.824464 C76.376483,105.464153 101.563429,106.503646 104.390626,94.9270645 C106.719951,85.3850471 109.360447,80.3386171 111.067433,77.8509402 C102.994808,77.2112518 77.8078624,76.1628738 74.9806654,87.74834 C72.6691207,97.2903574 70.0286255,102.336787 68.3127484,104.824464 Z" id="路径" fill="#ED869C"></path>
                    <path d="M40.1119038,100.577645 C39.375386,100.634073 38.7325453,100.083154 38.6760789,99.3471331 C38.6196126,98.611112 39.1709032,97.9687049 39.907421,97.9122766 L49.7403761,96.3574786 L48.1934195,86.5400398 C48.0759214,85.8139138 48.5693371,85.1299601 49.2958483,85.0118956 C50.0229674,84.9049458 50.7023071,85.398319 50.825024,86.1224656 L52.6031353,97.2725883 C52.6592804,97.6215981 52.5734142,97.9785513 52.3646661,98.2639262 C52.1559179,98.5493011 51.8416288,98.7393911 51.4918158,98.7918481 L40.3430582,100.56876 L40.1119038,100.577645 Z M29.1320667,91.3377021 C28.3955489,91.3941304 27.7527083,90.8432116 27.6962419,90.1071906 C27.6397755,89.3711695 28.1910661,88.7287624 28.9275839,88.6723341 L35.799984,87.588418 L34.715336,80.7206531 C34.6406932,80.244531 34.8259,79.7647814 35.2011907,79.4621213 C35.5764815,79.1594613 36.0848406,79.079872 36.5347742,79.2533341 C36.9847077,79.4267962 37.3078601,79.8269566 37.3825029,80.3030787 L38.6805242,88.4857585 C38.7372563,88.8361957 38.650768,89.1947197 38.4404792,89.4808292 C38.2296244,89.772628 37.9082926,89.965297 37.5514236,90.0139029 L29.3454401,91.3377021 C29.2745736,91.3462622 29.2029333,91.3462622 29.1320667,91.3377021 Z" id="形状" fill="#363636" fill-rule="nonzero"></path>
                    <path d="M65.6989247,107.249949 C65.1036248,107.241741 64.5848443,106.842704 64.424547,106.26972 C64.2642497,105.696736 64.5007315,105.086693 65.0054614,104.771157 L113.014465,75.6209157 C113.421686,75.3513763 113.94378,75.3258779 114.375361,75.5544512 C114.806943,75.7830245 115.078949,76.2290926 115.084376,76.7171782 C115.089804,77.2052637 114.827784,77.6572622 114.401392,77.8953631 L66.3923881,107.054489 C66.1837449,107.182419 65.9437108,107.250075 65.6989247,107.249949 Z" id="路径" fill="#363636"></path>
                    <path d="M91.0814628,100.577645 L90.8680895,100.577645 L79.7104414,98.8007326 C79.3535724,98.7521268 79.0322406,98.5594577 78.8213858,98.267659 C78.6137803,97.9838191 78.5303609,97.6279225 78.5902313,97.2814728 L80.3683426,86.1313502 C80.4429854,85.655228 80.7661377,85.2550676 81.2160713,85.0816055 C81.6660048,84.9081434 82.174364,84.9877326 82.5496547,85.2903926 C82.9249455,85.5930526 83.1101523,86.0728022 83.0355095,86.5489243 L81.4796621,96.3752477 L91.3215078,97.9300457 C92.0089749,98.0427844 92.4959132,98.6623045 92.4426588,99.3564598 C92.3894043,100.050615 91.8136552,100.588718 91.1170252,100.595414 L91.0814628,100.577645 Z M102.096862,91.3377021 C102.025996,91.3462622 101.954355,91.3462622 101.883489,91.3377021 L93.6863959,90.049441 C93.3295269,90.0008352 93.0081952,89.8081661 92.7973403,89.5163674 C92.5870515,89.2302579 92.5005633,88.8717339 92.5572953,88.5212967 L93.8464259,80.3386169 C93.9618137,79.6025959 94.6524196,79.0994101 95.3889374,79.2147201 C96.1254552,79.3300301 96.6289806,80.0201702 96.5135928,80.7561913 L95.4289448,87.6239561 L102.301345,88.7078725 C103.037863,88.7643008 103.589153,89.4067079 103.532687,90.142729 C103.476221,90.87875 102.83338,91.4296688 102.096862,91.3732405 L102.096862,91.3377021 Z M34.0307632,14.0420307 C33.8539481,14.0456495 33.6783222,14.0123636 33.5151111,13.9443005 C33.3545318,13.880398 33.2091524,13.7835437 33.0883644,13.6599945 C32.9619043,13.5363752 32.8620646,13.3882285 32.7949759,13.2246513 C32.7275802,13.0644506 32.6942757,12.8919894 32.6971798,12.7182313 L32.6971798,12.4516945 C32.715742,12.3663822 32.7425391,12.2830697 32.7771949,12.2029267 C32.8097699,12.1214528 32.8515285,12.0439535 32.9016626,11.9719282 C32.9503582,11.8978715 33.0070008,11.8293504 33.0705833,11.7675833 C33.1278279,11.7052406 33.1936904,11.6513894 33.2661754,11.6076613 C33.3382493,11.5575609 33.415801,11.5158305 33.4973298,11.4832774 C33.5775269,11.4486451 33.6608956,11.4218661 33.7462655,11.4033164 C33.9200905,11.3765913 34.0969833,11.3765913 34.2708082,11.4033164 C34.3561782,11.4218661 34.4395469,11.4486451 34.519744,11.4832774 C34.8450569,11.6193278 35.1037367,11.8778332 35.2398789,12.2029267 C35.2745347,12.2830697 35.3013317,12.3663822 35.319894,12.4516945 L35.319894,12.7182313 C35.324642,13.0646214 35.1914832,13.3987059 34.9497174,13.6469735 C34.7079516,13.8952411 34.3773881,14.03735 34.0307632,14.0420307 Z M44.7261024,12.7537694 C44.7261024,12.4003197 44.8666045,12.0613463 45.1167,11.8114195 C45.3667954,11.5614928 45.7059975,11.4210854 46.0596858,11.4210854 C46.7962036,11.4210854 47.3932693,12.0177484 47.3932693,12.7537694 C47.3932693,13.4897905 46.7962036,14.0864534 46.0596858,14.0864534 C45.323168,14.0864534 44.7261024,13.4897905 44.7261024,12.7537694 Z M58.0974992,14.0864534 C57.9200532,14.0872663 57.7444021,14.0509492 57.5818469,13.9798387 C57.4190899,13.9159009 57.2731201,13.8156143 57.1551001,13.6866483 C56.9020137,13.4425869 56.7605477,13.105225 56.7639157,12.7537694 C56.7638172,12.3977456 56.9044075,12.0560859 57.1551001,11.8031216 C57.6885198,11.315235 58.5064784,11.315235 59.0398981,11.8031216 C59.2905907,12.0560859 59.4311812,12.3977456 59.4310826,12.7537694 C59.4303717,13.1044135 59.2895452,13.44025 59.0398981,13.6866483 C58.9185161,13.8157788 58.7696313,13.9159805 58.6042608,13.9798387 C58.4447711,14.0507452 58.2720588,14.0870811 58.0974992,14.0864534 Z M58.5775892,22.7400148 L34.0307632,22.7400148 C33.2942454,22.7400148 32.6971798,22.1433519 32.6971798,21.4073308 C32.6971798,20.6713098 33.2942454,20.0746469 34.0307632,20.0746469 L58.5775892,20.0746469 C59.3141069,20.0746469 59.9111725,20.6713098 59.9111725,21.4073308 C59.9111725,22.1433519 59.3141069,22.7400148 58.5775892,22.7400148 Z M58.5775892,29.7055099 L34.0307632,29.7055099 C33.2942454,29.7055099 32.6971798,29.1088469 32.6971798,28.3728259 C32.6971798,27.6368049 33.2942454,27.0401419 34.0307632,27.0401419 L58.5775892,27.0401419 C59.3141069,27.040142 59.9111725,27.6368049 59.9111725,28.3728259 C59.9111725,29.1088469 59.3141069,29.7055099 58.5775892,29.7055099 Z M58.5775892,36.6621202 L34.0307632,36.6621202 C33.2942454,36.6621202 32.6971798,36.0654573 32.6971798,35.3294362 C32.6971798,34.5934152 33.2942454,33.9967522 34.0307632,33.9967522 L58.5775892,33.9967522 C59.314107,33.9967522 59.9111726,34.5934152 59.9111726,35.3294362 C59.9111726,36.0654573 59.314107,36.6621202 58.5775892,36.6621202 Z M58.5775892,43.6187307 L34.0307632,43.6187307 C33.2942454,43.6187307 32.6971798,43.0220678 32.6971798,42.2860467 C32.6971798,41.5500257 33.2942454,40.9533627 34.0307632,40.9533627 L58.5775892,40.9533627 C59.314107,40.9533627 59.9111726,41.5500257 59.9111726,42.2860467 C59.9111726,43.0220678 59.314107,43.6187307 58.5775892,43.6187307 Z M72.2512647,14.9304867 C71.8942261,14.9345633 71.5508602,14.7934614 71.2999751,14.539566 C70.9833228,14.2270856 70.8461826,13.7758308 70.9354624,13.3401505 C70.9540246,13.2548382 70.9808217,13.1715257 71.0154774,13.0913827 C71.0480524,13.0099088 71.089811,12.9324095 71.1399452,12.8603842 C71.1882338,12.7884628 71.2417196,12.7201657 71.2999751,12.6560393 C71.6218601,12.3489401 72.0709891,12.2136322 72.5090908,12.2917723 C72.5944607,12.3103221 72.6778293,12.3371011 72.7580263,12.3717334 C72.8395552,12.4042865 72.917107,12.4460169 72.989181,12.4961173 C73.0616659,12.5398454 73.1275285,12.5936966 73.1847731,12.6560393 C73.4357708,12.9059149 73.5793069,13.2437941 73.5848482,13.5978027 C73.5752716,14.329823 72.9837791,14.9209166 72.2512647,14.9304867 Z M82.9466039,13.5978027 C82.9464759,13.2381085 83.0918491,12.8936361 83.3496896,12.6426622 C83.60753,12.3916883 83.9559405,12.2555269 84.3157495,12.2651187 C84.6694378,12.2651187 85.00864,12.4055261 85.2587354,12.6554528 C85.5088308,12.9053795 85.6493329,13.2443529 85.6493329,13.5978027 C85.6493329,13.9512525 85.5088308,14.2902259 85.2587354,14.5401526 C85.00864,14.7900793 84.6694378,14.9304867 84.3157495,14.9304867 C83.9559405,14.9400786 83.60753,14.8039171 83.3496896,14.5529432 C83.0918491,14.3019693 82.9464759,13.9574969 82.9466039,13.5978027 Z M96.3091099,14.9304867 C95.9549486,14.9331711 95.6148618,14.7920982 95.3667111,14.539566 C95.1284528,14.3035921 94.9886513,13.9860758 94.9755265,13.65111 L94.9755265,13.3845733 C94.9940887,13.2992609 95.0208858,13.2159485 95.0555415,13.1358056 C95.0881166,13.0543318 95.1298752,12.9768324 95.1800093,12.9048071 C95.2282979,12.8328857 95.2817839,12.7645886 95.3400394,12.7004622 C95.4680414,12.581658 95.6153612,12.4855139 95.7756765,12.4161562 C95.8558736,12.3815239 95.9392423,12.3547449 96.0246122,12.3361953 C96.4600904,12.256563 96.9072232,12.3922673 97.2248374,12.7004622 C97.2884198,12.7622293 97.3450623,12.8307504 97.3937578,12.9048071 C97.443892,12.9768324 97.4856506,13.0543318 97.5182256,13.1358056 C97.5528813,13.2159485 97.5796784,13.2992609 97.5982407,13.3845733 L97.5982407,13.65111 C97.5933536,14.383659 96.997717,14.9749257 96.2646572,14.9749094 L96.3091099,14.9304867 Z M96.7625283,23.5929327 L72.2245931,23.5929327 C71.4880753,23.5929327 70.8910097,22.9962697 70.8910097,22.2602487 C70.8910097,21.5242276 71.4880753,20.9275647 72.2245931,20.9275647 L96.7625283,20.9275647 C97.4990461,20.9275647 98.0961116,21.5242276 98.0961116,22.2602487 C98.0961116,22.9962697 97.4990461,23.5929326 96.7625283,23.5929327 Z M96.7625283,30.549543 L72.2245931,30.549543 C71.4880753,30.549543 70.8910097,29.95288 70.8910097,29.216859 C70.8910097,28.4808379 71.4880753,27.884175 72.2245931,27.884175 L96.7625283,27.884175 C97.4990461,27.884175 98.0961117,28.4808379 98.0961117,29.216859 C98.0961117,29.95288 97.4990461,30.549543 96.7625283,30.549543 Z M96.7625283,37.515038 L72.2245931,37.515038 C71.4880753,37.515038 70.8910097,36.9183751 70.8910097,36.182354 C70.8910097,35.446333 71.4880753,34.84967 72.2245931,34.84967 L96.7625283,34.84967 C97.4990461,34.84967 98.0961117,35.446333 98.0961117,36.182354 C98.0961117,36.9183751 97.4990461,37.515038 96.7625283,37.515038 Z M96.7625283,44.4716485 L72.2245931,44.4716485 C71.4880753,44.4716485 70.8910097,43.8749856 70.8910097,43.1389646 C70.8910097,42.4029435 71.4880753,41.8062806 72.2245931,41.8062806 L96.7625283,41.8062806 C97.4990461,41.8062806 98.0961117,42.4029435 98.0961117,43.1389646 C98.0961117,43.8749856 97.4990461,44.4716485 96.7625283,44.4716485 Z" id="形状" fill="#363636" fill-rule="nonzero"></path>
                </g>
            </g>
        </g>
    </g>
</svg>