<?xml version="1.0" encoding="UTF-8"?>
<svg width="140px" height="140px" viewBox="0 0 140 140" version="1.1" xmlns="http://www.w3.org/2000/svg" xmlns:xlink="http://www.w3.org/1999/xlink">
    <!-- Generator: Sketch 52.5 (67469) - http://www.bohemiancoding.com/sketch -->
    <title>icon_gn_syznfx</title>
    <desc>Created with Sketch.</desc>
    <g id="组件" stroke="none" stroke-width="1" fill="none" fill-rule="evenodd">
        <g id="icon_gn_syznfx">
            <g id="智能设备">
                <g transform="translate(8.000000, 7.000000)">
                    <path d="M112.087263,20.8325881 L12.9817751,20.8325881 C7.01280488,20.8325881 2.17588076,25.6695122 2.17588076,31.6384824 L2.17588076,101.722425 C2.17588076,107.691396 7.01280488,112.52832 12.9817751,112.52832 L112.087263,112.52832 C118.056233,112.52832 122.893157,107.691396 122.893157,101.722425 L122.893157,31.6384824 C122.893157,25.6695122 118.056233,20.8325881 112.087263,20.8325881 Z" id="路径" fill="#FFFFFF"></path>
                    <path d="M112.087263,113.233672 C118.48346,113.233672 123.701423,108.044538 123.701423,101.722425 L123.701423,31.6384824 C123.701423,25.2278221 118.497923,20.0243225 112.087263,20.0243225 L12.9817751,20.0243225 C6.57111474,20.0243225 1.36761518,25.2278221 1.36761518,31.6384824 L1.36761518,101.619512 C1.36761518,108.030173 6.57111474,113.233672 12.9817751,113.233672 L112.087263,113.233672 Z" id="路径" stroke="#495460" stroke-width="2.5" fill="#FFFFFF" fill-rule="nonzero"></path>
                    <path d="M12.3642954,95.9592818 L12.3642954,34.9317073 C12.3642954,32.6676152 14.2167344,30.8151762 16.4808266,30.8151762 L108.999864,30.8151762 C111.263957,30.8151762 113.116396,32.6676152 113.116396,34.9317073 L113.116396,95.9592818" id="路径" stroke="#495460" stroke-width="2.5" fill="#FDF5E7"></path>
                    <path d="M2.79336043,96.290534 L123.201897,96.290534" id="路径" fill="#CFE5FF"></path>
                    <polygon id="路径" fill="#495460" points="2.79336043 93.798103 123.201897 93.798103 123.201897 96.3590786 2.79336043 96.3590786"></polygon>
                    <path d="M59.9837398,103.501355 C59.9837398,105.450067 61.5634831,107.02981 63.5121951,107.02981 C65.4609072,107.02981 67.0406504,105.450067 67.0406504,103.501355 C67.0406504,101.552643 65.4609072,99.9728997 63.5121951,99.9728997 C61.5634831,99.9728997 59.9837398,101.552643 59.9837398,103.501355 Z" id="路径" fill="#495460"></path>
                    <path d="M90.2696477,125.686992 L36.7547425,125.686992 C35.6226965,125.686992 34.696477,124.995528 34.696477,124.150407 C34.696477,123.305285 35.6226965,122.613821 36.7547425,122.613821 L90.2696477,122.613821 C91.4016938,122.613821 92.3279133,123.305285 92.3279133,124.150407 C92.3279133,124.995528 91.4016938,125.686992 90.2696477,125.686992 Z" id="路径" fill="#495460"></path>
                    <path d="M94.4890921,26.1840786 C94.4890921,23.0966802 92.7395664,20.3180217 90.2696477,18.8772358 L89.652168,18.8772358 C90.0638211,17.848103 90.2696477,16.8189702 90.2696477,15.5840108 C90.2696477,10.9529133 86.4618564,7.14512195 81.8307588,7.14512195 L81.522019,7.14512195 C80.5957995,3.54315718 77.3025745,0.764498645 73.3918699,0.764498645 C68.7607724,0.764498645 64.952981,4.57228997 64.952981,9.20338753 C64.952981,4.57228997 61.1451897,0.764498645 56.5140921,0.764498645 C52.6033875,0.764498645 49.3101626,3.4402439 48.3839431,7.14512195 L48.0752033,7.14512195 C43.4441057,7.14512195 39.6363144,10.9529133 39.6363144,15.5840108 C39.6363144,16.7160569 39.8421409,17.848103 40.253794,18.7743225 L39.6363144,18.7743225 C37.0634824,20.2151084 35.4168699,22.9937669 35.4168699,26.0811653 C35.4168699,29.4773035 37.4751355,32.4617886 40.3567073,33.7996612 C39.9450542,34.6229675 39.6363144,35.6521003 39.6363144,36.6812331 C39.6363144,39.4598916 41.3858401,41.826897 43.8557588,42.6502033 L44.1644986,42.6502033 C43.9586721,43.4735095 43.8557588,44.2968157 43.8557588,45.120122 C43.8557588,50.9861789 48.5897696,55.7201897 54.4558266,55.7201897 C60.3218835,55.7201897 65.0558943,50.9861789 65.0558943,45.120122 C65.0558943,50.9861789 69.7899051,55.7201897 75.6559621,55.7201897 C81.522019,55.7201897 86.2560298,50.9861789 86.2560298,45.120122 C86.2560298,44.2968157 86.1531165,43.4735095 85.94729,42.6502033 L86.2560298,42.6502033 C88.7259485,41.826897 90.4754743,39.4598916 90.4754743,36.6812331 C90.4754743,35.6521003 90.1667344,34.6229675 89.7550813,33.7996612 C92.4308266,32.5647019 94.4890921,29.5802168 94.4890921,26.1840786 Z M73.8260353,17.7451897 L73.8260353,18.7743225 L73.8260353,17.7451897 Z" id="形状" fill="#ED869C" fill-rule="nonzero"></path>
                    <path d="M38.9159214,18.0539295 C36.2401762,19.9063686 34.696477,22.9937669 34.696477,26.2869919 C34.696477,29.5802168 36.3430894,32.6676152 38.9159214,34.5200542 C38.8130081,35.1375339 38.7100949,35.7550136 38.7100949,36.3724932 C38.7100949,39.254065 40.3567073,41.9298103 42.826626,43.3705962 C42.826626,43.679336 42.7237127,44.0909892 42.7237127,44.399729 C42.7237127,51.0890921 48.1781165,56.5434959 54.8674797,56.5434959 C59.0869241,56.5434959 62.7918022,54.3823171 64.952981,51.0890921 C67.1141599,54.3823171 70.8190379,56.5434959 75.0384824,56.5434959 C81.7278455,56.5434959 87.1822493,51.0890921 87.1822493,44.399729 C87.1822493,44.0909892 87.1822493,43.679336 87.079336,43.3705962 C89.5492547,41.9298103 91.1958672,39.254065 91.1958672,36.3724932 C91.1958672,35.7550136 91.0929539,35.1375339 90.9900407,34.5200542 C93.6657859,32.6676152 95.2094851,29.5802168 95.2094851,26.2869919 C95.2094851,22.9937669 93.5628726,20.0092818 90.9900407,18.0539295 C91.0929539,17.4364499 91.1958672,16.8189702 91.1958672,16.2014905 C91.1958672,11.0558266 87.2851626,6.83638211 82.3453252,6.21890244 C80.801626,2.61693767 77.1996612,0.0441056911 73.0831301,0.0441056911 C69.7899051,0.0441056911 66.8054201,1.69071816 65.0558943,4.16063686 C63.2034553,1.69071816 60.3218835,0.0441056911 57.0286585,0.0441056911 C52.8092141,0.0441056911 49.3101626,2.61693767 47.7664634,6.21890244 C42.5178862,6.83638211 38.7100949,11.0558266 38.7100949,16.2014905 C38.7100949,16.8189702 38.8130081,17.4364499 38.9159214,18.0539295 Z M80.0945122,9.96829398 C80.0945122,13.5569222 77.3059172,16.8449171 73.8260353,16.8449171 L72.7712195,20.1904472 C78.534774,20.1904472 83.102119,15.6231021 83.3196116,9.96829398 C85.8207768,10.8382645 88.297526,13.2409221 88.297526,15.9595798 C88.297526,19.4394618 84.84206,22.9277344 81.362178,22.9277344 L81.362178,26.4977332 C84.9508063,26.4977332 87.8047615,24.2308529 89.7621951,21.5121951 C90.9584045,22.7084045 92.0193165,24.8665385 92.0193165,26.6064795 C92.0193165,29.1076446 90.4968681,31.3913171 88.2131956,32.3700339 L86.1470157,33.3487507 L87.1257325,35.3061843 C87.4519714,35.9586622 87.669464,36.61114 87.669464,37.2636179 C87.669464,38.4598273 87.1257325,39.4385441 86.3645083,40.1997683 C84.2983284,35.9586622 79.948476,32.6962728 74.9461457,32.6962728 L75.8363901,35.7298229 C80.5124814,35.7298229 84.0948509,40.6487134 84.0948509,45.3248047 C84.0948509,50.0008961 79.6222371,54.3367886 74.9461457,54.3367886 C70.2700544,54.3367886 66.4639335,50.5306678 66.4639335,45.8545764 L66.4639335,9.53330874 C66.2464409,6.0534268 69.1825913,3.11727642 72.6624732,3.11727642 C76.1423551,3.11727642 80.0945122,6.37966573 80.0945122,9.96829398 Z M57.2766534,19.2023828 L57.058698,16.7523819 C53.5714121,16.7523819 49.5159892,12.0098556 49.5159892,8.52256962 C49.5159892,5.03528369 53.4624344,2.09288618 57.058698,2.09288618 C60.6549617,2.09288618 63.4883815,4.926306 63.4883815,8.52256962 L63.4883815,44.8121389 C63.4883815,49.4981794 59.9706669,53.6619241 55.2846264,53.6619241 C50.5985859,53.6619241 45.617378,49.1499858 45.617378,44.4639453 C45.617378,39.7779048 49.5030845,34.9888291 54.189125,34.9888291 L55.4240328,31.7348166 C50.3020815,31.7348166 45.5070634,34.8951695 43.4364873,39.1452993 C42.6736435,38.3824555 41.6492533,37.6715652 41.6492533,36.5817883 C41.6492533,35.9279222 41.3223202,34.8951695 41.6492533,34.2413034 L42.0197774,32.7512195 L39.731246,31.7348166 C37.4427146,30.6450398 36.7452575,27.9205976 36.7452575,25.5230886 C36.7452575,23.7794456 38.5324915,22.1447803 39.731246,20.9460258 C41.6928444,23.6704679 44.4172865,24.5853659 48.0135501,24.5853659 L47.5541159,21.9212195 C44.0668299,21.9212195 41.2157012,19.0737236 41.2157012,15.5864377 C41.2157012,12.7530179 43.8723981,9.72132417 46.3788849,8.84950268 C46.5968402,14.5163423 51.5008361,19.2023828 57.2766534,19.2023828 Z" id="形状" fill="#495460" fill-rule="nonzero"></path>
                    <path d="M79.0521003,24.125813 C79.0521003,25.2625617 79.9736172,26.1840786 81.1103659,26.1840786 C82.2471145,26.1840786 83.1686314,25.2625617 83.1686314,24.125813 C83.1686314,22.9890643 82.2471145,22.0675474 81.1103659,22.0675474 C79.9736172,22.0675474 79.0521003,22.9890643 79.0521003,24.125813 Z" id="路径" fill="#495460"></path>
                    <polygon id="路径" fill="#495460" points="90.2696477 69.098916 71.7452575 69.098916 71.7452575 54.6910569 75.2553354 54.7057588 75.2553354 65.6145664 90.2696477 65.6145664"></polygon>
                    <path d="M71.1277778,67.9668699 C71.1277778,69.5583181 72.4179014,70.8484417 74.0093496,70.8484417 C75.6007978,70.8484417 76.8909214,69.5583181 76.8909214,67.9668699 C76.8909214,66.3754217 75.6007978,65.0852981 74.0093496,65.0852981 C72.4179014,65.0852981 71.1277778,66.3754217 71.1277778,67.9668699 Z" id="路径" fill="#FFF27D"></path>
                    <path d="M74.2151762,73.3183604 C71.4279415,73.3183604 69.0695122,71.0671325 69.0695122,68.1726965 C69.0695122,65.3854618 71.3207402,63.0270325 74.2151762,63.0270325 C77.0024108,63.0270325 79.3608401,65.2782605 79.3608401,68.1726965 C79.2536388,70.9599311 77.0024108,73.3183604 74.2151762,73.3183604 Z M74.0446341,65.379336 C72.7332249,65.379336 71.4218157,66.362893 71.4218157,68.0021545 C71.4218157,69.3135637 72.4053726,70.6249729 74.0446341,70.6249729 C75.6838957,70.6249729 76.6674526,69.641416 76.6674526,68.0021545 C76.3396003,66.6907453 75.3560434,65.379336 74.0446341,65.379336 Z" id="形状" fill="#495460" fill-rule="nonzero"></path>
                    <path d="M88.9317751,67.1435637 C88.9317751,69.5875734 90.9130364,71.5688347 93.3570461,71.5688347 C95.8010558,71.5688347 97.7823171,69.5875734 97.7823171,67.1435637 C97.7823171,64.699554 95.8010558,62.7182927 93.3570461,62.7182927 C90.9130364,62.7182927 88.9317751,64.699554 88.9317751,67.1435637 Z" id="路径" fill="#FDDA43"></path>
                    <path d="M92.7542683,72.4215447 C89.4871801,72.4215447 86.8735095,69.8078741 86.8735095,66.5407859 C86.8735095,63.2736977 89.4871801,60.6600271 92.7542683,60.6600271 C96.0213565,60.6600271 98.6350271,63.2736977 98.6350271,66.5407859 C98.6350271,69.8078741 96.0213565,72.4215447 92.7542683,72.4215447 Z M92.7542683,63.0123306 C90.759924,63.0123306 89.225813,64.5464416 89.225813,66.5407859 C89.225813,68.5351302 90.759924,70.0692412 92.7542683,70.0692412 C94.7486126,70.0692412 96.2827236,68.5351302 96.2827236,66.5407859 C96.2827236,64.5464416 94.7486126,63.0123306 92.7542683,63.0123306 Z" id="形状" fill="#495460" fill-rule="nonzero"></path>
                    <polygon id="路径" fill="#495460" points="91.2987805 72.1863144 94.3287496 71.37771 94.3287496 79.9195122 91.2987805 80.4193767"></polygon>
                    <path d="M93.3570461,84.3888889 C94.9484942,84.3888889 96.2386179,83.0987652 96.2386179,81.5073171 C96.2386179,79.9158689 94.9484942,78.6257453 93.3570461,78.6257453 C91.7655979,78.6257453 90.4754743,79.9158689 90.4754743,81.5073171 C90.4754743,83.0987652 91.7655979,84.3888889 93.3570461,84.3888889 Z" id="路径" fill="#ED869C"></path>
                    <path d="M93.0021331,86.5941734 C90.4538043,86.5941734 88.297526,84.5359079 88.297526,81.8895664 C88.297526,79.3412376 90.3557916,77.1849593 93.0021331,77.1849593 C95.5504619,77.1849593 97.7067401,79.2432249 97.7067401,81.8895664 C97.7067401,84.5359079 95.6484746,86.5941734 93.0021331,86.5941734 Z M93.0021331,79.5372629 C91.8259813,79.5372629 90.6498296,80.4193767 90.6498296,81.8895664 C90.6498296,83.0657182 91.5319434,84.2418699 93.0021331,84.2418699 C94.4723228,84.2418699 95.3544366,83.3597561 95.3544366,81.8895664 C95.3544366,80.4193767 94.1782848,79.5372629 93.0021331,79.5372629 Z M54.189125,54.0735772 L57.3373984,53.6619241 L57.3373984,63.953252 L54.189125,63.5563008 L54.189125,54.0735772 Z" id="形状" fill="#495460" fill-rule="nonzero"></path>
                    <path d="M51.5742547,67.1435637 C51.5742547,69.2465488 53.279061,70.951355 55.3820461,70.951355 C57.4850312,70.951355 59.1898374,69.2465488 59.1898374,67.1435637 C59.1898374,65.0405786 57.4850312,63.3357724 55.3820461,63.3357724 C53.279061,63.3357724 51.5742547,65.0405786 51.5742547,67.1435637 Z" id="路径" fill="#FFFFFF"></path>
                    <path d="M55.3820461,73.0096206 C52.1917344,73.0096206 49.5159892,70.4367886 49.5159892,67.1435637 C49.5159892,63.8503388 52.0888211,61.2775068 55.3820461,61.2775068 C58.675271,61.2775068 61.248103,63.8503388 61.248103,67.1435637 C61.248103,70.4367886 58.5723577,73.0096206 55.3820461,73.0096206 Z M55.3849864,63.6298103 C53.5232074,63.6298103 51.8682927,65.284725 51.8682927,67.1465041 C51.8682927,69.0082831 53.5232074,70.6631978 55.3849864,70.6631978 C57.2467655,70.6631978 58.9016802,69.0082831 58.9016802,67.1465041 C58.9016802,65.284725 57.2467655,63.6298103 55.3849864,63.6298103 Z" id="形状" fill="#495460" fill-rule="nonzero"></path>
                    <polygon id="路径" fill="#495460" points="28.5216802 45.4288618 46.0169377 45.4288618 46.1455793 48.2222222 28.5216802 48.2222222"></polygon>
                    <path d="M21.7294038,46.5609079 C21.7294038,48.6638929 23.43421,50.3686992 25.5371951,50.3686992 C27.6401802,50.3686992 29.3449864,48.6638929 29.3449864,46.5609079 C29.3449864,44.4579228 27.6401802,42.7531165 25.5371951,42.7531165 C23.43421,42.7531165 21.7294038,44.4579228 21.7294038,46.5609079 Z" id="路径" fill="#ED869C"></path>
                    <path d="M25.5371951,52.4269648 C22.3468835,52.4269648 19.6711382,49.8541328 19.6711382,46.5609079 C19.6711382,43.2676829 22.2439702,40.6948509 25.5371951,40.6948509 C28.8304201,40.6948509 31.403252,43.2676829 31.403252,46.5609079 C31.403252,49.8541328 28.7275068,52.4269648 25.5371951,52.4269648 Z M25.5401355,43.0471545 C23.6783564,43.0471545 22.0234417,44.7020692 22.0234417,46.5638482 C22.0234417,48.4256273 23.6783564,50.080542 25.5401355,50.080542 C27.4019146,50.080542 29.0568293,48.4256273 29.0568293,46.5638482 C29.0568293,44.7020692 27.4019146,43.0471545 25.5401355,43.0471545 Z" id="形状" fill="#495460" fill-rule="nonzero"></path>
                    <polygon id="路径" fill="#495460" points="24.1593517 50.5745257 27.4925474 50.5745257 27.4925474 60.8658537 24.1593517 60.8658537"></polygon>
                    <path d="M25.5371951,68.8930894 C27.6401802,68.8930894 29.3449864,67.1882832 29.3449864,65.0852981 C29.3449864,62.982313 27.6401802,61.2775068 25.5371951,61.2775068 C23.43421,61.2775068 21.7294038,62.982313 21.7294038,65.0852981 C21.7294038,67.1882832 23.43421,68.8930894 25.5371951,68.8930894 Z" id="路径" fill="#577EDB"></path>
                    <path d="M25.5371951,70.951355 C22.3468835,70.951355 19.6711382,68.378523 19.6711382,65.0852981 C19.6711382,61.7920732 22.2439702,59.2192412 25.5371951,59.2192412 C28.8304201,59.2192412 31.403252,61.7920732 31.403252,65.0852981 C31.403252,68.378523 28.7275068,70.951355 25.5371951,70.951355 Z M25.5401355,61.5715447 C23.6783564,61.5715447 22.0234417,63.2264594 22.0234417,65.0882385 C22.0234417,66.9500175 23.6783564,68.6049322 25.5401355,68.6049322 C27.4019146,68.6049322 29.0568293,66.9500175 29.0568293,65.0882385 C29.0568293,63.2264594 27.4019146,61.5715447 25.5401355,61.5715447 Z" id="形状" fill="#495460" fill-rule="nonzero"></path>
                    <polygon id="路径" fill="#495460" points="84.0948509 45.4288618 98.50271 45.4288618 98.50271 48.2222222 84.0948509 48.2222222"></polygon>
                    <path d="M97.1648374,47.5900407 C97.1648373,49.1710378 98.0082892,50.6319394 99.3774728,51.422438 C100.746656,52.2129366 102.43356,52.2129366 103.802744,51.422438 C105.171928,50.6319394 106.015379,49.1710378 106.015379,47.5900407 C106.015379,46.0090435 105.171928,44.5481419 103.802744,43.7576433 C102.43356,42.9671447 100.746656,42.9671447 99.3774728,43.7576433 C98.0082892,44.5481419 97.1648373,46.0090435 97.1648374,47.5900407 Z" id="路径" fill="#FFFFFF"></path>
                    <path d="M101.590108,54.0735772 C97.9881436,54.0735772 95.1065718,51.1920054 95.1065718,47.5900407 C95.1065718,43.9880759 97.9881436,41.1065041 101.590108,41.1065041 C105.192073,41.1065041 108.073645,43.9880759 108.073645,47.5900407 C108.073645,51.1920054 105.192073,54.0735772 101.590108,54.0735772 Z M101.593049,44.6349593 C99.9211235,44.6349593 98.6350271,45.9210557 98.6350271,47.592981 C98.6350271,49.2649063 99.9211235,50.5510027 101.593049,50.5510027 C103.264974,50.5510027 104.55107,49.2649063 104.55107,47.592981 C104.55107,45.9210557 103.264974,44.6349593 101.593049,44.6349593 Z" id="形状" fill="#495460" fill-rule="nonzero"></path>
                </g>
            </g>
        </g>
    </g>
</svg>