<?xml version="1.0" encoding="UTF-8"?>
<svg width="16px" height="16px" viewBox="0 0 16 16" version="1.1" xmlns="http://www.w3.org/2000/svg" xmlns:xlink="http://www.w3.org/1999/xlink">
    <!-- Generator: Sketch 52.5 (67469) - http://www.bohemiancoding.com/sketch -->
    <title>ic_add</title>
    <desc>Created with Sketch.</desc>
    <g id="组件" stroke="none" stroke-width="1" fill="none" fill-rule="evenodd">
        <g id="ic_add">
            <g>
                <rect id="矩形" fill="#000000" opacity="0" x="0" y="0" width="16" height="16"></rect>
                <path d="M12.809375,3.0765625 C10.1234375,0.390625 5.7671875,0.390625 3.08125,3.0765625 C0.3953125,5.7625 0.3953125,10.11875 3.08125,12.80625 C5.7671875,15.4921875 10.1234375,15.4921875 12.8109375,12.80625 C15.4984375,10.1203125 15.496875,5.7625 12.809375,3.0765625 Z M7.9453125,12.821875 C7.4203125,12.821875 6.990625,12.3921875 6.990625,11.8671875 L6.990625,8.8953125 L4.0203125,8.8953125 C3.4953125,8.8953125 3.065625,8.465625 3.065625,7.940625 C3.065625,7.415625 3.4953125,6.9859375 4.0203125,6.9859375 L6.990625,6.9859375 L6.990625,4.015625 C6.990625,3.490625 7.4203125,3.0609375 7.9453125,3.0609375 C8.4703125,3.0609375 8.9,3.490625 8.9,4.015625 L8.9,6.9859375 L11.8703125,6.9859375 C12.3953125,6.9859375 12.825,7.415625 12.825,7.940625 C12.825,8.465625 12.3953125,8.8953125 11.8703125,8.8953125 L8.9,8.8953125 L8.9,11.865625 C8.9,12.3921875 8.4703125,12.821875 7.9453125,12.821875 Z" id="形状" fill="#2D8EF8" fill-rule="nonzero"></path>
            </g>
        </g>
    </g>
</svg>