<?xml version="1.0" encoding="UTF-8"?>
<svg width="20px" height="20px" viewBox="0 0 20 20" version="1.1" xmlns="http://www.w3.org/2000/svg" xmlns:xlink="http://www.w3.org/1999/xlink">
    <!-- Generator: Sketch 52.5 (67469) - http://www.bohemiancoding.com/sketch -->
    <title>ic_actual revenue_yellow</title>
    <desc>Created with Sketch.</desc>
    <g id="组件" stroke="none" stroke-width="1" fill="none" fill-rule="evenodd">
        <g id="ic_actual-revenue_yellow">
            <g>
                <rect id="矩形" fill="#000000" opacity="0" x="0" y="0" width="20" height="20"></rect>
                <path d="M9.11572266,6.49980469 C10.556875,6.49980469 11.7292188,5.32746094 11.7292188,3.88628906 C11.7292188,2.44511719 10.556875,1.27277344 9.11572266,1.27277344 C7.67457031,1.27277344 6.50220703,2.44511719 6.50220703,3.88628906 C6.50220703,5.32746094 7.67455078,6.49978516 9.11572266,6.49978516 L9.11572266,6.49980469 Z M9.11572266,2.14394531 C10.0764258,2.14394531 10.8580664,2.92558594 10.8580664,3.88628906 C10.8580664,4.84722656 10.0764258,5.62863281 9.11572266,5.62863281 C8.15501953,5.62863281 7.37337891,4.84720703 7.37337891,3.88628906 C7.37337891,2.92558594 8.15501953,2.14394531 9.11572266,2.14394531 Z M14.7783203,11.7578711 C16.2194922,11.7578711 17.3918359,10.5855469 17.3918359,9.14435547 C17.3918359,7.70316406 16.2194922,6.53085937 14.7783203,6.53085937 C13.3371484,6.53085937 12.1648047,7.70318359 12.1648047,9.14433594 C12.1648047,10.5854883 13.3371289,11.7578516 14.7783203,11.7578516 L14.7783203,11.7578711 Z M14.7783203,7.40201172 C15.7390234,7.40201172 16.5206641,8.1834375 16.5206641,9.14435547 C16.5206641,10.1052734 15.7390234,10.8867187 14.7783203,10.8867187 C13.8176172,10.8867187 13.0359766,10.1053125 13.0359766,9.144375 C13.0359766,8.1834375 13.8176172,7.40203125 14.7783203,7.40203125 L14.7783203,7.40201172 Z M18.7096289,15.2735937 C18.5435352,14.6601953 17.8310352,13.5001953 16.3234961,13.5001953 L12.6875977,13.5001953 C12.6816992,13.4926953 12.677832,13.4847266 12.671875,13.4772266 C12.0261523,12.6685937 11.0399219,12.2049219 9.96648438,12.2049219 L8.33855469,12.2049219 C7.29515625,10.9266992 5.55820313,10.5802734 4.75990234,10.4864062 L4.75990234,10.0155273 C4.75990234,9.77476562 4.56486328,9.57994141 4.32431641,9.57994141 L1.71078125,9.57994141 C1.47021484,9.57994141 1.27519531,9.77476562 1.27519531,10.0155273 L1.27519531,17.8560547 C1.27519531,18.0968164 1.47021484,18.2916406 1.71078125,18.2916406 L4.32429688,18.2916406 C4.56484375,18.2916406 4.75986328,18.0968164 4.75986328,17.8560547 L4.75986328,17.2539844 C5.86943359,17.7653125 8.09134766,18.7272266 9.11251953,18.7272266 L9.11847656,18.7272266 C11.6013867,18.7170117 18.1819531,15.9074219 18.4607813,15.7878711 C18.660293,15.7023828 18.7661914,15.4833008 18.7096289,15.2735937 Z M3.88871094,17.4204492 L2.14636719,17.4204492 L2.14636719,10.4511133 L3.88871094,10.4511133 L3.88871094,17.4204492 Z M9.11507813,17.8560352 L9.11103516,17.8560352 C8.24179688,17.8560352 5.87048828,16.8182812 4.75986328,16.2922461 L4.75986328,11.3664063 C5.50365234,11.4683984 6.99046875,11.8040234 7.76919922,12.8936133 C7.85091975,13.0080835 7.98288779,13.0760461 8.12353516,13.0760938 L9.96646484,13.0760938 C10.7736133,13.0760938 11.5116406,13.420625 11.99125,14.0208594 C12.1924609,14.2726758 12.3287891,14.5355664 12.39875,14.8069336 L7.31914063,14.8069336 C7.07857422,14.8069336 6.88355469,15.0017773 6.88355469,15.2425195 C6.88355469,15.4832812 7.07857422,15.6781055 7.31914063,15.6781055 L12.8898438,15.6781055 C13.1304102,15.6781055 13.3254492,15.4832812 13.3254492,15.2425195 C13.3254492,14.9433398 13.2721289,14.6528516 13.1733203,14.3713477 L16.3234961,14.3713477 C17.1042578,14.3713477 17.5158203,14.8243945 17.7127539,15.1570312 C16.2309766,15.7729883 11.090293,17.8479687 9.11509766,17.8560352 L9.11507813,17.8560352 Z" id="形状" fill="#FF9F01" fill-rule="nonzero"></path>
            </g>
        </g>
    </g>
</svg>