<?xml version="1.0" encoding="UTF-8"?>
<svg width="20px" height="20px" viewBox="0 0 20 20" version="1.1" xmlns="http://www.w3.org/2000/svg" xmlns:xlink="http://www.w3.org/1999/xlink">
    <!-- Generator: Sketch 52.5 (67469) - http://www.bohemiancoding.com/sketch -->
    <title>ic_completion rate_blue</title>
    <desc>Created with Sketch.</desc>
    <g id="组件" stroke="none" stroke-width="1" fill="none" fill-rule="evenodd">
        <g id="ic_completion-rate_blue">
            <g>
                <rect id="矩形" fill="#000000" opacity="0" x="0" y="0" width="20" height="20"></rect>
                <path d="M9.75,1.8 L8.75,1.8 L8.75,3.3 C5.1,3.7 2.25,6.8 2.25,10.55 C2.25,14.55 5.5,17.8 9.5,17.8 C12.45,17.8 15,16.05 16.1,13.5 L17.25,13.8 C17.8,12.9 18.25,11.65 18.25,10.1 C18.25,5.5 14.25,1.8 9.75,1.8 Z M9.5,16.8 C6.05,16.8 3.25,14 3.25,10.55 C3.25,7.4 5.7,4.75 8.75,4.3 L8.75,11 L15.1,13.2 C14.25,15.35 11.85,16.8 9.5,16.8 Z M16.55,12.6 L9.75,10.3 L9.75,2.8 C13.65,2.8 17.2,6.15 17.2,10.1 C17.2,11.1 16.95,11.9 16.55,12.6 Z" id="形状" fill="#2D8EF8" fill-rule="nonzero"></path>
            </g>
        </g>
    </g>
</svg>