<?xml version="1.0" encoding="UTF-8"?>
<svg width="20px" height="20px" viewBox="0 0 20 20" version="1.1" xmlns="http://www.w3.org/2000/svg" xmlns:xlink="http://www.w3.org/1999/xlink">
    <!-- Generator: Sketch 60.1 (88133) - https://sketch.com -->
    <title>ic_cipher</title>
    <desc>Created with Sketch.</desc>
    <g id="组件" stroke="none" stroke-width="1" fill="none" fill-rule="evenodd">
        <g id="ic_cipher" fill-rule="nonzero">
            <g>
                <rect id="矩形" fill="#000000" opacity="0" x="0" y="0" width="20" height="20"></rect>
                <path d="M15.2538,8.19 L7.3617,8.19 L7.3617,5.2664 C7.3617,4.2981 8.5398,3.2206 9.9918,3.2206 C11.4443,3.2206 12.6238,4.2981 12.6238,5.2664 L12.6238,6.1439 L12.6341,6.1439 C12.7060116,6.64709534 13.1369922,7.02083635 13.6453,7.0208 C14.1618,7.0208 14.5871,6.6398 14.6583,6.1439 L14.6699,6.1439 L14.6699,5.2665 C14.6699,3.0065 12.5746,1.1742 9.9919,1.1742 C7.4096,1.1742 5.3149,3.0065 5.3149,5.2665 L5.3149,8.19 L4.7298,8.19 C3.762,8.19 2.9768,8.9753 2.9768,9.9437 L2.9768,16.9597 C2.9768,17.9281 3.762,18.7131 4.7298,18.7131 L15.2538,18.7131 C16.2229,18.7131 17.0074,17.9281 17.0074,16.9597 L17.0074,9.9437 C17.0074,8.9753 16.2229,8.19 15.2538,8.19 Z M10.8695,14.665 L10.8695,15.4646 C10.8695,15.9668 10.4765,16.3737 9.9918,16.3737 C9.5083,16.3737 9.1147,15.9668 9.1147,15.4646 L9.1147,14.6651 C8.424,14.3414 7.945,13.6461 7.945,12.8403 C7.945,11.7247 8.8622,10.8201 9.9918,10.8201 C11.1226,10.8201 12.0386,11.7247 12.0386,12.8403 C12.0386,13.646 11.5608,14.3414 10.8695,14.6651 L10.8695,14.665 Z" id="形状" fill="#ADB5BD"></path>
            </g>
        </g>
    </g>
</svg>