<?xml version="1.0" encoding="UTF-8"?>
<svg width="20px" height="20px" viewBox="0 0 20 20" version="1.1" xmlns="http://www.w3.org/2000/svg" xmlns:xlink="http://www.w3.org/1999/xlink">
    <!-- Generator: Sketch 60.1 (88133) - https://sketch.com -->
    <title>ic_dynamic password_iphone</title>
    <desc>Created with Sketch.</desc>
    <g id="组件" stroke="none" stroke-width="1" fill="none" fill-rule="evenodd">
        <g id="ic_dynamic-password_iphone" fill-rule="nonzero">
            <g>
                <rect id="矩形" fill="#000000" opacity="0" x="0" y="0" width="20" height="20"></rect>
                <path d="M10.8836791,1.44106008 L14.6635888,1.44106008 C16.6270136,1.44106008 18.2334013,3.04744773 18.2334013,5.0108926 L18.2334013,5.86303314 C18.2334013,7.82647801 16.6270136,9.43286564 14.6635888,9.43286564 L10.8836791,9.43286564 C8.92021426,9.43286564 7.31384658,7.82647799 7.31384658,5.86303314 L7.31384658,5.0108926 C7.31384658,3.04744773 8.92021426,1.44106008 10.8836791,1.44106008 Z M9.48137268,3.59961227 L9.48137268,4.7129352 L15.5313587,4.7129352 L15.5313587,3.59961227 L9.48137268,3.59961227 Z M9.48137268,5.76330096 L9.48137268,6.87662389 L12.8110085,6.87662389 L12.8110085,5.76330096 L9.48137268,5.76330096 Z" id="形状" fill="#ADB5BD"></path>
                <path d="M10.4739977,8.39445178 L13.8350921,8.39445178 C14.0778071,8.39445178 14.4590079,8.67594037 14.2763921,8.8355918 L14.0977535,8.99174561 C13.9151377,9.15137705 13.8668705,9.31200783 13.6566335,9.43286564 L10.6482792,11.16177 C10.2755726,11.3760043 10.0328577,11.2321821 10.0328577,10.8208618 L10.0328577,8.8355918 C10.0328577,8.59303674 10.2314626,8.39445178 10.4739977,8.39445178 Z" id="路径" fill="#ADB5BD"></path>
                <path d="M4.47929408,0.11766 L8.06561539,0.11766 C7.42754928,0.911700059 6.96778191,1.85521846 6.74639246,2.88697686 L4.1345685,2.88697686 C3.43308551,2.88697686 2.8591158,3.46094656 2.8591158,4.16242955 L2.8591158,13.8841388 C2.8591158,14.5856218 3.43308551,15.1595915 4.1345685,15.1595915 L13.6475197,15.1595915 C14.3490027,15.1595915 14.9229524,14.5856018 14.9229524,13.8841388 L14.9229524,10.7555862 C15.2975808,10.6598762 15.6631404,10.5316498 16.0154695,10.3723668 L16.0154695,17.1696246 C16.0154695,18.6615102 14.7946196,19.88236 13.3027541,19.88236 L4.47929408,19.88236 C2.98726865,19.88236 1.76657873,18.6615102 1.76657873,17.1696246 L1.76657873,2.83037535 C1.76657873,1.33834992 2.98726865,0.11766 4.47929408,0.11766 Z M8.89093416,16.0631571 C8.25770477,16.0631571 7.74433385,16.5765279 7.74433385,17.2097574 C7.74433385,17.8431467 8.25770475,18.3565176 8.89093416,18.3565176 C9.52416357,18.3565176 10.0376944,17.8431467 10.0376944,17.2097574 C10.0376944,16.576508 9.52416357,16.0631571 8.89093416,16.0631571 Z" id="形状" fill="#ADB5BD"></path>
            </g>
        </g>
    </g>
</svg>