<?xml version="1.0" encoding="UTF-8"?>
<svg width="20px" height="20px" viewBox="0 0 20 20" version="1.1" xmlns="http://www.w3.org/2000/svg" xmlns:xlink="http://www.w3.org/1999/xlink">
    <!-- Generator: Sketch 52.5 (67469) - http://www.bohemiancoding.com/sketch -->
    <title>ic_date</title>
    <desc>Created with Sketch.</desc>
    <g id="组件" stroke="none" stroke-width="1" fill="none" fill-rule="evenodd">
        <g id="ic_date">
            <g>
                <rect id="矩形" fill="#000000" opacity="0" x="0" y="0" width="20" height="20"></rect>
                <path d="M15.4999869,4.00000964 L13.9999835,4.00000964 L13.9999835,3.49999382 C13.9999835,3.22384993 13.7761116,3 13.4999677,3 C13.2238237,3 12.9999518,3.22384991 12.9999518,3.49999382 L12.9999518,4.00000964 L6.9999821,4.00000964 L6.9999821,3.49999382 C6.9999821,3.22384993 6.7761322,3 6.49998828,3 C6.22384437,3 5.99999446,3.22384991 5.99999446,3.49999382 L5.99999446,4.00000964 L4.49999106,4.00000964 C3.12149359,4.00000964 2,5.12150323 2,6.50000071 L2,14.4999897 C2,15.8784872 3.12149359,17.0000028 4.49999106,17.0000028 L15.4999869,17.0000028 C16.8784844,17.0000028 18,15.8784872 18,14.4999897 L18,6.50000071 C18,5.12150321 16.8784844,4.00000964 15.4999869,4.00000964 Z M16.9999904,14.4999897 C16.9999904,15.3271014 16.3270986,15.9999931 15.4999869,15.9999931 L4.49999106,15.9999931 C3.67287938,15.9999931 2.99998762,15.3271014 2.99998762,14.4999897 L2.99998762,6.50000071 C2.99998762,5.67288902 3.67287938,4.99999726 4.49999106,4.99999726 L5.99999451,4.99999726 L5.99999451,5.99998488 C5.99999451,6.27612878 6.22384441,6.4999787 6.49998833,6.4999787 C6.77613224,6.4999787 6.99998215,6.2761288 6.99998215,5.99998488 L6.99998215,4.99999726 L12.9999739,4.99999726 L12.9999739,5.99998488 C12.9999739,6.27612878 13.2238458,6.4999787 13.4999897,6.4999787 C13.7761336,6.4999787 14.0000055,6.2761288 14.0000055,5.99998488 L14.0000055,4.99999726 L15.4999869,4.99999726 C16.3270986,4.99999726 16.9999904,5.67288902 16.9999904,6.50000071 L16.9999904,14.4999897 Z M6.74951221,8.00000413 L5.24953076,8.00000413 C4.97338687,8.00000413 4.74953694,8.22385403 4.74953694,8.49999795 C4.74953694,8.77614186 4.97338685,8.99999177 5.24953076,8.99999177 L6.74953421,8.99999177 C7.0256781,8.99999177 7.24952803,8.77614186 7.24952803,8.49999795 C7.24952803,8.22385403 7.0256561,8.00000413 6.74951221,8.00000413 Z M10.7499907,8.00000413 L9.24998727,8.00000413 C8.97384338,8.00000413 8.74999345,8.22385403 8.74999345,8.49999795 C8.74999345,8.77614186 8.97384335,8.99999177 9.24998727,8.99999177 L10.7499907,8.99999177 C11.0261346,8.99999177 11.2500065,8.77614186 11.2500065,8.49999795 C11.2500065,8.22385403 11.0261346,8.00000413 10.7499907,8.00000413 Z M14.7504912,8.00000413 L13.2504878,8.00000413 C12.9743439,8.00000413 12.750472,8.22385403 12.750472,8.49999795 C12.750472,8.77614186 12.9743439,8.99999177 13.2504878,8.99999177 L14.7504912,8.99999177 C15.0266351,8.99999177 15.250507,8.77614186 15.250507,8.49999795 C15.250507,8.22385403 15.0266351,8.00000413 14.7504912,8.00000413 Z M6.74951221,10.0000014 L5.24953076,10.0000014 C4.97338687,10.0000014 4.74953694,10.2238513 4.74953694,10.4999952 C4.74953694,10.7761391 4.97338685,10.999989 5.24953076,10.999989 L6.74953421,10.999989 C7.0256781,10.999989 7.24952803,10.7761391 7.24952803,10.4999952 C7.24952803,10.2238513 7.0256561,10.0000014 6.74951221,10.0000014 Z M10.7499907,10.0000014 L9.24998727,10.0000014 C8.97384338,10.0000014 8.74999345,10.2238513 8.74999345,10.4999952 C8.74999345,10.7761391 8.97384335,10.999989 9.24998727,10.999989 L10.7499907,10.999989 C11.0261346,10.999989 11.2500065,10.7761391 11.2500065,10.4999952 C11.2500065,10.2238513 11.0261346,10.0000014 10.7499907,10.0000014 Z M14.7504912,10.0000014 L13.2504878,10.0000014 C12.9743439,10.0000014 12.750472,10.2238513 12.750472,10.4999952 C12.750472,10.7761391 12.9743439,10.999989 13.2504878,10.999989 L14.7504912,10.999989 C15.0266351,10.999989 15.250507,10.7761391 15.250507,10.4999952 C15.250507,10.2238513 15.0266351,10.0000014 14.7504912,10.0000014 Z M6.74951221,11.9999986 L5.24953076,11.9999986 C4.97338687,11.9999986 4.74953694,12.2238705 4.74953694,12.5000145 C4.74953694,12.7761584 4.97338685,13.0000303 5.24953076,13.0000303 L6.74953421,13.0000303 C7.0256781,13.0000303 7.24952803,12.7761584 7.24952803,12.5000145 C7.24952803,12.2238705 7.0256561,11.9999986 6.74951221,11.9999986 Z M10.7499907,11.9999986 L9.24998727,11.9999986 C8.97384338,11.9999986 8.74999345,12.2238705 8.74999345,12.5000145 C8.74999345,12.7761584 8.97384335,13.0000303 9.24998727,13.0000303 L10.7499907,13.0000303 C11.0261346,13.0000303 11.2500065,12.7761584 11.2500065,12.5000145 C11.2500065,12.2238705 11.0261346,11.9999986 10.7499907,11.9999986 Z M14.7504912,11.9999986 L13.2504878,11.9999986 C12.9743439,11.9999986 12.750472,12.2238705 12.750472,12.5000145 C12.750472,12.7761584 12.9743439,13.0000303 13.2504878,13.0000303 L14.7504912,13.0000303 C15.0266351,13.0000303 15.250507,12.7761584 15.250507,12.5000145 C15.250507,12.2238705 15.0266351,11.9999986 14.7504912,11.9999986 Z" id="形状" fill="#2D8EF8" fill-rule="nonzero"></path>
            </g>
        </g>
    </g>
</svg>