<?xml version="1.0" encoding="UTF-8"?>
<svg width="20px" height="20px" viewBox="0 0 20 20" version="1.1" xmlns="http://www.w3.org/2000/svg" xmlns:xlink="http://www.w3.org/1999/xlink">
    <!-- Generator: Sketch 60.1 (88133) - https://sketch.com -->
    <title>ic_iphone</title>
    <desc>Created with Sketch.</desc>
    <g id="组件" stroke="none" stroke-width="1" fill="none" fill-rule="evenodd">
        <g id="ic_iphone" fill-rule="nonzero">
            <g>
                <rect id="矩形" fill="#000000" opacity="0" x="0" y="0" width="20" height="20"></rect>
                <path d="M13.7777778,0.53333334 L5.86666666,0.53333334 C4.66666666,0.53333334 3.68888889,1.51111111 3.68888889,2.71111111 L3.68888889,17.0666667 C3.68888889,18.2666667 4.66666666,19.2444445 5.86666666,19.2444445 L13.7777778,19.2444445 C14.9777778,19.2444445 15.9555555,18.2666667 15.9555555,17.0666667 L15.9555555,2.71111111 C15.9555555,1.51111111 14.9777778,0.53333334 13.7777778,0.53333334 Z M9.11111111,1.24444445 L10.5333333,1.24444445 C10.7111111,1.24444445 10.8888889,1.42222223 10.8888889,1.6 C10.8888889,1.77777777 10.7111111,1.95555555 10.5333333,1.95555555 L9.11111111,1.95555555 C8.93333334,1.95555555 8.75555555,1.77777777 8.75555555,1.6 C8.75555555,1.42222223 8.93333332,1.24444445 9.11111111,1.24444445 Z M9.82222223,18.3555555 C9.33333334,18.3555555 8.88888889,17.9555555 8.88888889,17.4222222 C8.88888889,16.9333333 9.28888889,16.4888889 9.82222223,16.4888889 C10.3111111,16.4888889 10.7555555,16.8888889 10.7555555,17.4222222 C10.7555555,17.9555556 10.3555555,18.3555555 9.82222223,18.3555555 L9.82222223,18.3555555 Z M14.4888889,15.3777778 L5.15555555,15.3777778 L5.15555555,14.9777778 L14.4888889,14.9777778 L14.4888889,15.3777778 Z" id="形状" fill="#ADB5BD"></path>
            </g>
        </g>
    </g>
</svg>