<?xml version="1.0" encoding="UTF-8"?>
<svg width="20px" height="20px" viewBox="0 0 20 20" version="1.1" xmlns="http://www.w3.org/2000/svg" xmlns:xlink="http://www.w3.org/1999/xlink">
    <!-- Generator: Sketch 60.1 (88133) - https://sketch.com -->
    <title>ic_identifying code</title>
    <desc>Created with Sketch.</desc>
    <g id="组件" stroke="none" stroke-width="1" fill="none" fill-rule="evenodd">
        <g id="ic_identifying-code" fill-rule="nonzero">
            <g>
                <rect id="矩形" fill="#000000" opacity="0" x="0" y="0" width="20" height="20"></rect>
                <path d="M17.409226,3.09987147 C17.2391252,3.10649877 17.0712335,3.10870788 16.90776,3.10870788 C12.6022212,3.10870788 10.7023939,1.28399004 10.6869302,1.26852633 L10.2583645,0.833333333 L9.82538057,1.26852633 C9.80770776,1.28840824 7.94764429,3.10870788 3.60675985,3.10870788 C3.44328634,3.10870788 3.27539463,3.10649877 3.10529381,3.09987147 L2.5,3.07998956 L2.5,11.3508656 C2.5,13.515785 3.28202193,16.6748002 10.0462907,19.0915572 L10.2583645,19.1666667 L10.4704382,19.0915572 C17.234707,16.6748002 18.0167289,13.515785 18.0167289,11.3508656 L18.0167289,3.07998956 L17.409226,3.09987147 M9.59121581,13.4892758 L5.69436077,10.0960959 L6.72822027,9.27210106 L8.80035747,10.7742901 C8.80035747,10.7742901 11.6611439,7.8649034 14.4247299,6.50409688 L14.8201591,6.94149898 C14.8201591,6.94149898 11.3673334,9.75589428 9.59121581,13.4892758" id="形状" fill="#ADB5BD"></path>
            </g>
        </g>
    </g>
</svg>