<?xml version="1.0" encoding="UTF-8"?>
<svg width="20px" height="20px" viewBox="0 0 20 20" version="1.1" xmlns="http://www.w3.org/2000/svg" xmlns:xlink="http://www.w3.org/1999/xlink">
    <!-- Generator: Sketch 52.5 (67469) - http://www.bohemiancoding.com/sketch -->
    <title>ic_money</title>
    <desc>Created with Sketch.</desc>
    <g id="组件" stroke="none" stroke-width="1" fill="none" fill-rule="evenodd">
        <g id="ic_money">
            <g>
                <rect id="矩形" fill="#000000" opacity="0" x="0" y="0" width="20" height="20"></rect>
                <path d="M18.8535615,11.7038666 C18.8535615,10.2830976 16.9207442,9.17012461 14.5524687,9.17012461 C14.3948539,9.17012461 14.2053235,9.17577708 14.0524887,9.18540991 L14.0524887,5.03960549 C14.0745352,4.93458953 14.06632,4.82799232 14.06632,4.71905052 C14.06632,3.31898299 12.2692528,2.22222222 9.90095914,2.22222222 C7.53261091,2.22222222 5.67767409,3.31900118 5.67767409,4.71905052 C5.67767409,4.82799232 5.69265041,4.93460772 5.71460598,5.03960549 L5.71460598,6.17642427 C5.58096417,6.16926326 5.44554118,6.16475583 5.3078463,6.16475583 C2.93957077,6.16475583 1.11913037,7.261353 1.11913037,8.66127515 C1.11913037,8.77052594 1.09953756,8.87712313 1.12160219,8.98213911 L1.12160219,14.7887698 L1.15039161,14.7887698 C1.22470977,16.11232 3.02130439,17.1382704 5.3078463,17.1382704 C7.59266158,17.1382704 9.50392316,16.1139921 9.5808767,14.7887516 L9.60959343,14.7887516 L9.60959343,14.546895 C9.74483466,14.5547649 9.76179208,14.5674148 9.90095914,14.5674148 C10.0590102,14.5674148 10.2133535,14.5607263 10.3660974,14.5507482 L10.3660974,14.6190503 L10.3969042,14.6190503 L10.3879621,14.7772649 C10.3879621,16.1420909 12.2443892,17.3307815 14.6143005,17.3307815 C16.9845208,17.3307815 18.8408389,16.245562 18.8408389,14.8575082 L18.8362224,14.6999661 L18.8627763,14.6999661 L18.8627763,12.0293471 C18.8852044,11.9227499 18.8535615,11.814735 18.8535615,11.7038666 Z M14.6142824,9.97562872 C16.6978261,9.97562872 18.1497473,10.8864214 18.1497473,11.7038666 C18.1497473,12.5212391 16.6978079,13.4320318 14.6142824,13.4320318 C12.530884,13.4320318 11.0789265,12.5212391 11.0789265,11.7038666 C11.0789446,10.8864214 12.530884,9.97562872 14.6142824,9.97562872 Z M18.1873335,13.1204917 L18.1873335,13.5576766 C17.9881158,14.4329369 16.404552,15.1647045 14.614246,15.1647045 C12.8252486,15.1647045 11.2418302,14.4334458 11.0413584,13.5590761 L11.0413584,13.1204917 C11.8026788,13.7987517 13.1056002,14.2375359 14.614246,14.2375359 C16.1231463,14.2375359 17.4260132,13.7987698 18.1873335,13.1204917 Z M9.90095914,9.59535023 C9.76355506,9.59535023 9.74367145,9.58940696 9.60957525,9.58081012 L9.60957525,8.98213911 C9.62324297,8.91714481 9.63247594,8.8514235 9.63889177,8.78502969 C9.76290076,8.79248151 9.77298797,8.79698894 9.90097731,8.79698894 C11.401517,8.79698894 12.6321922,8.35409708 13.3639598,7.67561901 L13.3639598,8.01191368 C13.1675774,8.87403338 11.664784,9.59535023 9.90095914,9.59535023 Z M13.4218113,9.26007337 C13.3606883,9.26986978 13.2990746,9.27863021 13.2390784,9.28984426 C13.3010375,9.24104401 13.3661226,9.19367959 13.4218113,9.14208037 L13.4218113,9.26007337 Z M9.90095914,3.01611242 C11.9539323,3.01611242 13.3267371,3.91352822 13.3267371,4.71903233 C13.3267371,5.5243547 11.9539323,6.42175233 9.90094094,6.42175233 C7.84789508,6.42175233 6.41725695,5.52433652 6.41725695,4.71903233 C6.41725698,3.91352822 7.8478951,3.01611242 9.90095914,3.01611242 Z M6.38014334,6.11473785 C6.44390173,6.17162603 6.51671135,6.22426124 6.58808514,6.27755077 C6.52018281,6.26510079 6.4495542,6.25634038 6.38014334,6.24590785 L6.38014334,6.11473785 Z M5.3078463,6.9583734 C7.36089216,6.9583734 8.84938177,7.85598912 8.84938177,8.66129331 C8.84938177,9.46688832 7.36089216,10.3640133 5.3078463,10.3640133 C3.25487312,10.3640133 1.824235,9.46688832 1.824235,8.66129331 C1.82423502,7.85598915 3.25487315,6.9583734 5.3078463,6.9583734 Z M1.78703051,10.0572896 C2.53744576,10.7255714 3.82115604,11.1579581 5.30784632,11.1579581 C6.79453658,11.1579581 8.13617103,10.7255533 8.88629548,10.0572896 L8.88629548,10.4880223 C8.69013118,11.3503965 7.07178019,12.0715498 5.30784632,12.0715498 C3.54485755,12.0715498 1.98472152,11.3508872 1.78703051,10.4891674 L1.78703051,10.0572896 Z M1.78703051,11.6189342 C2.51877989,12.2966307 3.80714301,12.7395226 5.3078463,12.7395226 C6.80838602,12.7395226 8.15481871,12.2966307 8.88629547,11.6181708 L8.88629547,11.954211 C8.69013115,12.8165852 7.07178017,13.5377021 5.3078463,13.5377021 C3.54485752,13.5377021 1.98472151,12.8173303 1.78703048,11.9556287 L1.78703051,11.6189342 Z M1.78703051,13.0852501 C2.51877989,13.7630739 3.80714301,14.2058567 5.30784632,14.2058567 C6.80838605,14.2058567 8.15481872,13.7630739 8.88629548,13.0844868 L8.88629548,13.4205269 C8.69013118,14.282992 7.07178019,15.0040362 5.30784632,15.0040362 C3.54485755,15.0040362 1.98472152,14.2837553 1.78703051,13.4217265 L1.78703051,13.0852501 Z M5.3078463,16.4701704 C3.47780942,16.4701704 1.87019994,15.6935102 1.77448964,14.7887698 L1.78703048,14.7887698 L1.78703048,14.5514388 C2.51877987,15.2289173 3.80714299,15.6718455 5.3078463,15.6718455 C6.80838602,15.6718455 8.15481871,15.2289354 8.88629547,14.5507664 L8.88629548,14.7887698 L8.89863641,14.7887698 C8.80296247,15.693492 7.13773778,16.4701704 5.3078463,16.4701704 Z M9.54479906,8.11091368 C9.40541389,7.73178022 9.00968653,7.38792471 8.62048404,7.09803119 C9.02373593,7.17158598 9.451397,7.21538808 9.90099549,7.21538808 C11.3876858,7.21538808 12.6135627,6.7830378 13.363978,6.11473782 L13.363978,6.54550687 C13.1676138,7.40788101 11.6648203,8.12899793 9.90099549,8.12899793 C9.7415268,8.12901611 9.69981484,8.12203688 9.54479906,8.11091368 Z M10.3660792,13.8801399 C10.2131536,13.8915176 10.0583014,13.899442 9.90095914,13.899442 C9.76355506,13.899442 9.74367145,13.8937168 9.60957525,13.8848473 L9.60957525,13.1814148 C9.74332612,13.1900116 9.76290076,13.1957368 9.90095914,13.1957368 C10.0594645,13.1957368 10.2135352,13.1878306 10.3660792,13.1766347 L10.3660792,13.8801399 Z M10.3660792,12.5081348 C10.2131536,12.5196579 10.0583014,12.5277458 9.90095914,12.5277458 C9.76355506,12.5277458 9.74367145,12.5216935 9.60957525,12.5132239 L9.60957525,11.7149716 C9.74332612,11.7235866 9.76290076,11.7294936 9.90095914,11.7294936 C10.0477961,11.7294936 10.1907436,11.722587 10.332128,11.7131178 C10.3357994,11.8061563 10.3474678,11.8975228 10.3660974,11.9875261 L10.3660792,12.5081348 Z M10.4655518,11.0354031 C10.2805652,11.0519606 10.0924343,11.0615753 9.90097733,11.0615753 C9.76357325,11.0615753 9.74368964,11.0558138 9.60959345,11.0469443 L9.60959345,10.2491283 C9.74334431,10.2573979 9.76291895,10.263323 9.90097733,10.263323 C10.3540654,10.263323 10.7843619,10.218594 11.1895222,10.1434398 C10.8544089,10.4037624 10.6062637,10.7053243 10.4655518,11.0354031 Z M14.6142824,16.6527942 C12.7102908,16.6527942 11.0384504,15.8248801 11.0196028,14.8770101 L11.0255642,14.6999661 L11.0356514,14.6999661 C11.7769609,15.3908396 13.0873705,15.8426736 14.6142824,15.8426736 C16.1406671,15.8426736 17.4506769,15.3910213 18.192259,14.6999661 L18.2036366,14.6999661 L18.2092164,14.860598 C18.20918,15.8152655 16.5294516,16.6527942 14.6142824,16.6527942 Z M4.97322376,9.18133867 C4.94225332,9.14413415 4.91802586,9.07114279 4.90070494,8.96236456 L4.39874386,8.96236456 C4.39496343,9.20149491 4.4990343,9.37072366 4.71093829,9.46997811 C4.83118502,9.52517601 5.01342718,9.56228965 5.25770107,9.58128267 L5.25770107,9.83906072 L5.43796214,9.83906072 L5.43796215,9.57868362 C5.63018245,9.56850555 5.79612151,9.53299131 5.93616097,9.47264986 C6.16547673,9.37432233 6.28028912,9.21628947 6.28028912,8.99873303 C6.28028912,8.8338118 6.19695609,8.70604054 6.03034456,8.61543747 C5.9291999,8.56120283 5.73172697,8.49855313 5.43798033,8.42763372 L5.43798033,7.93432401 C5.56049895,7.94044904 5.64488615,7.97407305 5.69150538,8.03548685 C5.71835006,8.07089201 5.73679783,8.12683512 5.74648517,8.20367962 L6.23565095,8.20367962 C6.22819914,7.99668293 6.12018427,7.84673801 5.91178809,7.75437192 C5.79708478,7.69652045 5.63896105,7.66206039 5.43798033,7.65084632 L5.43798033,7.47598327 L5.25771926,7.47598327 L5.25771926,7.64824728 C5.13134751,7.65520835 5.03500108,7.665859 4.96955238,7.68063537 C4.86151933,7.70399042 4.76368255,7.74639305 4.67580574,7.8074797 C4.60764896,7.85504403 4.55461389,7.9114415 4.51682777,7.97709012 C4.47896896,8.04284778 4.46003045,8.11563921 4.46003045,8.19588247 C4.46003045,8.31765593 4.50864896,8.42170862 4.60583144,8.50809507 C4.70319566,8.59426342 4.87037063,8.66160231 5.10713821,8.7100936 L5.25771926,8.74110037 L5.25771926,9.29391549 C5.11640754,9.27673999 5.02162415,9.2391538 4.97322376,9.18133867 Z M5.43799849,8.78390284 C5.54092432,8.81056576 5.61393387,8.83646536 5.65675449,8.86141981 C5.72909157,8.90473118 5.76515104,8.96332784 5.76515104,9.03751877 C5.76515104,9.13510111 5.72674696,9.20363958 5.64933903,9.24340679 C5.60533702,9.26579856 5.53479929,9.28144736 5.43799849,9.29000785 L5.43799849,8.78390284 Z M5.0567749,8.32667079 C4.97878537,8.28437722 4.93961793,8.22705284 4.93961793,8.1544068 C4.93961793,8.08801299 4.96579014,8.03566861 5.01788008,7.99713729 C5.06975194,7.95878774 5.14983162,7.93883144 5.2577556,7.93695938 L5.2577556,8.39144698 C5.16715253,8.37169063 5.10010444,8.35004403 5.0567749,8.32667079 Z M14.2242802,12.0881073 C14.1931825,12.0509937 14.1690641,11.9782022 14.1516341,11.8694603 L13.6496912,11.8694603 C13.646038,12.108627 13.7499998,12.2777831 13.9619038,12.3770375 C14.0821506,12.4322354 14.2644836,12.4693309 14.5086848,12.4884693 L14.5086848,12.7459384 L14.6890549,12.7459384 L14.6890549,12.4858158 C14.8811662,12.4753832 15.0471961,12.439869 15.1872537,12.3796911 C15.4165513,12.2811818 15.531291,12.123149 15.531291,11.9055925 C15.531291,11.7406895 15.4478853,11.6131727 15.2812919,11.5224787 C15.1801654,11.4679533 14.9827834,11.4054126 14.6890549,11.3346931 L14.6890549,10.8413653 C14.8114463,10.8472904 14.8958517,10.8811325 14.9424527,10.9423645 C14.9695701,10.9777697 14.9877634,11.0338946 14.9976143,11.1107391 L15.4865983,11.1107391 C15.4791647,10.9035424 15.3712225,10.7537975 15.1628263,10.6615223 C15.0480321,10.603689 14.8901992,10.5689199 14.6890185,10.557724 L14.6890185,10.3830427 L14.5086666,10.3830427 L14.5086666,10.5551068 C14.3822767,10.5622678 14.2862029,10.5730093 14.2204816,10.5875131 C14.1125576,10.6108681 14.0147208,10.6531617 13.9267713,10.7145573 C13.8585781,10.7619399 13.8056703,10.8186464 13.7677933,10.883986 C13.7300436,10.9497255 13.7111232,11.0228077 13.7111232,11.1029601 C13.7111232,11.2245336 13.7596872,11.3286227 13.8570878,11.4149728 C13.9543066,11.5013229 14.1213725,11.5686799 14.3581038,11.6169531 L14.5086848,11.6481416 L14.5086848,12.2009568 C14.3673185,12.1836359 14.2725897,12.1459406 14.2242802,12.0881073 Z M14.6890549,11.6907623 C14.7918899,11.7176252 14.8648449,11.7433612 14.9078109,11.7682793 C14.9801298,11.8115907 15.0161348,11.8703873 15.0161348,11.9446691 C15.0161348,12.0419424 14.9776943,12.1107172 14.9004681,12.1504662 C14.8563026,12.172858 14.7857648,12.188325 14.6890731,12.1969037 L14.6890549,11.6907623 Z M14.3077768,11.2335485 C14.2297145,11.1914367 14.1908197,11.1340941 14.1908197,11.0615753 C14.1908197,10.9951088 14.216683,10.9425463 14.2688093,10.9042149 C14.3209719,10.8657018 14.4007426,10.8457091 14.5086484,10.844037 L14.5086484,11.2983247 C14.4181726,11.2785683 14.3513062,11.2569035 14.3077768,11.2335485 Z M9.53689287,5.27873583 C9.50590425,5.24162218 9.48169497,5.16853995 9.46430136,5.05987077 L8.962413,5.05987077 C8.95865074,5.29900112 9.06288518,5.46822987 9.27480733,5.56739343 C9.39487232,5.6226822 9.5770963,5.65977767 9.82140656,5.67880704 L9.82140656,5.93645786 L10.0016676,5.93645786 L10.0016676,5.6761535 C10.1937789,5.66570278 10.359827,5.63047937 10.4998483,5.57001066 C10.729164,5.47150139 10.8438855,5.31375933 10.8438855,5.09602115 C10.8438855,4.93128166 10.7606434,4.80351041 10.5939591,4.71279827 C10.4927963,4.65856365 10.2953779,4.59575036 10.0016676,4.52512176 L10.0016676,4.03173935 C10.1240772,4.03793707 10.2087734,4.07147021 10.2551927,4.13286585 C10.2822009,4.16808927 10.3003761,4.22430499 10.3103542,4.30118585 L10.7992292,4.30118585 C10.7917774,4.09391653 10.6838534,3.94417153 10.475439,3.85187816 C10.360663,3.79404486 10.2028119,3.75949392 10.0016494,3.74837072 L10.0016494,3.57338045 L9.82138837,3.57338045 L9.82138837,3.74573532 C9.69492573,3.75258735 9.59885194,3.76334704 9.53311244,3.77812343 C9.42540654,3.80136945 9.32736983,3.84348124 9.23938398,3.90489505 C9.17119084,3.95229584 9.11826482,4.00896591 9.08042419,4.07459635 C9.04263806,4.1400814 9.02371775,4.21314546 9.02371775,4.29329784 C9.02371775,4.41518033 9.07231809,4.51912398 9.16968232,4.60529231 C9.2668648,4.69164242 9.43393071,4.75909036 9.67069828,4.80729084 L9.82138839,4.83857026 L9.82138839,5.3912945 C9.67993123,5.37393722 9.58518422,5.33653279 9.53689287,5.27873583 Z M10.0016312,4.88111826 C10.1044662,4.90796294 10.1774757,4.93393522 10.2204236,4.95890787 C10.2927425,5.0019466 10.328802,5.0608159 10.328802,5.13500682 C10.328802,5.23258916 10.2902888,5.30112763 10.2131717,5.34089484 C10.1688971,5.36321392 10.0983594,5.3787355 10.0016494,5.3874959 L10.0016312,4.88111826 Z M9.62042583,4.42415882 C9.54232724,4.38177439 9.50345061,4.32441365 9.50345061,4.25189483 C9.50345061,4.18550103 9.52935017,4.13284764 9.58153101,4.09453445 C9.63360279,4.05629396 9.71337348,4.03604685 9.82137018,4.03433839 L9.82137018,4.48893504 C9.73078528,4.46888785 9.66391895,4.44753206 9.62042583,4.42415882 Z" id="形状" fill="#2D8EF8" fill-rule="nonzero"></path>
            </g>
        </g>
    </g>
</svg>