<?xml version="1.0" encoding="UTF-8"?>
<svg width="16px" height="16px" viewBox="0 0 16 16" version="1.1" xmlns="http://www.w3.org/2000/svg" xmlns:xlink="http://www.w3.org/1999/xlink">
    <!-- Generator: Sketch 52.5 (67469) - http://www.bohemiancoding.com/sketch -->
    <title>ic_revise</title>
    <desc>Created with Sketch.</desc>
    <g id="组件" stroke="none" stroke-width="1" fill="none" fill-rule="evenodd">
        <g id="ic_revise">
            <g>
                <rect id="矩形" fill="#000000" opacity="0" x="0" y="0" width="16" height="16"></rect>
                <path d="M3.65714286,11.7714286 C3.88571428,11.7714286 4.11428572,11.6571429 4.34285714,11.5428572 L4.45714286,11.5428572 L2.17142858,9.25714288 L2.17142858,9.37142859 C2.05714286,9.6 1.94285714,9.82857142 1.94285714,10.0571429 L1.14285714,12.5714286 L3.65714286,11.7714286 Z M11.6571429,2.62857142 L10.9714286,1.82857142 C10.5142857,1.37142856 9.94285716,1.37142856 9.4857143,1.82857142 L8.8,2.62857142 L10.9714286,4.8 L11.6571429,4.11428572 C12.1142857,3.65714286 12.1142857,2.97142858 11.6571429,2.62857142 Z M10.2857143,5.48571428 L8.11428572,3.31428572 L2.97142858,8.45714286 L5.14285716,10.6285714 L10.2857143,5.48571428 Z M0,13.7142857 L16,13.7142857 L16,14.8571429 L0,14.8571429 L0,13.7142857 Z" id="形状" fill="#FA9493" fill-rule="nonzero"></path>
            </g>
        </g>
    </g>
</svg>