<?xml version="1.0" encoding="UTF-8"?>
<svg width="16px" height="16px" viewBox="0 0 16 16" version="1.1" xmlns="http://www.w3.org/2000/svg" xmlns:xlink="http://www.w3.org/1999/xlink">
    <!-- Generator: Sketch 60.1 (88133) - https://sketch.com -->
    <title>ic_right</title>
    <desc>Created with Sketch.</desc>
    <g id="组件" stroke="none" stroke-width="1" fill="none" fill-rule="evenodd">
        <g id="ic_right" fill-rule="nonzero">
            <g>
                <rect id="矩形" fill="#000000" opacity="0" x="0" y="0" width="16" height="16"></rect>
                <path d="M15.3559224,4.87903496 C14.1042776,1.92154679 11.2045102,0 7.99306959,0 C4.78162893,0 1.88186162,1.92154679 0.630216804,4.87903496 C-1.08400993,8.9454506 0.818872914,13.6319311 4.88272058,15.3522367 C8.94913622,17.0664635 13.6356167,15.1635806 15.3559224,11.099733 C16.1939713,9.11084307 16.1939713,6.86792486 15.3559224,4.87903496 Z M12.3603533,8.73827622 L9.30833514,11.7921761 C9.16313026,11.9370448 8.95166886,11.9934432 8.75360639,11.9401265 C8.55554392,11.8868097 8.40097079,11.731878 8.34811321,11.5336925 C8.29525562,11.335507 8.35214391,11.1241768 8.49734879,10.9793081 L10.9152547,8.56328381 L3.88921528,8.56328381 C3.57225916,8.5632838 3.31531546,8.30634009 3.31531546,7.98938397 C3.31531546,7.67242784 3.57225916,7.41548413 3.88921528,7.41548412 L10.9152547,7.41548412 L8.49734879,4.99945985 C8.33292838,4.83554621 8.28346322,4.58871551 8.37202667,4.37410361 C8.46059012,4.15949171 8.66973378,4.01938057 8.90190114,4.0191026 C9.0544417,4.017738 9.20105016,4.07814611 9.30833514,4.18659187 L12.3603533,7.2404917 C12.5612173,7.43944402 12.6742236,7.71043119 12.6742236,7.99314724 C12.6742236,8.27586328 12.5612173,8.54685046 12.3603533,8.74580278 L12.3603533,8.73827622 Z" id="形状" fill="#2D8EF8"></path>
            </g>
        </g>
    </g>
</svg>