<?xml version="1.0" encoding="UTF-8"?>
<svg width="20px" height="20px" viewBox="0 0 20 20" version="1.1" xmlns="http://www.w3.org/2000/svg" xmlns:xlink="http://www.w3.org/1999/xlink">
    <!-- Generator: Sketch 52.5 (67469) - http://www.bohemiancoding.com/sketch -->
    <title>ic_task management</title>
    <desc>Created with Sketch.</desc>
    <g id="组件" stroke="none" stroke-width="1" fill="none" fill-rule="evenodd">
        <g id="ic_task-management">
            <g>
                <rect id="矩形" fill="#000000" opacity="0" x="0" y="0" width="20" height="20"></rect>
                <path d="M16,2 L4,2 C3.44821429,2 3,2.44821429 3,3 L3,17 C3,17.5517857 3.44821429,18 4,18 L16,18 C16.5517857,18 17,17.5517857 17,17 L17,3 C17,2.44821429 16.5517857,2 16,2 Z M12.5,3 L14,3 L14,6.52321429 L12.8714286,6.07142857 L12.5,5.92321429 L12.1285714,6.07142857 L11,6.52321429 L11,3 L12.5,3 Z M16,17 L4,17 L4,3 L10,3 L10,7.26071429 C10,7.54821429 10.2357143,7.76071429 10.5,7.76071429 C10.5607143,7.76071429 10.625,7.75 10.6857143,7.725 L12.5,7 L14.3142857,7.725 C14.3767857,7.75 14.4392857,7.76071429 14.5,7.76071429 C14.7642857,7.76071429 15,7.54642857 15,7.26071429 L15,3 L16,3 L16,17 Z M6,11 L10,11 C10.2767857,11 10.5,10.7767857 10.5,10.5 C10.5,10.2232143 10.2767857,10 10,10 L6,10 C5.72321429,10 5.5,10.2232143 5.5,10.5 C5.5,10.7767857 5.72321429,11 6,11 Z M14,13 L6,13 C5.72321429,13 5.5,13.2232143 5.5,13.5 C5.5,13.7767857 5.72321429,14 6,14 L14,14 C14.2767857,14 14.5,13.7767857 14.5,13.5 C14.5,13.2232143 14.2767857,13 14,13 Z" id="形状" fill="#2D8EF8" fill-rule="nonzero"></path>
            </g>
        </g>
    </g>
</svg>