<?xml version="1.0" encoding="UTF-8"?>
<svg width="20px" height="20px" viewBox="0 0 20 20" version="1.1" xmlns="http://www.w3.org/2000/svg" xmlns:xlink="http://www.w3.org/1999/xlink">
    <!-- Generator: Sketch 52.5 (67469) - http://www.bohemiancoding.com/sketch -->
    <title>ic_target income_blue</title>
    <desc>Created with Sketch.</desc>
    <g id="组件" stroke="none" stroke-width="1" fill="none" fill-rule="evenodd">
        <g id="ic_target-income_blue">
            <g>
                <rect id="矩形" fill="#000000" opacity="0" x="0" y="0" width="20" height="20"></rect>
                <g transform="translate(2.000000, 2.000000)" fill="#2D8EF8" fill-rule="nonzero" id="形状">
                    <path d="M16,2.94227923 L13.5687723,2.41539221 L13.0880433,0 L11.6557074,1.43463246 C10.4873784,0.757770104 9.15749292,0.402565368 7.78623322,0.402565368 C6.73611624,0.402565368 5.71555227,0.60976813 4.75606452,1.01628022 C3.82809999,1.40897879 2.99667529,1.97138629 2.28149243,2.68771584 C1.56630957,3.40404539 1.00480236,4.23680316 0.612732422,5.16625555 C0.206871075,6.1272817 0,7.14948199 0,8.20128268 C0,9.25308337 0.206871075,10.2752837 0.612732422,11.2363098 C1.00480236,12.1657622 1.56630957,12.99852 2.28149243,13.7148495 C2.99667529,14.4311791 3.82809999,14.9935866 4.75606452,15.3862852 C5.71555227,15.7927972 6.73611624,16 7.78623322,16 C8.8363502,16 9.85691417,15.7927972 10.8164019,15.3862852 C11.7443665,14.9935866 12.5757912,14.4311791 13.290974,13.7148495 C14.0061569,12.99852 14.5676641,12.1657622 14.959734,11.2363098 C15.3655954,10.2752837 15.5724664,9.25308337 15.5724664,8.20128268 C15.5724664,6.83769117 15.2217707,5.51159349 14.5538727,4.3473113 L16,2.94227923 Z M12.1640192,6.66600888 L12.1935722,6.63838185 C12.3708903,7.13764184 12.4595493,7.66058214 12.4595493,8.19930932 C12.4595493,9.45041934 11.9729097,10.6245683 11.0902598,11.5086334 C10.2076099,12.3926986 9.03534048,12.8801184 7.78623322,12.8801184 C6.53712597,12.8801184 5.36485654,12.3926986 4.48220662,11.5086334 C3.5995567,10.6245683 3.11291713,9.45041934 3.11291713,8.19930932 C3.11291713,6.94819931 3.5995567,5.77405032 4.48220662,4.8899852 C5.36485654,4.00592008 6.53712597,3.51850025 7.78623322,3.51850025 C8.31621721,3.51850025 8.8284694,3.60532807 9.31510898,3.77701036 L9.31116858,3.78095708 L9.68944711,5.67538234 L9.374215,5.98125308 C8.92697944,5.65959546 8.37926364,5.46817958 7.78623322,5.46817958 C6.28494028,5.46817958 5.06144563,6.69166256 5.06144563,8.19733596 C5.06144563,9.70103601 6.28297008,10.9264924 7.78623322,10.9264924 C9.28949637,10.9264924 10.5110208,9.70300937 10.5110208,8.19733596 C10.5110208,7.58559447 10.3100603,7.02121362 9.96921561,6.56536754 L10.2765669,6.25555007 L12.1640192,6.66600888 Z M9.73082133,8.19930932 C9.73082133,9.27281697 8.85802241,10.1470153 7.78623322,10.1470153 C6.71444403,10.1470153 5.84164512,9.27281697 5.84164512,8.19930932 C5.84164512,7.12580168 6.71444403,6.25160335 7.78623322,6.25160335 C8.18224357,6.25160335 8.5506711,6.37000493 8.85802241,6.57523434 L7.9871937,7.4474593 C7.92217707,7.42969906 7.85519025,7.41983226 7.78426302,7.41983226 C7.35475927,7.41983226 7.00406354,7.76911692 7.00406354,8.20128268 C7.00406354,8.63147509 7.35278907,8.9827331 7.78426302,8.9827331 C8.21573698,8.9827331 8.56643271,8.62950173 8.56643271,8.19930932 C8.56643271,8.13024174 8.5565817,8.06117415 8.5388499,7.99605328 L9.40967861,7.12382832 C9.61260928,7.43364578 9.73082133,7.80266404 9.73082133,8.19930932 Z M11.3365349,4.07498767 L11.0942002,3.09817464 L11.5512868,2.6403552 L11.7975619,3.62703503 L11.3365349,4.07498767 Z M10.7730575,3.41983226 L11.013422,4.38875185 L10.3534048,5.03009373 L10.1544145,4.03946719 L10.7730575,3.41983226 Z M12.4437877,5.30833744 L11.9216845,5.81549087 L10.9306736,5.60236803 L11.58281,4.94721263 L12.603374,5.15046867 L12.4437877,5.30833744 Z M12.9442187,4.82289097 L11.9157739,4.61766157 L12.3630095,4.16970893 L13.4032755,4.37691169 L12.9442187,4.82289097 Z M13.74215,4.04736063 L12.6979436,3.83818451 L13.2949144,3.25801677 L13.3835735,3.17316231 L14.4120182,3.39615195 L13.74215,4.04736063 Z M12.8141854,2.61272817 L12.1187046,3.30932412 L11.8724295,2.31869758 L12.6092846,1.58066108 L12.8141854,2.61272817 Z M14.792267,8.19930932 C14.792267,10.074001 14.0632927,11.8362111 12.7393178,13.1623088 C11.4153429,14.4884065 9.6579239,15.2165762 7.78623322,15.2165762 C5.91454254,15.2165762 4.15515331,14.4864332 2.83117843,13.1603355 C1.50720355,11.8342378 0.780199483,10.074001 0.780199483,8.19930932 C0.780199483,6.32461766 1.50917375,4.5624075 2.83314863,3.23630982 C4.15712351,1.91021214 5.91651274,1.18006907 7.78820342,1.18006907 C8.95062184,1.18006907 10.0795469,1.46423286 11.0843492,2.00690676 L9.91602019,3.17710903 C9.24812215,2.88702516 8.53293929,2.73902319 7.78623322,2.73902319 C6.33025489,2.73902319 4.9609654,3.30735076 3.93252063,4.3374445 C2.90407585,5.36753823 2.33665805,6.73902319 2.33665805,8.19733596 C2.33665805,9.65564874 2.90407585,11.0271337 3.93252063,12.0572274 C4.9609654,13.0873212 6.33025489,13.6556487 7.78623322,13.6556487 C9.24221155,13.6556487 10.611501,13.0873212 11.6399458,12.0572274 C12.6683906,11.0271337 13.2358084,9.65564874 13.2358084,8.19733596 C13.2358084,7.44943266 13.0880433,6.72718303 12.7964536,6.04834731 L13.9726635,4.90577208 C14.5124985,5.9121855 14.792267,7.04094721 14.792267,8.19930932 Z"></path>
                </g>
            </g>
        </g>
    </g>
</svg>