<?xml version="1.0" encoding="UTF-8"?>
<svg width="20px" height="20px" viewBox="0 0 20 20" version="1.1" xmlns="http://www.w3.org/2000/svg" xmlns:xlink="http://www.w3.org/1999/xlink">
    <!-- Generator: Sketch 52.5 (67469) - http://www.bohemiancoding.com/sketch -->
    <title>ic_target income_yellow</title>
    <desc>Created with Sketch.</desc>
    <g id="组件" stroke="none" stroke-width="1" fill="none" fill-rule="evenodd">
        <g id="ic_target-income_yellow">
            <g>
                <rect id="矩形" fill="#000000" opacity="0" x="0" y="0" width="20" height="20"></rect>
                <path d="M18,4.94227923 L15.5687723,4.41539221 L15.0880433,2 L13.6557074,3.43463246 C12.4873784,2.7577701 11.1574929,2.40256537 9.78623322,2.40256537 C8.73611624,2.40256537 7.71555227,2.60976813 6.75606452,3.01628022 C5.82809999,3.40897879 4.99667529,3.97138629 4.28149243,4.68771584 C3.56630957,5.40404539 3.00480236,6.23680316 2.61273242,7.16625555 C2.20687107,8.1272817 2,9.14948199 2,10.2012827 C2,11.2530834 2.20687107,12.2752837 2.61273242,13.2363098 C3.00480236,14.1657622 3.56630957,14.99852 4.28149243,15.7148495 C4.99667529,16.4311791 5.82809999,16.9935866 6.75606452,17.3862852 C7.71555227,17.7927972 8.73611624,18 9.78623322,18 C10.8363502,18 11.8569142,17.7927972 12.8164019,17.3862852 C13.7443665,16.9935866 14.5757912,16.4311791 15.290974,15.7148495 C16.0061569,14.99852 16.5676641,14.1657622 16.959734,13.2363098 C17.3655954,12.2752837 17.5724664,11.2530834 17.5724664,10.2012827 C17.5724664,8.83769117 17.2217707,7.51159349 16.5538727,6.3473113 L18,4.94227923 Z M14.1640192,8.66600888 L14.1935722,8.63838185 C14.3708903,9.13764184 14.4595493,9.66058214 14.4595493,10.1993093 C14.4595493,11.4504193 13.9729097,12.6245683 13.0902598,13.5086334 C12.2076099,14.3926986 11.0353405,14.8801184 9.78623322,14.8801184 C8.53712597,14.8801184 7.36485654,14.3926986 6.48220662,13.5086334 C5.5995567,12.6245683 5.11291713,11.4504193 5.11291713,10.1993093 C5.11291713,8.94819931 5.5995567,7.77405032 6.48220662,6.8899852 C7.36485654,6.00592008 8.53712597,5.51850025 9.78623322,5.51850025 C10.3162172,5.51850025 10.8284694,5.60532807 11.315109,5.77701036 L11.3111686,5.78095708 L11.6894471,7.67538234 L11.374215,7.98125308 C10.9269794,7.65959546 10.3792636,7.46817958 9.78623322,7.46817958 C8.28494028,7.46817958 7.06144563,8.69166256 7.06144563,10.197336 C7.06144563,11.701036 8.28297008,12.9264924 9.78623322,12.9264924 C11.2894964,12.9264924 12.5110208,11.7030094 12.5110208,10.197336 C12.5110208,9.58559447 12.3100603,9.02121362 11.9692156,8.56536754 L12.2765669,8.25555007 L14.1640192,8.66600888 Z M11.7308213,10.1993093 C11.7308213,11.272817 10.8580224,12.1470153 9.78623322,12.1470153 C8.71444403,12.1470153 7.84164512,11.272817 7.84164512,10.1993093 C7.84164512,9.12580168 8.71444403,8.25160335 9.78623322,8.25160335 C10.1822436,8.25160335 10.5506711,8.37000493 10.8580224,8.57523434 L9.9871937,9.4474593 C9.92217707,9.42969906 9.85519025,9.41983226 9.78426302,9.41983226 C9.35475927,9.41983226 9.00406354,9.76911692 9.00406354,10.2012827 C9.00406354,10.6314751 9.35278907,10.9827331 9.78426302,10.9827331 C10.215737,10.9827331 10.5664327,10.6295017 10.5664327,10.1993093 C10.5664327,10.1302417 10.5565817,10.0611741 10.5388499,9.99605328 L11.4096786,9.12382832 C11.6126093,9.43364578 11.7308213,9.80266404 11.7308213,10.1993093 Z M13.3365349,6.07498767 L13.0942002,5.09817464 L13.5512868,4.6403552 L13.7975619,5.62703503 L13.3365349,6.07498767 Z M12.7730575,5.41983226 L13.013422,6.38875185 L12.3534048,7.03009373 L12.1544145,6.03946719 L12.7730575,5.41983226 Z M14.4437877,7.30833744 L13.9216845,7.81549087 L12.9306736,7.60236803 L13.58281,6.94721263 L14.603374,7.15046867 L14.4437877,7.30833744 Z M14.9442187,6.82289097 L13.9157739,6.61766157 L14.3630095,6.16970893 L15.4032755,6.37691169 L14.9442187,6.82289097 Z M15.74215,6.04736063 L14.6979436,5.83818451 L15.2949144,5.25801677 L15.3835735,5.17316231 L16.4120182,5.39615195 L15.74215,6.04736063 Z M14.8141854,4.61272817 L14.1187046,5.30932412 L13.8724295,4.31869758 L14.6092846,3.58066108 L14.8141854,4.61272817 Z M16.792267,10.1993093 C16.792267,12.074001 16.0632927,13.8362111 14.7393178,15.1623088 C13.4153429,16.4884065 11.6579239,17.2165762 9.78623322,17.2165762 C7.91454254,17.2165762 6.15515331,16.4864332 4.83117843,15.1603355 C3.50720355,13.8342378 2.78019948,12.074001 2.78019948,10.1993093 C2.78019948,8.32461766 3.50917375,6.5624075 4.83314863,5.23630982 C6.15712351,3.91021214 7.91651274,3.18006907 9.78820342,3.18006907 C10.9506218,3.18006907 12.0795469,3.46423286 13.0843492,4.00690676 L11.9160202,5.17710903 C11.2481222,4.88702516 10.5329393,4.73902319 9.78623322,4.73902319 C8.33025489,4.73902319 6.9609654,5.30735076 5.93252063,6.3374445 C4.90407585,7.36753823 4.33665805,8.73902319 4.33665805,10.197336 C4.33665805,11.6556487 4.90407585,13.0271337 5.93252063,14.0572274 C6.9609654,15.0873212 8.33025489,15.6556487 9.78623322,15.6556487 C11.2422116,15.6556487 12.611501,15.0873212 13.6399458,14.0572274 C14.6683906,13.0271337 15.2358084,11.6556487 15.2358084,10.197336 C15.2358084,9.44943266 15.0880433,8.72718303 14.7964536,8.04834731 L15.9726635,6.90577208 C16.5124985,7.9121855 16.792267,9.04094721 16.792267,10.1993093 Z" id="形状" fill="#FF9F01" fill-rule="nonzero"></path>
            </g>
        </g>
    </g>
</svg>