<svg xmlns="http://www.w3.org/2000/svg" width="599" height="398" viewBox="0 0 599 398">
    <defs>
        <filter id="a" width="129.8%" height="129.8%" x="-14.9%" y="-10.6%" filterUnits="objectBoundingBox">
            <feOffset dy="2" in="SourceAlpha" result="shadowOffsetOuter1"/>
            <feGaussianBlur in="shadowOffsetOuter1" result="shadowBlurOuter1" stdDeviation="2"/>
            <feColorMatrix in="shadowBlurOuter1" result="shadowMatrixOuter1" values="0 0 0 0 0.421402014 0 0 0 0 0.442392363 0 0 0 0 0.467580782 0 0 0 1 0"/>
            <feMerge>
                <feMergeNode in="shadowMatrixOuter1"/>
                <feMergeNode in="SourceGraphic"/>
            </feMerge>
        </filter>
        <linearGradient id="b" x1="0%" y1="50%" y2="50%">
            <stop offset="0%" stop-color="#FFE774"/>
            <stop offset="100%" stop-color="#FFBE62"/>
        </linearGradient>
        <linearGradient id="c" x1="50%" x2="50%" y1="0%" y2="100%">
            <stop offset="0%" stop-color="#183388"/>
            <stop offset="100%" stop-color="#0A1750"/>
        </linearGradient>
        <linearGradient id="d" x1="111.066%" x2="0%" y1="77.396%" y2="21.667%">
            <stop offset="0%" stop-color="#183388"/>
            <stop offset="100%" stop-color="#0A1750"/>
        </linearGradient>
        <linearGradient id="e" x1="50%" x2="50%" y1="100%" y2="0%">
            <stop offset="0%" stop-color="#7DABFB"/>
            <stop offset="100%" stop-color="#4773F5"/>
        </linearGradient>
        <linearGradient id="f" x1="50%" x2="50%" y1="0%" y2="100%">
            <stop offset="0%" stop-color="#4AE8C1"/>
            <stop offset="100%" stop-color="#24CC8E"/>
        </linearGradient>
        <linearGradient id="g" x1="50%" x2="50%" y1="0%" y2="100%">
            <stop offset="0%" stop-color="#CAEAF3"/>
            <stop offset="100%" stop-color="#99C6D4"/>
        </linearGradient>
    </defs>
    <g fill="none" fill-rule="evenodd">
        <path fill="#F8F9FA" d="M184 28h375v270H184z"/>
        <path fill="#58A3F5" d="M73 28h30v30H73zM73 268h30v30H77a4 4 0 0 1-4-4v-26z"/>
        <path fill="#495057" d="M73 58h30v210H73z"/>
        <path fill="#F1F3F5" d="M103 28h81v270h-81z"/>
        <g transform="translate(55 85)">
            <rect width="38" height="38" fill="#FFF" rx="6"/>
            <path fill="#2D8EF8" d="M12 17v7h3v-7h-3zm6 0v7h3v-7h-3zm-8 12h19v-3H10v3zm14-12v7h3v-7h-3zm-4.5-9L10 13v2h19v-2l-9.5-5z"/>
        </g>
        <g transform="translate(16 151)">
            <rect width="32" height="32" fill="#FFF" rx="6"/>
            <path fill="#2D8EF8" d="M19.667 17.35H15.5v4.25h4.167v-4.25zM18.833 8v1.7h-6.666V8H10.5v1.7h-.833c-.925 0-1.659.765-1.659 1.7L8 23.3c0 .935.742 1.7 1.667 1.7h11.666C22.25 25 23 24.235 23 23.3V11.4c0-.935-.75-1.7-1.667-1.7H20.5V8h-1.667zm2.5 15.3H9.667v-9.35h11.666v9.35z"/>
        </g>
        <path fill="#FFF" d="M77 0h478a4 4 0 0 1 4 4v24H73V4a4 4 0 0 1 4-4z"/>
        <path fill="#FFE15B" d="M86.571 10.5H88V24h-.714z"/>
        <path fill="#FA9493" d="M88 6v4.5h-1.429V7.429c0-.79.64-1.429 1.429-1.429z"/>
        <path fill="#FCE995" d="M88 10.5h1.429L88.714 24H88z"/>
        <path fill="#FBA6A5" d="M88 6c.789 0 1.429.64 1.429 1.429V10.5H88V6z"/>
        <path fill="#CED4DA" d="M86.571 8.551a4.125 4.125 0 0 1 1.563-.301c.456 0 .893.072 1.295.203v1.663a2.409 2.409 0 0 0-1.295-.366c-.616 0-1.172.218-1.563.568V8.55z"/>
        <path fill="#63A9F5" d="M88 9.75v1.758c-1.598.022-2.98.79-3.673 1.909L83 12.023c1.066-1.369 2.907-2.273 5-2.273z"/>
        <path fill="#4496EF" d="M88 9.75v1.758c1.598.022 2.98.79 3.673 1.909L93 12.023c-1.066-1.369-2.907-2.273-5-2.273z"/>
        <path fill="#2D8EF8" d="M109 17.892v-7.655h4.636v.924h-3.709v1.796h3.235v.957h-3.235v3.032h3.616v.946H109zm10.292-4.924l-1.854 2.322 2.091 2.602h-1.154l-1.524-1.881-1.515 1.881h-1.154l2.092-2.602-1.865-2.322h1.164l1.278 1.602 1.287-1.602h1.154zm4.224 3.43l.722.548c-.083.108-.165.215-.258.312a2.386 2.386 0 0 1-1.741.742c-.66 0-1.288-.258-1.752-.742a2.657 2.657 0 0 1-.72-1.828c0-.688.257-1.333.72-1.828a2.409 2.409 0 0 1 1.752-.742c.66 0 1.277.258 1.741.742.093.097.175.194.247.301l-.71.549c-.29-.409-.753-.689-1.278-.689-.876 0-1.587.753-1.587 1.667s.711 1.667 1.587 1.667c.525 0 .989-.28 1.277-.7zm5.162-2.86v-.57h.886v4.924h-.886v-.57c-.443.388-1 .678-1.587.678-.659 0-1.277-.258-1.751-.742a2.657 2.657 0 0 1-.721-1.828c0-.688.257-1.333.721-1.828a2.426 2.426 0 0 1 1.751-.742c.588 0 1.144.29 1.587.678zm-1.587 3.559c.876 0 1.587-.753 1.587-1.667s-.71-1.667-1.587-1.667c-.875 0-1.586.753-1.586 1.667s.71 1.667 1.586 1.667zm4.668.795h-.886V10h.886v7.892zm2.03-5.72a.6.6 0 0 1-.588-.613.59.59 0 0 1 .587-.602c.32 0 .577.269.577.602 0 .333-.257.613-.577.613zm-.444 5.72v-4.924h.886v4.924h-.886zm6.594-4.29a2.62 2.62 0 0 1 .731 1.828 2.62 2.62 0 0 1-.731 1.828 2.386 2.386 0 0 1-1.741.742c-.588 0-1.144-.29-1.587-.677v.57h-.886V10h.886v3.538c.443-.387 1-.678 1.587-.678.66 0 1.277.258 1.74.742zm-1.741 3.495c.875 0 1.586-.753 1.586-1.667s-.71-1.667-1.586-1.667c-.876 0-1.587.753-1.587 1.667s.711 1.667 1.587 1.667zm4.059.269a2.235 2.235 0 0 1-.639-1.581v-2.817h.886v2.817c0 .72.577 1.312 1.298 1.312.711 0 1.298-.592 1.298-1.312v-2.817h.886v2.817c0 .602-.236 1.161-.649 1.58-.412.42-.958.635-1.535.635a2.132 2.132 0 0 1-1.545-.634zm5.883-4.398v.505c.299-.344 1.174-.613 1.72-.613l-.216.925c-.824 0-1.504.656-1.504 1.484v2.623h-.886v-4.924h.886zm4.852 4.924v-7.655h2.638c.463 0 .906.193 1.226.537.33.334.515.796.515 1.28 0 .376-.103.73-.31 1.032l-.01.01.01.012c.29.118.557.3.774.537.453.463.7 1.086.7 1.753 0 .656-.247 1.28-.7 1.753-.443.462-1.041.741-1.67.741h-3.173zm.917-.935h2.256c.804-.022 1.453-.731 1.453-1.56 0-.838-.649-1.526-1.453-1.537h-2.256v3.097zm0-4.032h1.72c.454-.011.825-.398.825-.871s-.36-.86-.824-.882h-1.72v1.753zM163.048 10c2.112 0 3.843 1.796 3.843 4.01 0 2.205-1.731 3.99-3.843 3.99s-3.833-1.785-3.833-3.99c0-2.214 1.72-4.01 3.833-4.01zm0 7.054c1.607 0 2.905-1.377 2.905-3.043 0-1.678-1.298-3.065-2.905-3.065-1.608 0-2.906 1.387-2.906 3.065 0 1.666 1.298 3.043 2.906 3.043zm7.438.914a3.49 3.49 0 0 1-.742-.086c-.762-.162-1.514-.56-2.184-1.162l.608-.72c.546.495 1.154.828 1.762.957.515.118 1.02.075 1.422-.118.267-.13.731-.452.731-1.108 0-.806-.824-1.097-1.628-1.258-.072-.01-1.226-.258-1.69-.538-.618-.387-.947-.967-.947-1.677 0-.398.123-.774.34-1.107a2.32 2.32 0 0 1 .865-.72c.515-.259 1.123-.334 1.741-.227.67.119 1.35.452 1.948.968l-.588.742c-1.06-.914-2.091-.936-2.71-.634-.422.204-.669.58-.669.967 0 .731.598 1.011 1.545 1.226.392.097 1.206.237 1.69.527.67.387 1.02.99 1.02 1.731 0 .441-.113.85-.35 1.204-.217.323-.546.57-.917.764-.392.204-.794.269-1.247.269z"/>
        <rect width="30" height="4" x="112" y="64" fill="#2D8EF8" rx="2"/>
        <rect width="30" height="4" x="112" y="163" fill="#495057" opacity=".8" rx="2"/>
        <path fill="#FFF" d="M103 78h81v19h-81z"/>
        <rect width="46" height="4" x="118" y="85" fill="#ADB5BD" opacity=".6" rx="2"/>
        <rect width="46" height="4" x="202" y="81" fill="#ADB5BD" opacity=".6" rx="2"/>
        <rect width="46" height="4" x="118" y="105" fill="#ADB5BD" opacity=".6" rx="2"/>
        <rect width="28" height="4" x="118" y="125" fill="#ADB5BD" opacity=".6" rx="2"/>
        <rect width="46" height="4" x="118" y="145" fill="#ADB5BD" opacity=".6" rx="2"/>
        <g filter="url(#a)" transform="translate(89 198)">
            <rect width="47" height="47" fill="#FFF" rx="6"/>
            <path fill="#2D8EF8" d="M35.455 15v16H38V15h-2.545zm-5.091 16h2.545V15h-2.545v16zm-3.819-16c.7 0 1.273.514 1.273 1.143v13.714c0 .629-.573 1.143-1.273 1.143H11.273c-.7 0-1.273-.514-1.273-1.143V16.143c0-.629.573-1.143 1.273-1.143h15.272zm-8.909 13.714h2.546v-1.143h1.273c.7 0 1.272-.514 1.272-1.142V23c0-.629-.572-1.143-1.272-1.143h-3.819v-1.143h5.091V18.43h-2.545v-1.143h-2.546v1.143h-1.272c-.7 0-1.273.514-1.273 1.142V23c0 .629.573 1.143 1.273 1.143h3.818v1.143H15.09v2.285h2.545v1.143z"/>
        </g>
        <path fill="#FFF" stroke="#E9ECEF" d="M208 93h43v19h-49V99a6 6 0 0 1 6-6zM251 93h49v19h-49zM202 112h49v19h-43a6 6 0 0 1-6-6v-13zM251 112h49v19h-49z"/>
        <path fill="#FFF" stroke="#E9ECEF" d="M299 112h49v19h-49zM348 93h49v19h-49z"/>
        <path fill="#2D8EF8" stroke="#E9ECEF" d="M348 112h49v19h-49zM299 93h49v19h-49z"/>
        <path fill="#FFF" stroke="#E9ECEF" d="M396 93h49v19h-49zM396 112h49v19h-49zM445 93h49v19h-49zM445 112h49v19h-49z"/>
        <path fill="#FFF" stroke="#E9ECEF" d="M493 93h43a6 6 0 0 1 6 6v13h-49V93zM493 112h49v13a6 6 0 0 1-6 6h-43v-19zM202 166h340v22H202zM202 188h340v22H202zM202 144h340v22H202z"/>
        <path fill="#F8F9FA" stroke="#E9ECEF" d="M202 210h340v22H202z"/>
        <path fill="#FFF" d="M207 43h328a6 6 0 0 1 6 6v9H201v-9a6 6 0 0 1 6-6z"/>
        <path fill="#DDE8F6" d="M201 58h340v9a6 6 0 0 1-6 6H207a6 6 0 0 1-6-6v-9zM253.536 43h46.589v15h-46.589z"/>
        <path fill="none" d="M284 16h24v24h-24z"/>
        <path fill="#2D8EF8" d="M296 18c-5.52 0-10 4.48-10 10s4.48 10 10 10 10-4.48 10-10-4.48-10-10-10zm5 11h-4v4h-2v-4h-4v-2h4v-4h2v4h4v2z"/>
        <g fill="#ADB5BD" opacity=".6" transform="translate(215 149)">
            <circle cx="283.5" cy="6.5" r="6.5"/>
            <g transform="translate(0 4)">
                <rect width="26" height="4" rx="2"/>
                <rect width="26" height="4" x="150" rx="2"/>
                <rect width="26" height="4" x="190" rx="2"/>
                <rect width="26" height="4" x="230" rx="2"/>
                <rect width="95" height="4" x="41" rx="2"/>
            </g>
        </g>
        <g transform="translate(215 207)">
            <circle cx="283.5" cy="14.5" r="6.5" fill="#ADB5BD" opacity=".6"/>
            <g fill="#ADB5BD" opacity=".6" transform="translate(0 12)">
                <rect width="26" height="4" rx="2"/>
                <rect width="26" height="4" x="150" rx="2"/>
                <rect width="26" height="4" x="190" rx="2"/>
                <rect width="26" height="4" x="230" rx="2"/>
                <rect width="95" height="4" x="41" rx="2"/>
            </g>
            <path fill="none" d="M299.772 5.852l20.376-5.08 5.08 20.376-20.376 5.08z"/>
            <path fill="#89EA97" d="M313.268 7.898l-.763-1.613-7.642 1.905 3.6 14.433 1.697-.424-1.482-5.943 4.755-1.185.763 1.613 5.943-1.481-2.117-8.49z"/>
        </g>
        <g transform="translate(215 146)">
            <circle cx="283.5" cy="31.5" r="6.5" fill="#ADB5BD" opacity=".6"/>
            <g fill="#ADB5BD" opacity=".6" transform="translate(0 29)">
                <rect width="26" height="4" rx="2"/>
                <rect width="26" height="4" x="150" rx="2"/>
                <rect width="26" height="4" x="190" rx="2"/>
                <rect width="26" height="4" x="230" rx="2"/>
                <rect width="95" height="4" x="41" rx="2"/>
            </g>
            <path fill="none" d="M301 22h18v18h-18z"/>
            <path fill="#FF8685" d="M311.8 26.5l-.3-1.5h-6.75v12.75h1.5V32.5h4.2l.3 1.5H316v-7.5z"/>
            <g>
                <path fill="none" d="M301 0h18v18h-18z"/>
                <path fill="#FF8685" d="M311.8 4.5l-.3-1.5h-6.75v12.75h1.5V10.5h4.2l.3 1.5H316V4.5z"/>
            </g>
        </g>
        <g>
            <path fill="#FFF" stroke="#E9ECEF" d="M156 273.54L494.137 238l2.3 21.88L158.3 295.42z"/>
            <g transform="rotate(-6 2700.305 -1476.586)">
                <circle cx="283.5" cy="9.5" r="6.5" fill="#ADB5BD" opacity=".6"/>
                <g fill="#ADB5BD" opacity=".6" transform="translate(0 7)">
                    <rect width="26" height="4" rx="2"/>
                    <rect width="26" height="4" x="150" rx="2"/>
                    <rect width="26" height="4" x="190" rx="2"/>
                    <rect width="26" height="4" x="230" rx="2"/>
                    <rect width="95" height="4" x="41" rx="2"/>
                </g>
                <path fill="none" d="M301 0h18v18h-18z"/>
                <path fill="#FFE15B" d="M311.8 4.5l-.3-1.5h-6.75v12.75h1.5V10.5h4.2l.3 1.5H316V4.5z"/>
            </g>
            <g>
                <path fill="#FFF" stroke="#E9ECEF" d="M158.3 295.42l338.137-35.54 2.3 21.879-338.138 35.54z"/>
                <g transform="rotate(-6 2910.198 -1487.586)">
                    <circle cx="283.5" cy="9.5" r="6.5" fill="#ADB5BD" opacity=".6"/>
                    <g fill="#ADB5BD" opacity=".6" transform="translate(0 7)">
                        <rect width="26" height="4" rx="2"/>
                        <rect width="26" height="4" x="150" rx="2"/>
                        <rect width="26" height="4" x="190" rx="2"/>
                        <rect width="26" height="4" x="230" rx="2"/>
                        <rect width="95" height="4" x="41" rx="2"/>
                    </g>
                    <path fill="none" d="M301 0h18v18h-18z"/>
                    <path fill="#FFE15B" d="M311.8 4.5l-.3-1.5h-6.75v12.75h1.5V10.5h4.2l.3 1.5H316V4.5z"/>
                </g>
            </g>
        </g>
        <g transform="translate(215 190)">
            <circle cx="283.5" cy="9.5" r="6.5" fill="#ADB5BD" opacity=".6"/>
            <g fill="#ADB5BD" opacity=".6" transform="translate(0 7)">
                <rect width="26" height="4" rx="2"/>
                <rect width="26" height="4" x="150" rx="2"/>
                <rect width="26" height="4" x="190" rx="2"/>
                <rect width="26" height="4" x="230" rx="2"/>
                <rect width="95" height="4" x="41" rx="2"/>
            </g>
            <path fill="none" d="M301 0h18v18h-18z"/>
            <path fill="#89EA97" d="M311.8 4.5l-.3-1.5h-6.75v12.75h1.5V10.5h4.2l.3 1.5H316V4.5z"/>
        </g>
        <g>
            <path fill="url(#b)" d="M24.684 22.985l7.398-1.354a26 26 0 0 0 14.888-8.454L48 12l4 2-2.527 3.79A26 26 0 0 1 34.458 28.51l-8.474 2.23c-.12 2.405-.437 5.397-.95 8.975a20 20 0 0 0 .038 5.912L27 58l-10.4-1H4l5-14.4L10.2 21h11.2c1.26 0 2.355.662 3.284 1.985z" transform="translate(251 27)"/>
            <path fill="url(#c)" d="M4.2 57.6L1 79.2V112h3.2c2.667-7.467 3.733-16.533 3.2-27.2L13 69.6l4.8 17.6L25 112h4c-1.067-12.8-2.4-21.067-4-24.8 0-6.4-.8-16.8-2.4-31.2H11.4l-7.2 1.6z" transform="matrix(-1 0 0 1 281 27)"/>
            <path fill="url(#c)" d="M25 117h9l-.818-5h-3.273z" transform="matrix(-1 0 0 1 310 27)"/>
            <path fill="url(#c)" d="M1 117h10v-5H7.667z" transform="matrix(-1 0 0 1 263 27)"/>
            <path fill="#FFCDA2" d="M276.63 35.438c.493 3.882.493 6.59 0 8.124-.492 1.534-1.622 2.347-3.39 2.438L269 36.25l5.087-3.25 2.544 2.438z"/>
            <path fill="url(#c)" d="M5.86 30.8l1.553-5.65C4.94 24.82 3.601 23.738 3.4 21.907c-.173-1.577.398-4.604 1.714-9.08C2.644 11.622.991 9.416.991 6.895.99 3.088 4.765 0 9.42 0c4.655 0 8.43 3.088 8.43 6.896V6.9c.047.033.094.066.14.101 3.333 2.365 3.821 4.629 1.465 6.792l1.59 3.266c1.813.195 3.227 1.746 3.227 3.63a3.643 3.643 0 0 1-2.887 3.578l-.105.91c1.854 1.088 3.471 3.237 4.252 5.96 1.302 4.542-.213 8.96-3.385 9.87-1.934.555-4.037-.322-5.679-2.12C15.411 41.308 13.013 43 10.223 43 6.454 43 3.4 39.912 3.4 36.104A6.91 6.91 0 0 1 5.86 30.8z" transform="matrix(-1 0 0 1 277.99 27)"/>
        </g>
        <path fill="#FFD6B2" d="M303.198 40.771l1.562-4.586-.61-7.702-1.762 6.523-1.31-2.723-1.88 6.488z"/>
        <g>
            <path fill="url(#c)" d="M32.143 129.4L27 135h9v-7z" transform="translate(523 221)"/>
            <path fill="url(#d)" d="M40 84.212c5.353 9.087 10.193 17.048 14.52 23.884A553.598 553.598 0 0 0 67.72 128l5.28-3.98c-2.64-9.732-5.28-16.808-7.92-21.232-3.96-6.634-4.31-3.97-8.58-13.269-2.846-6.2-5.266-13.276-7.26-21.23L47.92 59 40 84.212z" transform="translate(523 221)"/>
            <path fill="url(#c)" d="M27 61.68L48.551 59c0 12-3.592 21.377-10.775 28.132 0 0 1.224 8.528 1.224 19.868 0 7.56-.408 15.227-1.224 23H31.04l-3.925-42.936A28 28 0 0 1 27 84.515V61.68z" transform="translate(523 221)"/>
            <path fill="#FFD9A1" d="M552.07 246.053a7.146 7.146 0 0 1-.77-.5l-1.993-.49a2 2 0 0 1-1.482-1.543l-1.079-5.308-1.398-.688a1 1 0 0 1-.26-1.61l2.989-2.941.054.133c1.404-4.5 5.053-7.532 8.908-7.059 4.492.552 7.562 5.655 6.857 11.399-.39 3.175-1.852 5.881-3.84 7.574V250h-7.986v-3.947z"/>
            <path fill="#05226F" d="M562.043 237c-3.17 0-5.813-2.313-6.4-5.38-.253.031-.511.047-.773.047-3.242 0-5.87-2.388-5.87-5.334 0-2.945 2.628-5.333 5.87-5.333 2.303 0 4.296 1.205 5.257 2.96a6.39 6.39 0 0 1 1.916-.293c3.2 0 5.862 2.355 6.416 5.463l.106-.13c.87 4.444.435 8-1.304 10.667-1.74 2.666-3.913 4.444-6.522 5.333l1.304-8z"/>
            <path fill="url(#c)" d="M68 126.75l1.333 1.375L68 132.25 64 135h6.667L76 129.5l-4-5.5z" transform="translate(523 221)"/>
            <path fill="url(#e)" d="M23.502 34.426l-7.568-3.405a26 26 0 0 1-11.213-9.666L0 14l4-2 1.12 1.68A26 26 0 0 0 20.21 24.425L29 26.712l-.072.336c.442-.112.907-.15 1.375-.104l8.446.83a3.724 3.724 0 0 1 3.232 2.739c.444 1.65.669 3.353.669 5.062v5.6a25 25 0 0 0 3.223 12.278L49 59c-2.875 2.457-6.542 4.124-11 5-4.458.876-8.458.876-12 0l-2.075-16.263-.856-8.401a13.098 13.098 0 0 1 .433-4.91z" transform="translate(523 221)"/>
        </g>
        <g>
            <path fill="url(#c)" d="M36 71l-5 21v24l7 26-6 4h10l-4-32 1-17 5-15 3 31 6 29-5 4h9l-1-7-2-29 3-34zM49 12c1.333 5.333 4 7.333 8 6 6-2-3 8-1 13s3.953 7.944 9 10c3.365 1.37 9.031.37 17-3-8.667-2.667-13.333-6-14-10-1-6 7-12-3-16-.236-.094-8-2-11-8S44 0 42 7s-2 15 1 18-3 8-1 11c1.333 2 4.667.667 10-4l1-9-4-11z" transform="matrix(-1 0 0 1 201 252)"/>
            <path fill="#FFD6B2" d="M152 264l2 6 1.465.488a1 1 0 0 1 .39 1.656L155 273v3.292a4 4 0 0 1-2.514 3.714L150 281v2h-5c.667-2 0-5-2-9-.667-2-1-3.333-1-4 0-1 3 1 6 0 2-.667 3.333-2.667 4-6z"/>
            <path fill="url(#f)" d="M41 52.761c-3.208 4.643-5.875 7.39-8 8.239-3.333 1.333-9.667 2-19 2l-1-5 18-4 10.236-16.75c.868-3.038 4.122-5.122 9.764-6.25h5c2.385 3.873 3.385 7.54 3 11-.312 2.809-1.689 6.852-4.13 12.128a13 13 0 0 0-.89 8.278L57 76l-22-5 6-15v-3.239z" transform="matrix(-1 0 0 1 201 252)"/>
            <path fill="#FFD6B2" d="M187 315l5 1 9-2-8-1 3-2-8-1z"/>
        </g>
        <g>
            <path fill="url(#g)" d="M2.413 23.546C6.943 7.85 11.471 0 16 0s9.058 7.849 13.587 23.546A15.925 15.925 0 0 1 32 32c0 8.837-7.163 16-16 16S0 40.837 0 32c0-3.104.884-6 2.413-8.454z" transform="translate(0 252)"/>
            <path stroke="#224491" stroke-linecap="square" stroke-width="2" d="M15.5 275.5v32.016"/>
            <path stroke="#224491" stroke-linecap="square" d="M15.5 283.5l5-8M15.5 288.5l-5-8"/>
        </g>
        <path fill="#FFD6B2" d="M523 235.049l-1.95-4.815.61-7.702 1.763 6.523 1.31-2.723 2.267 6.717z"/>
    </g>
</svg>
