<?xml version="1.0" encoding="UTF-8"?>
<svg width="96px" height="96px" viewBox="0 0 96 96" version="1.1" xmlns="http://www.w3.org/2000/svg" xmlns:xlink="http://www.w3.org/1999/xlink">
    <!-- Generator: Sketch 52.5 (67469) - http://www.bohemiancoding.com/sketch -->
    <title>icon_yjfh</title>
    <desc>Created with Sketch.</desc>
    <defs>
        <rect id="path-1" x="4" y="4" width="88" height="88" rx="44"></rect>
        <filter x="-6.8%" y="-6.8%" width="113.6%" height="113.6%" filterUnits="objectBoundingBox" id="filter-2">
            <feOffset dx="0" dy="0" in="SourceAlpha" result="shadowOffsetOuter1"></feOffset>
            <feGaussianBlur stdDeviation="2" in="shadowOffsetOuter1" result="shadowBlurOuter1"></feGaussianBlur>
            <feColorMatrix values="0 0 0 0 0.91372549   0 0 0 0 0.925490196   0 0 0 0 0.937254902  0 0 0 1 0" type="matrix" in="shadowBlurOuter1"></feColorMatrix>
        </filter>
    </defs>
    <g id="组件" stroke="none" stroke-width="1" fill="none" fill-rule="evenodd">
        <g id="icon_yjfh" transform="translate(4.000000, 4.000000)">
            <g transform="translate(-4.000000, -4.000000)">
                <g id="矩形-copy-2">
                    <use fill="black" fill-opacity="1" filter="url(#filter-2)" xlink:href="#path-1"></use>
                    <use fill="#6A98F9" fill-rule="evenodd" xlink:href="#path-1"></use>
                </g>
                <g id="4-返回顶部-橙" transform="translate(21.600000, 21.600000)">
                    <rect id="矩形" fill="#000000" opacity="0" x="0" y="0" width="52.8" height="52.8"></rect>
                    <path d="M39.708575,23.9574645 C39.9008586,9.34391324 27.9792772,2.80627185 27.0178594,2.42170469 C27.0178594,2.42170469 27.0178594,2.42170469 27.0178594,2.42170469 C27.0178594,2.42170469 27.0178594,2.42170469 27.0178594,2.42170469 C26.2487251,2.80627185 14.1348602,9.53619677 14.3271437,23.9574645 C11.8274573,25.4957331 9.32777091,28.3799866 9.71233807,33.1870759 C10.0969052,37.9941651 14.9039945,41.2629858 16.6345466,41.0707023 C18.3650987,40.8784187 17.9805316,39.5324337 17.9805316,39.5324337 L18.5573823,37.0327473 C18.5573823,37.0327473 21.2493523,41.0707023 22.0184865,41.0707023 C22.7876208,41.0707023 26.4410086,41.0707023 26.8255758,41.0707023 C26.8255758,41.0707023 26.8255758,41.0707023 26.8255758,41.0707023 C26.8255758,41.0707023 26.8255758,41.0707023 26.8255758,41.0707023 C27.2101429,41.0707023 30.8635308,41.0707023 31.632665,41.0707023 C32.4017993,41.0707023 35.0937693,37.0327473 35.0937693,37.0327473 L35.67062,39.5324337 C35.67062,39.5324337 35.0937693,40.8784187 37.016605,41.0707023 C38.7471572,41.2629858 43.5542464,37.9941651 43.9388135,33.1870759 C44.7079478,28.3799866 42.2082614,25.4957331 39.708575,23.9574645 Z M27.0178594,23.765181 C26.6332922,23.765181 22.2107701,23.5728974 21.826203,18.381241 C22.0184865,13.3818682 26.6332922,12.997301 27.0178594,12.997301 C27.4024265,12.997301 32.0172322,13.3818682 32.2095158,18.381241 C31.8249486,23.5728974 27.4024265,23.765181 27.0178594,23.765181 Z M24.3258894,48.9543286 C24.3258894,49.5311793 23.9413222,50.10803 23.172188,50.10803 C22.5953372,50.10803 22.0184865,49.7234629 22.0184865,48.9543286 L22.0184865,43.5703886 C22.0184865,42.9935379 22.4030537,42.4166872 23.172188,42.4166872 C23.7490387,42.4166872 24.3258894,42.8012544 24.3258894,43.5703886 L24.3258894,48.9543286 Z M28.3638444,51.6462986 C28.3638444,52.2231493 27.7869936,52.8 27.2101429,52.8 C26.6332922,52.8 26.0564415,52.2231493 26.0564415,51.6462986 L26.0564415,43.7626723 C26.0564415,43.1858215 26.6332923,42.6089708 27.2101429,42.6089708 C27.7869937,42.6089708 28.3638444,43.1858216 28.3638444,43.7626723 L28.3638444,51.6462986 Z M32.0172322,47.6083436 C32.0172322,48.1851943 31.632665,48.762045 30.8635308,48.762045 C30.28668,48.762045 29.7098294,48.3774779 29.7098294,47.6083436 L29.7098294,43.7626722 C29.7098294,43.1858215 30.0943965,42.6089708 30.8635308,42.6089708 C31.4403815,42.6089708 32.0172322,42.9935379 32.0172322,43.7626722 L32.0172322,47.6083436 Z M47.5922013,0 C47.5922013,0 47.5922013,0 47.5922013,0 L6.4435174,0 C6.05895025,0 5.86666667,0.384567158 5.86666667,0.769134258 C5.86666667,1.15370142 6.05895025,1.53826852 6.4435174,1.53826852 L47.5922014,1.53826852 C47.5922014,1.53826852 47.5922014,1.53826852 47.5922014,1.53826852 C47.9767685,1.53826852 48.1690521,1.15370136 48.1690521,0.769134258 C48.1690521,0.384567158 47.9767685,0 47.5922013,0 Z" id="形状" fill="#FFFFFF" fill-rule="nonzero"></path>
                </g>
            </g>
        </g>
    </g>
</svg>