<?xml version="1.0" standalone="no"?>
<!DOCTYPE svg PUBLIC "-//W3C//DTD SVG 1.1//EN" "http://www.w3.org/Graphics/SVG/1.1/DTD/svg11.dtd" >
<!--
2013-9-30: Created.
-->
<svg>
<metadata>
Created by iconfont
</metadata>
<defs>

<font id="iconfont" horiz-adv-x="1024" >
  <font-face
    font-family="iconfont"
    font-weight="500"
    font-stretch="normal"
    units-per-em="1024"
    ascent="896"
    descent="-128"
  />
    <missing-glyph />
    
    <glyph glyph-name="x" unicode="x" horiz-adv-x="1001"
d="M281 543q-27 -1 -53 -1h-83q-18 0 -36.5 -6t-32.5 -18.5t-23 -32t-9 -45.5v-76h912v41q0 16 -0.5 30t-0.5 18q0 13 -5 29t-17 29.5t-31.5 22.5t-49.5 9h-133v-97h-438v97zM955 310v-52q0 -23 0.5 -52t0.5 -58t-10.5 -47.5t-26 -30t-33 -16t-31.5 -4.5q-14 -1 -29.5 -0.5
t-29.5 0.5h-32l-45 128h-439l-44 -128h-29h-34q-20 0 -45 1q-25 0 -41 9.5t-25.5 23t-13.5 29.5t-4 30v167h911zM163 247q-12 0 -21 -8.5t-9 -21.5t9 -21.5t21 -8.5q13 0 22 8.5t9 21.5t-9 21.5t-22 8.5zM316 123q-8 -26 -14 -48q-5 -19 -10.5 -37t-7.5 -25t-3 -15t1 -14.5
t9.5 -10.5t21.5 -4h37h67h81h80h64h36q23 0 34 12t2 38q-5 13 -9.5 30.5t-9.5 34.5q-5 19 -11 39h-368zM336 498v228q0 11 2.5 23t10 21.5t20.5 15.5t34 6h188q31 0 51.5 -14.5t20.5 -52.5v-227h-327z" />
    

    
    <glyph glyph-name="Brand" unicode="&#58953;" d="M512 764.08971773C302.19047582 764.08971773 131.91028227 593.8095241799999 131.91028227 384s170.28019354-380.08971773 380.08971773-380.08971773 380.08971773 170.28019354 380.08971773 380.08971773S721.80952418 764.08971773 512 764.08971773zM473.99102823 82.58885383999996c-150.1354385 18.62439617-266.0628024 146.33454133-266.0628024 301.41114616 0 23.5655625 3.04071773 45.99085585 7.98188407 68.03605947L397.97308468 269.97308468000006v-38.00897177c0-41.80986894 34.2080746-76.01794354 76.01794355-76.01794353v-73.35731554z m262.26190523 96.54278832c-9.88233265 30.78726714-38.00897177 52.83247077-72.21704637 52.83247075h-38.00897177v114.02691532c0 20.90493448-17.10403729 38.00897177-38.00897178 38.00897177H359.96411291V460.01794354h76.01794355c20.90493448 0 38.00897177 17.10403729 38.00897177 38.00897178V574.04485886h76.01794354c41.80986894 0 76.01794354 34.2080746 76.01794355 76.01794355v15.58367843c111.36628729-45.23067641 190.04485886-154.31642541 190.04485885-281.64648084 0-79.0586613-30.40717741-150.89561794-79.81884071-204.86835784z"  horiz-adv-x="1024" />

    
    <glyph glyph-name="add" unicode="&#58954;" d="M806.43245962 341.93822014H554.06177986v-252.37067976H469.93822014V341.93822014H217.56754038V426.06177986h252.37067977V678.43245962h84.12355971v-252.37067977h252.37067976z"  horiz-adv-x="1024" />

    
    <glyph glyph-name="Suppliers" unicode="&#58955;" d="M212.7676766 811.47474705c0 23.51111111-19.23636406 42.74747516-42.74747425 42.74747518S127.27272719 834.98585817 127.27272719 811.47474705v-170.98989881H41.77777777v-256.48484824h256.48484824V640.48484823H212.7676766V811.47474705z m170.98989882-598.46464587c0-55.57171725 35.90787895-102.59393948 85.49494942-120.54787895V-86.22222223000006h85.49495032v178.68444446c49.58707046 17.52646431 85.49494941 64.54868654 85.49494942 120.54787895v85.4949494H383.75757542v-85.4949494z m-341.97979765 0c0-55.57171725 35.90787895-102.59393948 85.49494942-120.54787895V-86.22222223000006h85.49494941v178.68444446C262.35474705 110.41616169999998 298.26262601 157.43838391999998 298.26262601 213.01010118v85.4949494H41.77777777v-85.4949494zM896.72727281 640.48484823V811.47474705c0 23.51111111-19.23636406 42.74747516-42.74747516 42.74747518s-42.74747516-19.23636406-42.74747425-42.74747517v-170.98989882h-85.49494941v-256.48484824h256.48484824V640.48484823h-85.49494942z m-341.97979765 170.98989882c0 23.51111111-19.23636406 42.74747516-42.74747516 42.74747518s-42.74747516-19.23636406-42.74747516-42.74747518v-170.98989882H383.75757542v-256.48484823h256.48484916V640.48484823h-85.49494942V811.47474705z m170.98989883-598.46464587c0-55.57171725 35.90787895-102.59393948 85.49494941-120.54787895V-86.22222223000006h85.49494941v178.68444446c49.58707046 17.52646431 85.49494941 64.54868654 85.49494942 120.54787895v85.4949494h-256.48484824v-85.4949494z"  horiz-adv-x="1024" />

    
    <glyph glyph-name="Drop-down" unicode="&#58956;" d="M512 644.57261726L643.25764945 510.69657283 701.62253687 570.24396168 512 764.08971773 321.95514114 570.24396168 380.74235055 510.69657283 512 644.57261726z m0-521.14523452L380.74235055 257.30342716999996 322.37746313 197.75603832000002 512 3.910282270000039 702.04485886 197.75603832000002 643.25764945 257.30342716999996 512 123.42738273999998z"  horiz-adv-x="1024" />

    
    <glyph glyph-name="Create" unicode="&#58957;" d="M512 771.99328464C297.82770688 771.99328464 124.00671536 598.17229312 124.00671536 384s173.82099152-387.99328464 387.99328464-387.99328464 387.99328464 173.82099152 387.99328464 387.99328464S726.17229312 771.99328464 512 771.99328464z m193.99664231-426.79261311h-155.19731384v-155.19731384H473.20067153v155.19731384H318.00335769V422.79932847h155.19731384V577.99664231h77.59865694v-155.19731384h155.19731384v-77.59865694z"  horiz-adv-x="1024" />

    
    <glyph glyph-name="time" unicode="&#58958;" d="M727.92669753 469.85200617H296.07330247v-86.37067902h431.85339506V469.85200617z m86.37067902 302.29737654h-43.18533952V858.52006173h-86.37067901v-86.37067902H339.25864198V858.52006173H252.88796297v-86.37067902H209.70262346C161.76689659 772.14938271 123.76379785 733.28257715 123.76379785 685.7787036899999L123.33194443 81.18395061000001a86.37067901 86.37067901 0 0 1 86.37067903-86.37067902h604.59475308c47.50387345 0 86.37067901 38.86680556 86.37067903 86.37067902V685.7787036899999c0 47.50387345-38.86680556 86.37067901-86.37067903 86.37067902z m0-690.9654321H209.70262346V556.22268518h604.59475308v-475.03873457z m-215.92669754 215.92669753H296.07330247v-86.37067901h302.29737654v86.37067901z"  horiz-adv-x="1024" />

    
    <glyph glyph-name="Error" unicode="&#58959;" d="M512 763.5586480100001C302.4836263 763.5586480100001 132.44135199 593.5163737 132.44135199 384s170.04227431-379.55864801 379.55864801-379.55864801 379.55864801 170.04227431 379.55864801 379.55864801S721.5163737 763.5586480100001 512 763.5586480100001z m37.9558648-569.33797201H474.0441352v75.9117296h75.9117296v-75.9117296z m0 151.8234592H474.0441352V573.779324h75.9117296v-227.7351888z"  horiz-adv-x="1024" />

    
    <glyph glyph-name="Edit" unicode="&#58960;" d="M132.44135199 162.56935371999998V4.441351990000044h158.12800174L756.94153937 470.81353763l-158.12800174 158.12800174L132.44135199 162.56935371999998zM879.22719377 593.0991920399999a41.99879749 41.99879749 0 0 1 0 59.456129L780.55532104 751.22719377a41.99879749 41.99879749 0 0 1-59.456129 0l-77.16646451-77.16646449 158.12800175-158.12800173 77.16646449 77.16646449z"  horiz-adv-x="1024" />

    
    <glyph glyph-name="Expand_down" unicode="&#58961;" d="M1215.36094595 614.69616147L875.51655161 294.32433226 535.67215681 614.69616147 431.27551279 516.07465108 875.51655161 96.41494965000004l444.24103835 419.65970143z"  horiz-adv-x="1755" />

    
    <glyph glyph-name="Expand_up" unicode="&#58962;" d="M1195.9111181 135.65691933999994L870.22690688 442.67992233 544.54269518 135.65691933999994 444.49591132 230.16920013000004 870.22690688 632.3430806599999l425.73099509-402.17388053z"  horiz-adv-x="1755" />

    
    <glyph glyph-name="member" unicode="&#58963;" d="M778.0628024 688.07177417h-158.877502C603.22153224 732.16218144 561.4116633 764.08971773 512 764.08971773 462.5883367 764.08971773 420.77846776 732.16218144 404.8146996 688.07177417H245.9371976C204.12732865 688.07177417 169.91925405 653.86369957 169.91925405 612.05383062v-532.12560479c0-41.80986894 34.2080746-76.01794354 76.01794355-76.01794356h532.1256048c41.80986894 0 76.01794354 34.2080746 76.01794355 76.01794356V612.05383062c0 41.80986894-34.2080746 76.01794354-76.01794355 76.01794355zM512 688.07177417c20.90493448 0 38.00897177-17.10403729 38.00897177-38.00897177s-17.10403729-38.00897177-38.00897177-38.00897178-38.00897177 17.10403729-38.00897177 38.00897178 17.10403729 38.00897177 38.00897177 38.00897177z m0-152.03588708c63.09489315 0 114.02691532-50.93202216 114.02691532-114.02691532s-50.93202216-114.02691532-114.02691532-114.02691531-114.02691532 50.93202216-114.02691532 114.02691531 50.93202216 114.02691532 114.02691532 114.02691532z m228.05383062-456.10766126H283.94616938v47.28316089C283.94616938 194.79133850999995 435.98205646 231.96411291000004 512 231.96411291000004s228.05383062-37.17277439 228.05383062-104.75272619V79.92822582999997z"  horiz-adv-x="1024" />

    
    <glyph glyph-name="expand_right" unicode="&#58964;" d="M370.858349 194.01754329000005L560.42690072 384 370.858349 573.98245671 429.21897294 632.3430806599999l248.34308066-248.34308066-248.34308066-248.34308066z"  horiz-adv-x="1024" />

    
    <glyph glyph-name="Help" unicode="&#58965;" d="M512 761.5975283600001c-217.57185309 0-394.1519085-169.48532014-394.1519085-378.3858321s176.58005461-378.3858321 394.1519085-378.3858321 394.1519085 169.48532014 394.1519085 378.3858321-176.58005461 378.3858321-394.1519085 378.3858321z m39.41519101-643.2559144H472.58480899v75.67716624h78.83038202v-75.67716624z m81.58944511 293.24901934l-35.47367231-34.80361356C569.15202676 349.15697117 551.41519101 326.45382136 551.41519101 269.69594646999997H472.58480899v18.91929136c0 41.62244116 17.73683576 79.46102469 46.1157736 107.09107407l48.87483669 47.69238028c14.5836208 13.5982407 23.25496273 32.51753208 23.25496275 53.32875387 0 41.62244116-35.47367151 75.67716625-78.83038203 75.67716626s-78.83038203-34.0547251-78.83038203-75.67716626H354.33923676C354.33923676 580.36648104 424.8924279 648.08177856 512 648.08177856s157.66076324-67.71529752 157.66076324-151.35433251c0-33.30583663-14.18946894-63.57670248-36.65612712-85.13681275z"  horiz-adv-x="1024" />

    
    <glyph glyph-name="file" unicode="&#58966;" d="M400.68132647 435.94202898c0 132.50830078 107.71142579 240.21972657 240.2197266 240.21972657h309.96093747V823.39320085H640.90105307C427.02800619 823.39320085 253.4498812 649.81507585 253.4498812 435.94202898s173.57812499-387.45117187 387.45117187-387.45117187h309.96093747V195.7223024H640.90105307C508.39275227 195.7223024 400.68132647 303.4337282 400.68132647 435.94202898zM718.39128744 358.45179458999996h619.92187499V513.43226336H718.39128744v-154.98046877z m697.41210938 464.94140626h-309.96093751v-147.2314453h309.96093751c132.50830078 0 240.21972657-107.71142579 240.21972654-240.21972657 0-132.50830078-107.71142579-240.21972657-240.21972654-240.21972658h-309.96093751V48.49085710999998h309.96093751c213.87304687 0 387.45117187 173.57812499 387.45117187 387.45117187s-173.57812499 387.45117187-387.45117187 387.45117187z"  horiz-adv-x="2048" />

    
    <glyph glyph-name="menu_horizontal" unicode="&#58967;" d="M210.02596027 12.692626949999976h1113.92211915v123.76912459H210.02596027v-123.76912458z m1e-8 309.42281112h1113.92211912V445.88456193H210.02596027v-123.76912386z m0 433.19193497v-123.76912458h1113.92211912V755.30737305H210.02596027z"  horiz-adv-x="1536" />

    
    <glyph glyph-name="Priority" unicode="&#58968;" d="M598.48572384 679.87221286L580.2782028 770.90981658H170.6089853v-773.81963316h91.03760372v318.63161378h254.90529086l18.20752104-91.03760371h318.63161379V679.87221286z"  horiz-adv-x="1024" />

    
    <glyph glyph-name="menu_vertical" unicode="&#58969;" d="M258.60685511 764.08971773v-760.17943546h84.46438114V764.08971773H258.60685511z m211.16095394 0v-760.17943546h84.46438189V764.08971773H469.76780906z m295.62533584 0h-84.46438114v-760.17943546h84.46438114V764.08971773z"  horiz-adv-x="1024" />

    
    <glyph glyph-name="Reminder" unicode="&#58970;" d="M534.7291257-47.85339507000003c50.00407772 0 90.91650449 38.86680556 90.91650449 86.37067902H443.81262205c0-47.50387345 40.91242678-86.37067901 90.91650364-86.37067902z m272.74951263 259.11203705V448.77800926c0 132.55626347-96.82607659 243.56531481-227.29126039 272.93134567v29.36603088C580.18737795 786.94194641 549.73034961 815.85339507 512 815.85339507S443.81262205 786.94194641 443.81262205 751.07538581v-29.36603088c-130.46518379-29.36603086-227.29126038-140.32962457-227.29126038-272.93134567V211.25864198l-90.91650449-86.37067901v-43.18533952h772.79028564v43.18533952l-90.91650449 86.37067901z"  horiz-adv-x="1024" />

    
    <glyph glyph-name="sort_down" unicode="&#58971;" d="M343.07123625 341.76780906h126.69657281V764.08971773h84.46438188v-422.32190867h126.69657281l-168.92876375-168.92876302-168.92876375 168.92876302z m-168.92876302-337.85752679v84.46438189h675.71505354v-84.46438189H174.14247323z"  horiz-adv-x="1024" />

    
    <glyph glyph-name="sort_up" unicode="&#58972;" d="M343.07123625 426.23219094h126.69657281v-422.32190867h84.46438188V426.23219094h126.69657281L512 595.1609539599999 343.07123625 426.23219094zM174.14247323 764.08971773v-84.4643819h675.71505354V764.08971773H174.14247323z"  horiz-adv-x="1024" />

    
    <glyph glyph-name="Succeed" unicode="&#58973;" d="M512 764.08971773c209.92355109 0 380.08971773-170.16616662 380.08971773-380.08971773s-170.16616662-380.08971773-380.08971773-380.08971773S131.91028227 174.07644890999995 131.91028227 384 302.07644891 764.08971773 512 764.08971773zM431.45898881 274.15407157000004L314.35334679 392.36197379 274.44392643 352.41454445 431.45898881 193.95514114000002l337.10157065 340.14228839L728.95521087 574.04485886 431.42097985 274.15407157000004z"  horiz-adv-x="1024" />

    
    <glyph glyph-name="Task" unicode="&#58974;" d="M814.29737654 772.14938271h-180.51471913C615.64481481 822.24437655 568.14094136 858.52006173 512 858.52006173 455.85905864 858.52006173 408.35518519 822.24437655 390.21734259 772.14938271H209.70262346C162.19875 772.14938271 123.33194443 733.28257715 123.33194443 685.7787036899999v-604.59475308c0-47.50387345 38.86680556-86.37067901 86.37067903-86.37067902h604.59475308c47.50387345 0 86.37067901 38.86680556 86.37067903 86.37067902V685.7787036899999c0 47.50387345-38.86680556 86.37067901-86.37067903 86.37067902zM512 772.14938271c23.75193674 0 43.18533951-19.43340277 43.18533951-43.18533951s-19.43340277-43.18533951-43.18533951-43.18533951-43.18533951 19.43340277-43.18533951 43.18533951 19.43340277 43.18533951 43.18533951 43.18533951z m86.37067901-604.59475308H296.07330247v86.37067901h302.29737654v-86.37067901z m129.55601852 172.74135802H296.07330247v86.37067901h431.85339506v-86.37067901z m0 172.74135802H296.07330247V599.4080246799999h431.85339506v-86.37067901z"  horiz-adv-x="1024" />

    
    <glyph glyph-name="Search" unicode="&#58975;" d="M935.34028059 55.22945053000001l-246.65647589 236.83749354c37.95764029 47.77662262 59.27756088 109.23618013 59.2775609 175.28701993C747.9613656 631.27642107 610.4501529 763.33264384 439.66349915 763.33264384 268.92230471 763.33264384 131.32017507 631.23096259 131.32017507 467.30850552c0-163.92245707 137.55667116-295.93322137 308.29786645-295.93322139a314.57110466 314.57110466 0 0 1 182.65125645 56.86827358l246.65647588-236.83749355c9.45531622-9.09165011 21.36537822-13.63747559 33.18452412-13.63747559 11.91006201 0 23.72920791 4.54582547 33.27544108 13.63747559 18.91063327 18.27421717 18.91063327 45.59462683-0.04545846 63.82338637zM439.66349915 262.38270558c-118.60057941 0-213.42649327 91.09833755-213.42649326 204.92579994 0 113.87292171 94.82591386 204.92580079 213.42649326 204.92580079 118.64603788 0 213.47195173-91.05287907 213.47195259-204.92580079 0-113.78200476-94.91683082-204.92580079-213.47195259-204.92579994z"  horiz-adv-x="1024" />

    
    <glyph glyph-name="Warning" unicode="&#58976;" d="M3.37258401-100.46577780999996h1170.28571399L588.51544104 910.22222222 3.37258401-100.46577780999996z m638.29333302 159.54895203h-106.30095201v106.39847698h106.30095201v-106.39847698z m0 212.79695299h-106.30095201V484.67707921h106.30095201v-212.796952z"  horiz-adv-x="1170" />

    
    <glyph glyph-name="Project" unicode="&#58977;" d="M176.12698386 451.17460305v-313.48148118h134.34920701V451.17460305H176.12698386z m268.69841309 0v-313.48148118h134.3492061V451.17460305H444.82539695zM86.56084678-86.22222223000006h850.87830644v134.34920609H86.56084678v-134.34920609zM713.52380913 451.17460305v-313.48148118h134.34920701V451.17460305h-134.34920701zM512 854.2222222299999L86.56084678 630.30687813v-89.56613708h850.87830644V630.30687813L512 854.2222222299999z"  horiz-adv-x="1024" />

    
    <glyph glyph-name="close" unicode="&#58978;" d="M806.43245962 619.1253496300001L747.12534963 678.43245962 512 443.30710995 276.87465037 678.43245962 217.56754038 619.1253496300001 452.69289005 384 217.56754038 148.87465037000004 276.87465037 89.56754037999997 512 324.69289004999996 747.12534963 89.56754037999997 806.43245962 148.87465037000004 571.30710995 384z"  horiz-adv-x="1024" />

    
    <glyph glyph-name="finance" unicode="&#58979;" d="M1413.71428584 854.2222222299999v-940.44444446h134.34920609V854.2222222299999h-134.34920609z m-268.69841309-940.44444446h134.34920701V854.2222222299999h-134.34920701v-940.44444446zM943.49206362 854.2222222299999c36.94603135 0 67.17460305-30.22857169 67.17460305-67.17460305v-806.09523836c0-36.94603135-30.22857169-67.17460305-67.17460305-67.17460305H137.39682526c-36.94603135 0-67.17460305 30.22857169-67.17460305 67.17460305V787.04761918c0 36.94603135 30.22857169 67.17460305 67.17460305 67.17460305h806.09523836zM473.26984139 48.126983859999996h134.34920609v67.17460305h67.17460305c36.94603135 0 67.17460305 30.22857169 67.17460305 67.17460396V384c0 36.94603135-30.22857169 67.17460305-67.17460305 67.17460305H473.26984139V518.34920609h268.69841219V652.69841309H607.61904749V719.87301614H473.26984139v-67.17460305H406.09523835c-36.94603135 0-67.17460305-30.22857169-67.17460305-67.17460396v-201.52380913c0-36.94603135 30.22857169-67.17460305 67.17460305-67.17460305h201.52380913v-67.17460304H338.92063531v-134.349207h134.34920608v-67.17460305z"  horiz-adv-x="1609" />

    
    <glyph glyph-name="Growth" unicode="&#58980;" d="M512 319.65384414000005m-64.77800926 0a64.77800926 64.77800926 0 1 1 129.55601852 0 64.77800926 64.77800926 0 1 1-129.55601852 0ZM512 815.85339507C273.61692592 815.85339507 80.14660493 622.3830740799999 80.14660493 384s193.47032099-431.85339507 431.85339507-431.85339507 431.85339507 193.47032099 431.85339507 431.85339507S750.38307408 815.85339507 512 815.85339507z m0-107.96334877c53.54982099 0 97.16701389-43.6171929 97.16701389-97.16701389S565.54982099 513.55601852 512 513.55601852 414.83298611 557.1732114199999 414.83298611 610.72303241 458.45017901 707.8900463 512 707.8900463z m215.92669753-456.03718519v-107.96334877c-19.43340277-17.70598919-41.45792592-33.25271142-64.77800927-45.34460648v29.36603088c0 14.68301543-7.34150771 28.07047067-19.86525616 39.73051234-28.07047067 26.77491049-81.62029167 44.0490463-131.2834321 44.04904628-41.45792592 0-84.64326543-12.09189507-114.44114969-31.52529783l-7.34150772-5.18224075-9.06892129-7.3415077c33.68456481-20.29710957 70.39210341-31.09344444 109.69076234-35.41197841l57.43650155-6.47780092c15.97857562-1.72741358 28.50232408-15.54672223 28.50232407-32.38900464 0-12.52374846-6.90965433-22.88822993-17.27413581-28.50232406-12.09189507-6.47780092-27.63861729-3.88668056-41.02607253-3.88668056a310.50259105 310.50259105 0 0 0-107.53149536 16.41042902c-21.16081636 6.90965433-41.88977933 16.41042901-61.32318211 27.63861727-9.50077469 5.61409414-19.00154938 11.66004167-28.07047068 18.56969599l-13.38745524 10.36448149c-1.72741358 0.86370679-12.09189507 7.77336111-12.09189506 9.93262808v184.83325309c0 68.23283642 113.5774429 120.05524382 215.92669753 120.05524383s215.92669753-51.82240741 215.92669753-120.05524383v-76.86990432z"  horiz-adv-x="1024" />

    
    <glyph glyph-name="personnel" unicode="&#58981;" d="M1414.33264333 854.2222222299999v-940.44444446h134.34920609V854.2222222299999h-134.34920609z m-268.69841309-940.44444446h134.349207V854.2222222299999h-134.349207v-940.44444446zM944.11042111 854.2222222299999H138.01518275C101.0691514 854.2222222299999 70.84057969 823.99365053 70.84057969 787.04761918v-806.09523836c0-36.94603135 30.22857169-67.17460305 67.17460306-67.17460305h806.09523836c36.94603135 0 67.17460305 30.22857169 67.17460305 67.17460305V787.04761918c0 36.94603135-30.22857169 67.17460305-67.17460305 67.17460305zM541.06280193 669.49206362c83.29650807 0 151.14285754-67.84634947 151.14285754-151.14285753S624.35930999 367.20634946999996 541.06280193 367.20634946999996 389.91994438 435.05269802 389.91994438 518.34920609 457.76629386 669.49206362 541.06280193 669.49206362zM843.34851608 48.126983859999996h-604.5714283v50.38095252C238.77708778 199.26984141000003 440.3008969 249.65079390999995 541.06280193 249.65079390999995s302.28571415-50.38095251 302.28571415-151.14285753V48.126983859999996z"  horiz-adv-x="1609" />

    
    <glyph glyph-name="schedule" unicode="&#58982;" d="M727.92669753 340.81466049000005H512v-215.92669752h215.92669753v215.92669752zM684.74135802 815.85339507v-86.37067902H339.25864198V815.85339507H252.88796297v-86.37067902H209.70262346C161.76689659 729.48271605 123.76379785 690.61591049 123.76379785 643.11203703L123.33194443 38.51728394999998a86.37067901 86.37067901 0 0 1 86.37067903-86.37067902h604.59475308c47.50387345 0 86.37067901 38.86680556 86.37067903 86.37067902V643.11203703c0 47.50387345-38.86680556 86.37067901-86.37067903 86.37067902h-43.18533951V815.85339507h-86.37067901z m129.55601852-777.33611112H209.70262346V513.55601852h604.59475308v-475.03873457z"  horiz-adv-x="1024" />

    
    <glyph glyph-name="support" unicode="&#58983;" d="M511.56814659 815.85339507C273.18507253 815.85339507 80.14660493 622.3830740799999 80.14660493 384s193.03846759-431.85339507 431.42154166-431.85339507C750.38307408-47.85339507000003 943.85339507 145.61692591999997 943.85339507 384S750.38307408 815.85339507 511.56814659 815.85339507zM512 38.51728394999998c-190.87920062 0-345.48271605 154.60351543-345.48271605 345.48271605s154.60351543 345.48271605 345.48271605 345.48271605 345.48271605-154.60351543 345.48271605-345.48271605-154.60351543-345.48271605-345.48271605-345.48271605z m151.14868826 388.66805556c35.84383179 0 64.77800926 28.93417747 64.77800927 64.77800926S698.99252007 556.74135802 663.14868826 556.74135802 598.37067901 527.80718056 598.37067901 491.96334877 627.30485648 427.18533951 663.14868826 427.18533951z m-302.29737652 0C396.69514352 427.18533951 425.62932099 456.11951698 425.62932099 491.96334877S396.69514352 556.74135802 360.85131174 556.74135802 296.07330247 527.80718056 296.07330247 491.96334877 325.00747993 427.18533951 360.85131174 427.18533951z m151.14868826-280.7047068c100.62184105 0 186.12881326 63.05059567 220.67708489 151.14868828H291.32291511c34.5482716-88.09809259 120.05524382-151.14868826 220.67708489-151.14868828z"  horiz-adv-x="1024" />

    
    <glyph glyph-name="visibility" unicode="&#58984;" d="M0 896h1024v-1024h-1024zM512 704c-213.333333 0-396.8-132.266667-469.333333-320 72.533333-187.733333 256-320 469.333333-320s396.8 132.266667 469.333333 320c-72.533333 187.733333-256 320-469.333333 320z m0-533.333333c-119.466667 0-213.333333 93.866667-213.333333 213.333333s93.866667 213.333333 213.333333 213.333333 213.333333-93.866667 213.333333-213.333333-93.866667-213.333333-213.333333-213.333333z m0 341.333333c-72.533333 0-128-55.466667-128-128s55.466667-128 128-128 128 55.466667 128 128-55.466667 128-128 128z"  horiz-adv-x="1024" />

    
    <glyph glyph-name="visibility_off" unicode="&#58985;" d="M0 896h1024v-1024h-1024zM512 597.333333c119.466667 0 213.333333-93.866667 213.333333-213.333333 0-25.6-4.266667-55.466667-17.066666-76.8l123.733333-123.733333c64 55.466667 115.2 123.733333 145.066667 204.8-72.533333 187.733333-256 320-469.333334 320-59.733333 0-115.2-8.533333-170.666666-29.866667l93.866666-93.866667c25.6 8.533333 55.466667 12.8 81.066667 12.8z m-426.666667 119.466667l98.133334-98.133333 21.333333-21.333334c-72.533333-55.466667-128-128-157.866667-213.333333 72.533333-187.733333 256-320 469.333334-320 68.266667 0 128 12.8 187.733333 34.133333l17.066667-17.066666 123.733333-123.733334 55.466667 55.466667-755.2 755.2-59.733334-51.2z m234.666667-238.933333l68.266667-68.266667c-4.266667-8.533333-4.266667-17.066667-4.266667-25.6 0-72.533333 55.466667-128 128-128 8.533333 0 17.066667 0 25.6 4.266667l68.266667-68.266667c-29.866667-12.8-59.733333-21.333333-93.866667-21.333333-119.466667 0-213.333333 93.866667-213.333333 213.333333 0 34.133333 8.533333 68.266667 21.333333 93.866667z m183.466667 34.133333l136.533333-132.266667v8.533334c0 72.533333-55.466667 128-128 128l-8.533333-4.266667z"  horiz-adv-x="1024" />

    
    <glyph glyph-name="device" unicode="&#58986;" d="M0 896h1024v-1024h-1024zM896 682.666667h85.333333v-597.333334h-85.333333zM725.333333 682.666667h85.333334v-597.333334h-85.333334zM213.333333 256m-42.666666 0a42.666667 42.666667 0 1 1 85.333333 0 42.666667 42.666667 0 1 1-85.333333 0ZM597.333333 682.666667h-512c-21.333333 0-42.666667-21.333333-42.666666-42.666667v-512c0-21.333333 21.333333-42.666667 42.666666-42.666667h512c21.333333 0 42.666667 21.333333 42.666667 42.666667v512c0 25.6-21.333333 42.666667-42.666667 42.666667z m-42.666666-490.666667c0-12.8-8.533333-21.333333-25.6-21.333333h-379.733334c-12.8 0-25.6 8.533333-25.6 21.333333v128c0 12.8 8.533333 21.333333 25.6 21.333333h379.733334c12.8 0 25.6-8.533333 25.6-21.333333v-128z m0 256c0-12.8-8.533333-21.333333-25.6-21.333333h-379.733334c-12.8 0-25.6 8.533333-25.6 21.333333v128c0 12.8 8.533333 21.333333 25.6 21.333333h379.733334c12.8 0 25.6-8.533333 25.6-21.333333v-128zM213.333333 512m-42.666666 0a42.666667 42.666667 0 1 1 85.333333 0 42.666667 42.666667 0 1 1-85.333333 0Z"  horiz-adv-x="1024" />

    
    <glyph glyph-name="settings" unicode="&#58998;" d="M878.539821 333.823966c2.04799 16.383918 3.583982 32.767836 3.583982 50.17575 0 17.407913-1.535992 33.791831-3.583982 50.175749l108.088348 84.479577a25.827426 25.827426 0 0 1 6.087081 32.767836l-102.399488 177.151115a25.713649 25.713649 0 0 1-31.231844 11.263943l-127.430474-51.199744a374.042574 374.042574 0 0 1-86.584456 50.175749L625.613085 874.493263a24.974097 24.974097 0 0 1-25.030986 21.503893h-204.798976a24.974097 24.974097 0 0 1-25.144763-21.503893l-19.455903-135.679322a393.3847 393.3847 0 0 1-86.470678-50.175749l-127.544251 51.199744a24.974097 24.974097 0 0 1-31.231844-11.263943l-102.399488-177.151115a25.25854 25.25854 0 0 1 6.143969-32.767836l108.088348-84.479577A406.070859 406.070859 0 0 1 114.070754 383.999716c0-16.895916 1.535992-33.791831 3.583982-50.17575L9.680165 249.344389a25.827426 25.827426 0 0 1-6.143969-32.767836l102.399488-177.151115c6.143969-11.263944 19.9679-15.359923 31.288732-11.263943l127.430474 51.199744c26.623867-20.479898 55.295724-37.375813 86.527567-50.175749l19.455903-135.679322a24.974097 24.974097 0 0 1 25.087875-21.503892h204.798976a24.974097 24.974097 0 0 1 25.087874 21.503892l19.455903 135.679322a393.3847 393.3847 0 0 1 86.527567 50.175749l127.487363-51.199744c11.775941-4.607977 25.087875 0 31.288732 11.263943l102.399488 177.151115a25.827426 25.827426 0 0 1-6.200857 32.767836l-108.03146 84.479577zM498.125723 204.800612A179.36977 179.36977 0 0 0 318.926619 383.999716a179.36977 179.36977 0 0 0 179.199104 179.199104A179.36977 179.36977 0 0 0 677.324827 383.999716a179.36977 179.36977 0 0 0-179.199104-179.199104z"  horiz-adv-x="1024" />

    


  </font>
</defs>
</svg>
