<?xml version="1.0" encoding="UTF-8"?>
<svg width="24px" height="24px" viewBox="0 0 24 24" version="1.1" xmlns="http://www.w3.org/2000/svg" xmlns:xlink="http://www.w3.org/1999/xlink">
    <!-- Generator: Sketch 60.1 (88133) - https://sketch.com -->
    <title>ic_champion</title>
    <desc>Created with Sketch.</desc>
    <g id="组件" stroke="none" stroke-width="1" fill="none" fill-rule="evenodd">
        <g id="ic_champion" fill-rule="nonzero">
            <g>
                <rect id="矩形" fill="#000000" opacity="0" x="0" y="0" width="24" height="24"></rect>
                <g id="编组-3" transform="translate(0.000000, 1.200000)">
                    <path d="M8.3454392,8.85470948 L4.0095017,6.71017823 C3.53196264,6.47287354 3.11594701,6.71310792 3.08079076,7.24631104 L2.77024389,12.074436 C2.73508764,12.6076392 3.0954392,13.2316626 3.57590795,13.4689673 L7.90891576,15.6134985 C8.38645482,15.8508032 8.80540014,15.6105689 8.8376267,15.0773657 L9.14817357,10.2492407 C9.18625951,9.71603761 8.82297826,9.09201417 8.3454392,8.85470948 L8.3454392,8.85470948 Z M18.2858689,3.11545167 L13.9499314,0.970920418 C13.4723923,0.73361573 13.053447,0.973850105 13.0212204,1.50705323 L12.7106736,6.33224854 C12.6755173,6.86545167 13.0358689,7.48947511 13.5163376,7.72677979 L17.8522751,9.87131104 C18.3298142,10.1086157 18.7487595,9.86838136 18.7809861,9.33517823 L19.0915329,4.50705323 C19.1237595,3.97677979 18.7663376,3.35275636 18.2858689,3.11545167 L18.2858689,3.11545167 Z" id="形状" fill="#FEAE30"></path>
                    <path d="M13.2643845,17.2072485 C13.4313767,17.4972876 13.7507126,17.5412329 14.0554001,17.3654517 L16.4548142,15.9767798 C16.6891892,15.8420142 16.7712204,15.5490454 16.6393845,15.3146704 C16.5046189,15.0802954 16.2057908,15.0011939 15.9714158,15.1330298 L14.4304001,16.0236548 L14.8288376,15.0509985 C15.2624314,13.9904517 15.4294236,13.4074439 15.0016892,12.6662329 L14.9958298,12.6545142 C14.5182908,11.8283423 13.6012986,11.6408423 12.6843064,12.1711157 C12.0134079,12.5578345 11.7380173,13.0383032 11.6208298,13.6535376 C11.5973923,13.7765845 11.6208298,13.9172095 11.6823533,14.0197485 C11.8259079,14.2658423 12.1364548,14.3478735 12.3796189,14.2072485 C12.5319626,14.1193579 12.6052048,13.9845923 12.6257126,13.8791235 C12.7165329,13.471897 12.8454392,13.2404517 13.1237595,13.0763892 C13.4723923,12.8771704 13.8327439,12.9357642 14.0495408,13.3078345 C14.2604783,13.6740454 14.1901658,14.0461157 13.897197,14.8136939 L13.2350876,16.5715064 C13.1501267,16.8029517 13.1559861,17.0197485 13.2643845,17.2072485 Z" id="路径" fill="#E5E5E5"></path>
                    <path d="M23.2546189,10.808811 C23.5622361,11.5265845 23.4333298,12.3410376 22.9675095,12.9445532 C21.8864548,14.2570532 19.4958298,16.1232642 16.4870408,17.8986548 C13.5456345,19.6301001 10.8210251,20.7961157 9.15989232,21.1271704 C8.38645482,21.253147 7.58665014,20.9543189 7.1032517,20.3127173 C7.11204076,20.324436 7.11497045,20.3420142 7.1266892,20.3537329 L0.0895798233,11.2482642 C0.0925095108,11.2394751 0.107157948,11.2424048 0.0954391983,11.2189673 C-0.103779552,10.8761939 0.0192673233,10.433811 0.367900136,10.2345923 C0.499736073,10.1554907 0.649150136,10.1408423 0.792704823,10.152561 L7.31125951,11.4972876 L6.83372045,2.87521729 C6.8220017,2.51486573 7.00657201,2.15744386 7.34641576,1.96408448 C7.66282201,1.77951417 8.03489232,1.80002198 8.33079076,1.95822511 L15.5993454,6.71017823 L17.6530564,0.51095948 C17.6559861,0.51095948 17.6589158,0.53439698 17.6589158,0.525607918 C17.7087204,0.352756355 17.8259079,0.197482918 17.9958298,0.0978735426 C18.3444626,-0.101345207 18.7839158,0.0129126051 18.9831345,0.355686043 C18.9919236,0.373264168 18.9948533,0.35861573 19.006572,0.361545418 L23.3425095,10.9435767 C23.3132126,10.8967017 23.2780564,10.8644751 23.2546189,10.808811 Z" id="路径" fill="#FED530"></path>
                    <path d="M11.131572,8.44162354 C13.053447,7.33420167 15.5085251,7.99045167 16.6218064,9.91232667 C17.7292283,11.8342017 17.0729783,14.2892798 15.1511033,15.402561 C13.2292283,16.5099829 10.7741501,15.8537329 9.66086889,13.9318579 C8.54758764,12.0099829 9.20969701,9.55490479 11.131572,8.44162354 L11.131572,8.44162354 Z" id="路径" fill="#FEAE30"></path>
                    <path d="M13.9733689,13.715061 C14.1520798,14.0256079 14.5475876,14.1310767 14.8581345,13.9523657 C15.1686814,13.7736548 15.2741501,13.378147 15.0954392,13.0676001 L13.2702439,10.058811 C13.0915329,9.74826417 12.6960251,9.64279542 12.3854783,9.82150636 L12.3708298,9.83029542 C12.2155564,9.91818604 12.0749314,10.050022 11.8962204,10.2316626 L11.2897751,10.8674048 C11.0993454,11.0666235 11.0612595,11.3420142 11.1960251,11.5705298 C11.3483689,11.8371314 11.7057908,11.925022 11.9694626,11.7697485 C12.0309861,11.7345923 12.0983689,11.6759985 12.1511033,11.6232642 L12.490947,11.2892798 L13.9733689,13.715061 L13.9733689,13.715061 Z" id="路径" fill="#FED530"></path>
                </g>
            </g>
        </g>
    </g>
</svg>