<?xml version="1.0" encoding="UTF-8"?>
<svg width="16px" height="16px" viewBox="0 0 16 16" version="1.1" xmlns="http://www.w3.org/2000/svg" xmlns:xlink="http://www.w3.org/1999/xlink">
    <!-- Generator: Sketch 60.1 (88133) - https://sketch.com -->
    <title>ic_derive</title>
    <desc>Created with Sketch.</desc>
    <g id="组件" stroke="none" stroke-width="1" fill="none" fill-rule="evenodd">
        <g id="ic_derive">
            <g>
                <rect id="矩形" fill="#000000" opacity="0" x="0" y="0" width="16" height="16"></rect>
                <path d="M12.6669878,2 L3.33401056,2 C2.60064279,2 2,2.59952185 2,3.33387045 L2,12.666007 C2,13.3992171 2.60064279,13.9998774 3.33401056,13.9998774 L12.6669878,13.9998774 C13.3993747,13.9998774 14,13.3992346 14,12.666007 L14,3.33387045 C14,2.59952185 13.3993747,2 12.6669878,2 L12.6669878,2 Z M12.6670053,9.99996498 L9.99996496,9.99996498 C9.99996496,11.1327688 9.13387218,11.9999825 8.00008756,11.9999825 C6.86728376,11.9999825 6.00007004,11.1327688 6.00007004,9.99996498 L3.33402805,9.99996498 L3.33402805,3.33387045 L12.6670053,3.33387045 L12.6670053,9.99996498 L12.6670053,9.99996498 Z M10.6671104,6.66593689 L9.33409812,6.66593689 L9.33409812,4.66604199 L6.66705781,4.66604199 L6.66705781,6.66593689 L5.33404557,6.66593689 L8.00008756,9.33395802 L10.6671104,6.66593689 Z" id="形状" fill="#2D8EF8" fill-rule="nonzero"></path>
            </g>
        </g>
    </g>
</svg>