<?xml version="1.0" encoding="UTF-8"?>
<svg width="16px" height="16px" viewBox="0 0 16 16" version="1.1" xmlns="http://www.w3.org/2000/svg" xmlns:xlink="http://www.w3.org/1999/xlink">
    <!-- Generator: Sketch 60.1 (88133) - https://sketch.com -->
    <title>ic_jifen_2</title>
    <desc>Created with Sketch.</desc>
    <g id="组件" stroke="none" stroke-width="1" fill="none" fill-rule="evenodd">
        <g id="ic_jifen_2" fill-rule="nonzero">
            <g>
                <rect id="矩形" fill="#000000" opacity="0" x="0" y="0" width="15.9843902" height="15.9843902"></rect>
                <path d="M13.643801,2.34071415 C10.5228488,-0.780238049 5.46229075,-0.780238049 2.34083904,2.34121366 C-0.780612667,5.46266537 -0.780113155,10.5222244 2.34133855,13.6431766 C5.46279026,16.7646283 10.5228488,16.7646283 13.643801,13.6441756 C16.7647532,10.5237229 16.7652527,5.46216585 13.643801,2.34071415 Z M9.80804684,9.99174244 C8.99733855,10.8024507 8.35496587,11.6496234 7.93937172,12.4073834 C7.52377758,11.6496234 6.88140489,10.8024507 6.0706966,9.99174244 C5.25998831,9.18103415 4.41281563,8.53866146 3.65505563,8.12306732 C4.41281563,7.70747317 5.25998831,7.06510049 6.0706966,6.2543922 C6.88140489,5.4436839 7.52377758,4.59651122 7.93937172,3.83875122 C8.35496587,4.59651122 8.99733855,5.4436839 9.80804684,6.2543922 C10.6187551,7.06510049 11.4659278,7.70747317 12.2236878,8.12306732 C11.4664273,8.53866146 10.6187551,9.18153366 9.80804684,9.99174244 L9.80804684,9.99174244 Z" id="形状" fill="#F7B500"></path>
            </g>
        </g>
    </g>
</svg>