<?xml version="1.0" encoding="UTF-8"?>
<svg width="16px" height="16px" viewBox="0 0 16 16" version="1.1" xmlns="http://www.w3.org/2000/svg" xmlns:xlink="http://www.w3.org/1999/xlink">
    <!-- Generator: Sketch 60.1 (88133) - https://sketch.com -->
    <title>ic_jfph</title>
    <desc>Created with Sketch.</desc>
    <g id="组件" stroke="none" stroke-width="1" fill="none" fill-rule="evenodd">
        <g id="ic_jfph" fill-rule="nonzero">
            <g>
                <rect id="矩形" fill="#000000" opacity="0" x="0" y="0" width="16" height="16"></rect>
                <path d="M14.2222222,15 C14.2222222,15 9.59444444,11.5777778 9.12777778,11.2277778 C8.66111112,10.8777778 8.35,10.7222222 8,10.7222222 C7.61111112,10.7222222 7.3,10.9944444 6.83333334,11.3444444 C6.40555556,11.6944444 1.77777778,15 1.77777778,15 C1.35,15 1,14.65 1,14.2222222 L1,2.16666666 C1,1.50555554 1.50555556,1 2.16666666,1 L13.8333333,1 C14.4944444,1 15,1.50555556 15,2.16666666 L15,14.2222222 C15,14.65 14.65,15 14.2222222,15 Z M9.01111112,4.5 L8,2.55555556 L6.98888888,4.5 L4.88888888,4.92777778 L6.32777777,6.56111112 L6.09444444,8.77777778 L8,7.84444444 L9.90555556,8.77777778 L9.63333334,6.56111112 L11.1111111,4.92777778 L9.01111112,4.5 Z" id="形状" fill="#F7B500"></path>
            </g>
        </g>
    </g>
</svg>