<?xml version="1.0" encoding="UTF-8"?>
<svg width="20px" height="20px" viewBox="0 0 20 20" version="1.1" xmlns="http://www.w3.org/2000/svg" xmlns:xlink="http://www.w3.org/1999/xlink">
    <!-- Generator: Sketch 60.1 (88133) - https://sketch.com -->
    <title>ic_jifen</title>
    <desc>Created with Sketch.</desc>
    <g id="组件" stroke="none" stroke-width="1" fill="none" fill-rule="evenodd">
        <g id="ic_jifen" fill-rule="nonzero">
            <g>
                <rect id="矩形" fill="#000000" opacity="0" x="0" y="0" width="19.9804878" height="19.9804878"></rect>
                <path d="M17.0547512,2.92589268 C13.153561,-0.975297561 6.82786343,-0.975297561 2.9260488,2.92651707 C-0.975765834,6.82833171 -0.975141444,13.1527805 2.92667319,17.0539707 C6.82848782,20.9557854 13.153561,20.9557854 17.0547512,17.0552195 C20.9559415,13.1546537 20.9565659,6.82770732 17.0547512,2.92589268 Z M12.2600586,12.489678 C11.2466732,13.5030634 10.4437073,14.5620293 9.92421465,15.5092293 C9.40472197,14.5620293 8.60175612,13.5030634 7.58837075,12.489678 C6.57498539,11.4762927 5.51601953,10.6733268 4.56881953,10.1538341 C5.51601953,9.63434146 6.57498539,8.83137561 7.58837075,7.81799024 C8.60175612,6.80460488 9.40472197,5.74563902 9.92421465,4.79843902 C10.4437073,5.74563902 11.2466732,6.80460488 12.2600586,7.81799024 C13.2734439,8.83137561 14.3324098,9.63434146 15.2796098,10.1538341 C14.3330342,10.6733268 13.2734439,11.4769171 12.2600586,12.489678 L12.2600586,12.489678 Z" id="形状" fill="#F7B500"></path>
            </g>
        </g>
    </g>
</svg>