<?xml version="1.0" encoding="UTF-8"?>
<svg width="16px" height="16px" viewBox="0 0 16 16" version="1.1" xmlns="http://www.w3.org/2000/svg" xmlns:xlink="http://www.w3.org/1999/xlink">
    <!-- Generator: Sketch 60.1 (88133) - https://sketch.com -->
    <title>ic_mine_jfrz</title>
    <desc>Created with Sketch.</desc>
    <g id="组件" stroke="none" stroke-width="1" fill="none" fill-rule="evenodd">
        <g id="ic_mine_jfrz" fill-rule="nonzero">
            <g>
                <rect id="矩形" fill="#000000" opacity="0" x="0" y="0" width="16" height="16"></rect>
                <g id="编组-2" transform="translate(1.000000, 1.000000)" fill="#FA9190">
                    <path d="M0.171184048,8.00974684 L1.42565559,8.00974684 C1.47111309,8.00974684 1.51470399,8.02782706 1.54681654,8.06000108 C1.5789291,8.0921751 1.59692603,8.13580049 1.59683935,8.1812579 L1.59683935,8.37111588 C1.59647813,8.4654019 1.5199423,8.54164409 1.42565559,8.54164409 L0.171184048,8.54164409 C0.0766420517,8.54164409 3.11711955e-07,8.46500264 3.11711955e-07,8.37046065 L3.11711955e-07,8.1812579 C-8.63746168e-05,8.13580049 0.0179105548,8.0921751 0.0500231078,8.06000109 C0.0821356609,8.02782707 0.125726558,8.00974684 0.171184048,8.00974684 L0.171184048,8.00974684 Z M0.171184048,2.69241252 L1.42565559,2.69241252 C1.5201976,2.69241252 1.59683903,2.76905396 1.59683903,2.86359596 L1.59683903,3.05394538 C1.59683903,3.14848738 1.5201976,3.22512882 1.42565559,3.22512882 L0.171184048,3.22512882 C0.0766420517,3.22512882 6.25680663e-07,3.14848738 6.25680663e-07,3.05394538 L6.25680663e-07,2.86359596 C6.25680663e-07,2.76905396 0.0766420517,2.69241252 0.171184048,2.69241252 L0.171184048,2.69241252 Z M0.171184048,5.35189874 L1.42565559,5.35189874 C1.5201976,5.35189874 1.59683903,5.42854018 1.59683903,5.52308218 L1.59683903,5.71294016 C1.59683903,5.80748217 1.5201976,5.8841236 1.42565559,5.8841236 L0.171184048,5.8841236 C0.0766420517,5.8841236 6.25680663e-07,5.80748216 6.25680663e-07,5.71294016 L6.25680663e-07,5.52324599 C6.25680663e-07,5.428704 0.0766420517,5.35206256 0.171184048,5.35206255 L0.171184048,5.35189874 Z M0.171184048,10.6672673 L1.42565559,10.6672673 C1.5201976,10.6672673 1.59683903,10.7439087 1.59683903,10.8384507 L1.59683903,11.0283087 C1.59683903,11.1228507 1.5201976,11.1994922 1.42565559,11.1994922 L0.171184048,11.1994922 C0.0766420517,11.1994922 6.25680663e-07,11.1228507 6.25680663e-07,11.0283087 L6.25680663e-07,10.8386146 C6.25680663e-07,10.7440726 0.0766420517,10.6674311 0.171184048,10.6674311 L0.171184048,10.6672673 Z" id="形状"></path>
                    <path d="M12.7353931,1.06281173 L11.7993719,1.06281173 C11.7312971,1.06300499 11.6739511,1.0120072 11.6661928,0.944375726 C11.6054617,0.406795857 11.1509329,0.000412692418 10.6099337,6.66133815e-14 L1.70282533,6.66133815e-14 C1.38525468,6.66133815e-14 1.08064867,0.125943993 0.856061566,0.350469646 C0.631474466,0.5749953 0.505355408,0.879566802 0.505355408,1.19713748 L0.505355408,1.99129759 C0.505355408,2.06539318 0.565426687,2.12545952 0.639522282,2.12545952 L1.43384619,2.12545952 C1.61068316,2.12532914 1.78032436,2.19547476 1.90542845,2.32045595 C2.03053253,2.44543714 2.10084484,2.61500932 2.10088825,2.79184634 L2.10088825,3.18990926 C2.10025756,3.4835873 1.86234143,3.72150343 1.56866339,3.72213413 L0.640177532,3.72213413 C0.604425326,3.72195941 0.570082204,3.73606216 0.544770537,3.76131231 C0.51945887,3.78656246 0.505355408,3.82087117 0.505355408,3.85662369 L0.505355408,4.65094762 C0.505355408,4.72504321 0.565426687,4.78510955 0.639522282,4.78510955 L1.43384619,4.78510955 C1.80197193,4.78510955 2.10039681,5.08353443 2.10039681,5.45166018 L2.10039681,5.71556116 C2.10039681,5.89234138 2.03017115,6.06188114 1.90516866,6.18688363 C1.78016616,6.31188612 1.61062641,6.38211179 1.43384619,6.38211179 L0.640177532,6.38211179 C0.566081937,6.38211179 0.506015587,6.44217813 0.506015579,6.51627373 L0.506015579,7.31043384 C0.506015587,7.38452943 0.566081937,7.44459577 0.640177532,7.44459577 L1.43450144,7.44459577 C1.80262718,7.44459577 2.10105206,7.74302065 2.10105206,8.1111464 L2.10105206,8.50888169 C2.10051145,8.8026237 1.86256903,9.04063937 1.5688272,9.04127038 L0.640177532,9.04127038 C0.566081937,9.04127038 0.506015587,9.10133673 0.506015579,9.17543232 L0.506015579,9.97155816 C0.506015579,10.0456538 0.566081931,10.1057201 0.640177532,10.1057201 L1.43450144,10.1057201 C1.80262718,10.1057201 2.10105206,10.404145 2.10105206,10.7722707 L2.10105206,11.1667298 C2.10042136,11.4604078 1.86250524,11.698324 1.5688272,11.6989547 L0.640177532,11.6989547 C0.60428256,11.698778 0.569813781,11.7129929 0.544478113,11.7384209 C0.519142446,11.7638489 0.505053099,11.7983692 0.505355408,11.8342633 L0.505355408,13.6941836 C0.505355408,14.3552539 1.04126365,14.8911572 1.70233389,14.8911572 L12.6012311,14.8911572 C12.9186883,14.8911572 13.2231432,14.7650478 13.4476192,14.5405717 C13.6720953,14.3160957 13.7982047,14.0116407 13.7982047,13.6941836 L13.7982047,2.12562334 C13.7976627,1.53889986 13.3221166,1.0634271 12.7353931,1.06297554 L12.7353931,1.06281173 Z M8.11245741,2.38608426 C8.24350692,2.16461057 8.6299392,2.06583199 8.85681869,2.19065666 L10.1261971,2.90160032 C10.3532404,3.03002885 10.4575886,3.40417523 10.3271943,3.62564891 L6.31609609,10.4028749 C6.27913453,10.4657184 6.19875146,10.4875418 6.13508395,10.4520185 L4.15459806,9.34366715 C4.12318352,9.32588046 4.10026265,9.29618415 4.09101465,9.26128838 C4.08176665,9.22639261 4.086972,9.18924235 4.10545449,9.15823207 L8.11245741,2.38608426 Z M5.70327578,11.0764694 L4.09284097,11.6748743 C4.05352396,11.6894011 4.009677,11.6847179 3.97431506,11.6622149 C3.93895311,11.6397118 3.91614022,11.6019751 3.91264788,11.560206 L3.78159836,9.98892223 C3.77746487,9.93948504 3.80094981,9.89180197 3.84266034,9.86494395 C3.88437087,9.83808594 3.93749808,9.83643734 3.98079363,9.86065751 L5.72178652,10.8335364 C5.76750266,10.8590103 5.79423322,10.9087423 5.79025703,10.9609254 C5.78628085,11.0131085 5.75232378,11.0582163 5.70327578,11.0764694 L5.70327578,11.0764694 Z M12.7353931,13.2921892 C12.7353931,13.878472 12.7026307,14.354837 11.6727453,14.354837 L2.10088825,14.354837 C1.57400586,14.354013 1.12695241,13.9679689 1.04937966,13.4468276 C1.04356943,13.4081143 1.05489439,13.3687889 1.08040454,13.3390952 C1.10591468,13.3094015 1.14308428,13.2922795 1.18223111,13.2921892 L10.4739698,13.2921892 C11.13504,13.2921892 11.6709433,12.7562859 11.6709433,12.0952156 L11.6709433,1.73165571 C11.6709849,1.69575835 11.6853758,1.66136735 11.7109124,1.63613836 C11.7364491,1.61090938 11.771012,1.59693642 11.8069072,1.59732187 C12.3291396,1.60273576 12.7335911,1.67530443 12.7335911,2.65965013 L12.7335911,13.2921892 L12.7353931,13.2921892 Z" id="形状"></path>
                </g>
            </g>
        </g>
    </g>
</svg>