<?xml version="1.0" encoding="UTF-8"?>
<svg width="24px" height="24px" viewBox="0 0 24 24" version="1.1" xmlns="http://www.w3.org/2000/svg" xmlns:xlink="http://www.w3.org/1999/xlink">
    <!-- Generator: Sketch 60.1 (88133) - https://sketch.com -->
    <title>ic_third place</title>
    <desc>Created with Sketch.</desc>
    <g id="组件" stroke="none" stroke-width="1" fill="none" fill-rule="evenodd">
        <g id="ic_third-place" fill-rule="nonzero">
            <g>
                <rect id="矩形" fill="#000000" opacity="0" x="0" y="0" width="24" height="24"></rect>
                <g id="编组-5" transform="translate(0.000000, 1.000000)">
                    <path d="M8.21704783,8.71848318 L3.94781706,6.60694472 C3.47762475,6.37329087 3.06800936,6.60982933 3.03339398,7.13482933 L2.72762475,11.8886755 C2.69300936,12.4136755 3.04781706,13.0280986 3.52089398,13.2617524 L7.78724013,15.3732909 C8.25743244,15.6069447 8.66993244,15.3704063 8.70166321,14.8454063 L9.00743244,10.0915601 C9.04493244,9.5665601 8.68724013,8.95213703 8.21704783,8.71848318 L8.21704783,8.71848318 Z M18.0045478,3.06752164 L13.7353171,0.95598318 C13.2651247,0.722329334 12.8526247,0.958867796 12.820894,1.4838678 L12.5151247,6.23482933 C12.4805094,6.75982933 12.8353171,7.37425241 13.308394,7.60790626 L17.5776247,9.71944472 C18.0478171,9.95309856 18.4603171,9.7165601 18.4920478,9.1915601 L18.7949324,4.44059856 C18.8295478,3.91559856 18.4776247,3.30117549 18.0045478,3.06752164 L18.0045478,3.06752164 Z" id="形状" fill="#AA733D"></path>
                    <path d="M13.0603171,16.9425216 C13.2247401,17.2280986 13.5391632,17.2713678 13.8391632,17.0982909 L16.2016632,15.7309832 C16.4324324,15.5982909 16.5132017,15.3098293 16.383394,15.0790601 C16.2507017,14.8482909 15.9564709,14.7704063 15.7257017,14.9002139 L14.208394,15.777137 L14.6007017,14.8194447 C15.0276247,13.7752139 15.1920478,13.2011755 14.770894,12.4713678 L14.7651247,12.4598293 C14.2949324,11.6463678 13.3920478,11.4617524 12.4891632,11.9838678 C11.8285863,12.364637 11.5574324,12.8377139 11.4420478,13.4434832 C11.4189709,13.564637 11.4420478,13.7030986 11.5026247,13.8040601 C11.6439709,14.0463678 11.9497401,14.127137 12.1891632,13.9886755 C12.3391632,13.902137 12.4112786,13.7694447 12.4314709,13.6655986 C12.520894,13.264637 12.6478171,13.0367524 12.9218555,12.8752139 C13.2651247,12.6790601 13.6199324,12.7367524 13.833394,13.1030986 C14.0410863,13.4636755 13.9718555,13.8300216 13.683394,14.5857909 L13.0314709,16.3165601 C12.9478171,16.5444447 12.9535863,16.7579063 13.0603171,16.9425216 Z" id="路径" fill="#E5E5E5"></path>
                    <path d="M22.8968555,10.6425216 C23.1997401,11.3492524 23.0728171,12.1511755 22.6141632,12.7454063 C21.5497401,14.0377139 19.195894,15.8752139 16.233394,17.6232909 C13.3372401,19.3280986 10.6545478,20.4761755 9.0189709,20.802137 C8.25743244,20.9261755 7.46993244,20.6319447 6.9939709,20.0002139 C7.00262475,20.0117524 7.00550936,20.0290601 7.01704783,20.0405986 L0.0882016722,11.0752139 C0.0910862876,11.0665601 0.105509364,11.0694447 0.0939709029,11.0463678 C-0.102182943,10.7088678 0.0189709029,10.2732909 0.362240134,10.077137 C0.492047826,9.99925241 0.639163211,9.98482933 0.780509364,9.9963678 L7.1987786,11.3204063 L6.72858629,2.83098318 C6.71704783,2.47617549 6.8987786,2.12425241 7.23339398,1.9338678 C7.54493244,1.75213703 7.9112786,1.77232933 8.20262475,1.92809856 L15.3593555,6.60694472 L17.3814709,0.503098565 C17.3843555,0.503098565 17.3872401,0.526175488 17.3872401,0.517521642 C17.4362786,0.347329334 17.5516632,0.194444719 17.7189709,0.0963677958 C18.0622401,-0.0997860504 18.4949324,0.0127139496 18.6910863,0.35021395 C18.6997401,0.367521642 18.7026247,0.353098565 18.7141632,0.35598318 L22.983394,10.7752139 C22.9545478,10.7290601 22.9199324,10.6973293 22.8968555,10.6425216 Z" id="路径" fill="#CA9561"></path>
                    <path d="M10.9603171,8.31175241 C12.8526247,7.2213678 15.2699324,7.86752164 16.3660863,9.75982933 C17.4564709,11.652137 16.8103171,14.0694447 14.9180094,15.1655986 C13.0257017,16.2559832 10.608394,15.6098293 9.51224013,13.7175216 C8.41608629,11.8252139 9.06800936,9.40790626 10.9603171,8.31175241 L10.9603171,8.31175241 Z" id="路径" fill="#AA733D"></path>
                    <path d="M14.2199324,13.9107909 C15.0882017,13.4088678 15.3074324,12.5636755 14.8862786,11.8280986 L14.8805094,11.8165601 C14.4622401,11.0925216 13.7872401,11.1155986 13.2045478,11.3290601 L13.5449324,10.1607909 C13.6141632,9.9213678 13.6487786,9.74540626 13.5218555,9.53482933 C13.3891632,9.30117549 13.120894,9.26367549 12.8699324,9.40790626 L10.9776247,10.5098293 C10.7785863,10.6252139 10.7064709,10.8877139 10.8218555,11.089637 C10.9372401,11.2886755 11.1997401,11.3607909 11.4016632,11.2454063 L12.595894,10.5559832 L12.2843555,11.7502139 C12.2295478,11.9579063 12.2353171,12.0905986 12.3016632,12.2059832 C12.4170478,12.4050216 12.6795478,12.477137 12.8814709,12.3617524 L13.0141632,12.2838678 C13.4901247,12.0069447 13.8766632,12.0213678 14.0612786,12.3386755 L14.0670478,12.3502139 C14.2343555,12.6415601 14.1103171,12.9559832 13.7901247,13.1405986 C13.4843555,13.3194447 13.195894,13.3540601 12.8612786,13.2905986 C12.7603171,13.2761755 12.6478171,13.2732909 12.5266632,13.3425216 C12.3045478,13.4694447 12.2237786,13.7694447 12.3507017,13.9915601 C12.4228171,14.1127139 12.5555094,14.1905986 12.670894,14.2136755 C13.1468555,14.3002139 13.6660863,14.2309832 14.2199324,13.9107909 L14.2199324,13.9107909 Z" id="路径" fill="#CA9561"></path>
                </g>
            </g>
        </g>
    </g>
</svg>