<?xml version="1.0" encoding="UTF-8"?>
<svg width="16px" height="16px" viewBox="0 0 16 16" version="1.1" xmlns="http://www.w3.org/2000/svg" xmlns:xlink="http://www.w3.org/1999/xlink">
    <!-- Generator: Sketch 60.1 (88133) - https://sketch.com -->
    <title>ic_xyjf</title>
    <desc>Created with Sketch.</desc>
    <g id="组件" stroke="none" stroke-width="1" fill="none" fill-rule="evenodd">
        <g id="ic_xyjf" fill-rule="nonzero">
            <g>
                <rect id="矩形" fill="#000000" opacity="0" x="0" y="0" width="16" height="16"></rect>
                <g id="编组-6" transform="translate(0.000000, 1.000000)" fill="#2D8EF8">
                    <path d="M7.50848214,7.78392857 L0.215625,4.29107143 C-0.071875,4.15357143 -0.071875,3.74464286 0.215625,3.60535714 L7.50669643,0.1125 C7.81741071,-0.0375 8.17991071,-0.0375 8.490625,0.1125 L15.7816964,3.60535714 C16.0691964,3.74285714 16.0691964,4.15178571 15.7816964,4.29107143 L8.49241071,7.78392857 C8.18169643,7.93392857 7.81919643,7.93392857 7.50848214,7.78392857 Z" id="路径"></path>
                    <path d="M8.453125,8.72678571 C8.16741071,8.86428571 7.83526786,8.86428571 7.54955357,8.72678571 L2.99419643,6.54464286 L2.99419643,12.5196429 C2.99419643,13.6982143 3.95848214,14.6625 5.13705357,14.6625 L10.8834821,14.6625 C12.0620536,14.6625 13.0263393,13.6982143 13.0263393,12.5196429 L13.0263393,6.53571429 L8.453125,8.72678571 Z M1.41919643,9.95714286 C1.22276786,9.95714286 1.06205357,9.79642857 1.06205357,9.6 L1.06205357,3.94821429 C1.06205357,3.75178571 1.22276786,3.59107143 1.41919643,3.59107143 C1.615625,3.59107143 1.77633929,3.75178571 1.77633929,3.94821429 L1.77633929,9.6 C1.77633929,9.79821429 1.61741071,9.95714286 1.41919643,9.95714286 Z" id="形状"></path>
                    <path d="M0.531696429,8.00357143 C0.531696429,8.49372414 0.929043713,8.89107143 1.41919643,8.89107143 C1.90934914,8.89107143 2.30669643,8.49372414 2.30669643,8.00357143 C2.30669643,7.51341871 1.90934914,7.11607143 1.41919643,7.11607143 C0.929043713,7.11607143 0.531696429,7.51341871 0.531696429,8.00357143 L0.531696429,8.00357143 Z" id="路径"></path>
                </g>
            </g>
        </g>
    </g>
</svg>