<svg id="图层_1" data-name="图层 1" xmlns="http://www.w3.org/2000/svg" viewBox="0 0 164 48"><defs><style>.cls-1{fill:#ffe15b;}.cls-2{fill:#fa9493;}.cls-3{fill:#fce995;}.cls-4{fill:#fba6a5;}.cls-5{fill:#ced4da;}.cls-6{fill:#63a9f5;}.cls-7{fill:#4496ef;}.cls-8{fill:#fff;}.cls-9{fill:none;}</style></defs><title>logo3</title><g id="Group-6"><polygon id="Rectangle" class="cls-1" points="22 18 24 18 24 36 23 36 22 18"/><path id="Rectangle-Copy-2" class="cls-2" d="M23,12h1v6H22V13A1,1,0,0,1,23,12Z"/><polygon id="Rectangle-Copy" class="cls-3" points="24 18 26 18 25 36 24 36 24 18"/><path id="Rectangle-Copy-3" class="cls-4" d="M24,12h1a1,1,0,0,1,1,1v5H24Z"/><path id="Combined-Shape" class="cls-5" d="M22,15.4a6,6,0,0,1,2.19-.4,6.1,6.1,0,0,1,1.81.27v2.22A3.5,3.5,0,0,0,24.19,17a3.38,3.38,0,0,0-2.19.76Z"/><path id="Combined-Shape-2" data-name="Combined-Shape" class="cls-6" d="M24,17v2.34a6.19,6.19,0,0,0-5.14,2.54L17,20A9,9,0,0,1,24,17Z"/><path id="Combined-Shape-Copy" class="cls-7" d="M24,17v2.34a6.19,6.19,0,0,1,5.14,2.54L31,20A9,9,0,0,0,24,17Z"/></g><path id="Excalibur-BOS" class="cls-8" d="M54.44,30V18.61h7.2V20H55.88v2.67h5v1.42h-5v4.51H61.5V30Zm16-7.33-2.88,3.46L70.79,30H69l-2.37-2.8L64.28,30H62.49l3.25-3.87-2.9-3.46h1.81l2,2.38,2-2.38ZM77,27.78l1.12.82a5.55,5.55,0,0,1-.4.46,3.88,3.88,0,0,1-5.42,0,3.86,3.86,0,0,1,0-5.44,3.88,3.88,0,0,1,5.42,0,3.35,3.35,0,0,1,.38.45l-1.1.82a2.47,2.47,0,1,0-2,3.94A2.45,2.45,0,0,0,77,27.78Zm8-4.26v-.85h1.38V30H85v-.85a3.94,3.94,0,0,1-2.46,1,3.82,3.82,0,1,1,0-7.65A3.94,3.94,0,0,1,85,23.52Zm-2.46,5.3a2.48,2.48,0,1,0-2.46-2.48A2.48,2.48,0,0,0,82.54,28.82ZM89.78,30H88.41V18.26h1.38Zm3.15-8.51a.91.91,0,0,1-.91-.91.9.9,0,0,1,1.81,0A.91.91,0,0,1,92.94,21.49ZM92.25,30V22.67h1.38V30Zm10.24-6.38a3.82,3.82,0,0,1-2.7,6.54,3.94,3.94,0,0,1-2.46-1V30H95.94V18.26h1.38v5.26a3.94,3.94,0,0,1,2.46-1A3.79,3.79,0,0,1,102.49,23.62Zm-2.7,5.2a2.48,2.48,0,1,0-2.46-2.48A2.48,2.48,0,0,0,99.78,28.82Zm6.3.4a3.25,3.25,0,0,1-1-2.35V22.67h1.38v4.19a2,2,0,0,0,4,0V22.67h1.38v4.19a3.27,3.27,0,0,1-1,2.35,3.5,3.5,0,0,1-4.78,0Zm9.14-6.54v.75a4.47,4.47,0,0,1,2.67-.91l-.34,1.38a2.27,2.27,0,0,0-2.34,2.21V30h-1.38V22.67ZM122.76,30V18.61h4.1a2.73,2.73,0,0,1,2.7,2.7,2.61,2.61,0,0,1-.48,1.54l0,0,0,0a3.36,3.36,0,0,1,1.2.8,3.62,3.62,0,0,1,1.09,2.61A3.74,3.74,0,0,1,127.69,30Zm1.42-1.39h3.5a2.34,2.34,0,0,0,2.26-2.32A2.29,2.29,0,0,0,127.69,24h-3.5Zm0-6h2.67a1.31,1.31,0,0,0,1.28-1.3A1.32,1.32,0,0,0,126.86,20h-2.67Zm14.19-4.35a6,6,0,1,1-6,6A6,6,0,0,1,138.38,18.26Zm0,10.5a4.54,4.54,0,1,0-4.51-4.53A4.53,4.53,0,0,0,138.38,28.75Zm11.55,1.36a5.65,5.65,0,0,1-1.15-.13,7.55,7.55,0,0,1-3.39-1.73l.94-1.07a6.11,6.11,0,0,0,2.74,1.42,3.51,3.51,0,0,0,2.21-.18,1.81,1.81,0,0,0,1.14-1.65c0-1.2-1.28-1.63-2.53-1.87a11.81,11.81,0,0,1-2.62-.8,2.81,2.81,0,0,1-1.47-2.5,2.92,2.92,0,0,1,.53-1.65,3.57,3.57,0,0,1,1.34-1.07,4.52,4.52,0,0,1,2.7-.34,6.52,6.52,0,0,1,3,1.44l-.91,1.1a4,4,0,0,0-4.21-.94,1.65,1.65,0,0,0-1,1.44c0,1.09.93,1.5,2.4,1.82a10.66,10.66,0,0,1,2.62.78,2.84,2.84,0,0,1,1.58,2.58,3.08,3.08,0,0,1-.54,1.79,3.74,3.74,0,0,1-1.42,1.14A4.17,4.17,0,0,1,149.93,30.11Z"/><rect id="Rectangle-5" class="cls-9" width="164" height="48"/></svg>