<?xml version="1.0" encoding="UTF-8"?>
<svg width="138px" height="24px" viewBox="0 0 138 24" version="1.1" xmlns="http://www.w3.org/2000/svg" xmlns:xlink="http://www.w3.org/1999/xlink">
    <!-- Generator: Sketch 49 (51002) - http://www.bohemiancoding.com/sketch -->
    <title>Group</title>
    <desc>Created with Sketch.</desc>
    <defs></defs>
    <g id="Symbols" stroke="none" stroke-width="1" fill="none" fill-rule="evenodd">
        <g id="Navigation" transform="translate(-16.000000, -12.000000)">
            <g id="Group" transform="translate(16.000000, 12.000000)">
                <g id="Group-6">
                    <polygon id="Rectangle" fill="#FFE15B" points="5 6 7 6 7 24 6 24"></polygon>
                    <path d="M6,0 L7,0 L7,6 L5,6 L5,1 C5,0.44771525 5.44771525,1.01453063e-16 6,0 Z" id="Rectangle-Copy-2" fill="#FA9493"></path>
                    <polygon id="Rectangle-Copy" fill="#FCE995" points="7 6 9 6 8 24 7 24"></polygon>
                    <path d="M7,0 L8,0 C8.55228475,-1.01453063e-16 9,0.44771525 9,1 L9,6 L7,6 L7,0 Z" id="Rectangle-Copy-3" fill="#FBA6A5"></path>
                    <path d="M5,3.40195687 C5.66064469,3.1444686 6.40277862,3 7.18709061,3 C7.82653036,3 8.43793461,3.09602737 9,3.2710394 L9,5.487625 C8.49641054,5.1816176 7.86826249,5 7.18709061,5 C6.32467291,5 5.54725014,5.29112523 5,5.75723351 L5,3.40195687 Z" id="Combined-Shape" fill="#CED4DA"></path>
                    <path d="M7,5 L7,7.34424121 C4.7626151,7.37321869 2.82782977,8.39809828 1.85809097,9.88892238 L-1.99840144e-14,8.03083141 C1.49257698,6.20576851 4.07027453,5 7,5 Z" id="Combined-Shape" fill="#63A9F5"></path>
                    <path d="M14,5 L14,7.34424121 C11.7626151,7.37321869 9.82782977,8.39809828 8.85809097,9.88892238 L7,8.03083141 C8.49257698,6.20576851 11.0702745,5 14,5 Z" id="Combined-Shape-Copy" fill="#4496EF" transform="translate(10.500000, 7.444461) scale(-1, 1) translate(-10.500000, -7.444461) "></path>
                </g>
                <path d="M38.44,18 L38.44,6.608 L45.64,6.608 L45.64,7.984 L39.88,7.984 L39.88,10.656 L44.904,10.656 L44.904,12.08 L39.88,12.08 L39.88,16.592 L45.496,16.592 L45.496,18 L38.44,18 Z M54.424,10.672 L51.544,14.128 L54.792,18 L53,18 L50.632,15.2 L48.28,18 L46.488,18 L49.736,14.128 L46.84,10.672 L48.648,10.672 L50.632,13.056 L52.632,10.672 L54.424,10.672 Z M60.984,15.776 L62.104,16.592 C61.976,16.752 61.848,16.912 61.704,17.056 C60.984,17.776 60.024,18.16 59,18.16 C57.976,18.16 57,17.776 56.28,17.056 C55.56,16.32 55.16,15.36 55.16,14.336 C55.16,13.312 55.56,12.352 56.28,11.616 C57,10.896 57.976,10.512 59,10.512 C60.024,10.512 60.984,10.896 61.704,11.616 C61.848,11.76 61.976,11.904 62.088,12.064 L60.984,12.88 C60.536,12.272 59.816,11.856 59,11.856 C57.64,11.856 56.536,12.976 56.536,14.336 C56.536,15.696 57.64,16.816 59,16.816 C59.816,16.816 60.536,16.4 60.984,15.776 Z M69,11.52 L69,10.672 L70.376,10.672 L70.376,18 L69,18 L69,17.152 C68.312,17.728 67.448,18.16 66.536,18.16 C65.512,18.16 64.552,17.776 63.816,17.056 C63.096,16.32 62.696,15.36 62.696,14.336 C62.696,13.312 63.096,12.352 63.816,11.616 C64.552,10.896 65.512,10.512 66.536,10.512 C67.448,10.512 68.312,10.944 69,11.52 Z M66.536,16.816 C67.896,16.816 69,15.696 69,14.336 C69,12.976 67.896,11.856 66.536,11.856 C65.176,11.856 64.072,12.976 64.072,14.336 C64.072,15.696 65.176,16.816 66.536,16.816 Z M73.784,18 L72.408,18 L72.408,6.256 L73.784,6.256 L73.784,18 Z M76.936,9.488 C76.424,9.488 76.024,9.072 76.024,8.576 C76.024,8.08 76.424,7.68 76.936,7.68 C77.432,7.68 77.832,8.08 77.832,8.576 C77.832,9.072 77.432,9.488 76.936,9.488 Z M76.248,18 L76.248,10.672 L77.624,10.672 L77.624,18 L76.248,18 Z M86.488,11.616 C87.224,12.352 87.624,13.312 87.624,14.336 C87.624,15.36 87.224,16.32 86.488,17.056 C85.768,17.776 84.808,18.16 83.784,18.16 C82.872,18.16 82.008,17.728 81.32,17.152 L81.32,18 L79.944,18 L79.944,6.256 L81.32,6.256 L81.32,11.52 C82.008,10.944 82.872,10.512 83.784,10.512 C84.808,10.512 85.768,10.896 86.488,11.616 Z M83.784,16.816 C85.144,16.816 86.248,15.696 86.248,14.336 C86.248,12.976 85.144,11.856 83.784,11.856 C82.424,11.856 81.32,12.976 81.32,14.336 C81.32,15.696 82.424,16.816 83.784,16.816 Z M90.088,17.216 C89.448,16.592 89.096,15.76 89.096,14.864 L89.096,10.672 L90.472,10.672 L90.472,14.864 C90.472,15.936 91.368,16.816 92.488,16.816 C93.592,16.816 94.504,15.936 94.504,14.864 L94.504,10.672 L95.88,10.672 L95.88,14.864 C95.88,15.76 95.512,16.592 94.872,17.216 C94.232,17.84 93.384,18.16 92.488,18.16 C91.576,18.16 90.728,17.84 90.088,17.216 Z M99.224,10.672 L99.224,11.424 C99.688,10.912 101.048,10.512 101.896,10.512 L101.56,11.888 C100.28,11.888 99.224,12.864 99.224,14.096 L99.224,18 L97.848,18 L97.848,10.672 L99.224,10.672 Z M106.76,18 L106.76,6.608 L110.856,6.608 C111.576,6.608 112.264,6.896 112.76,7.408 C113.272,7.904 113.56,8.592 113.56,9.312 C113.56,9.872 113.4,10.4 113.08,10.848 L113.064,10.864 L113.08,10.88 C113.528,11.056 113.944,11.328 114.28,11.68 C114.984,12.368 115.368,13.296 115.368,14.288 C115.368,15.264 114.984,16.192 114.28,16.896 C113.592,17.584 112.664,18 111.688,18 L106.76,18 Z M108.184,16.608 L111.688,16.608 C112.936,16.576 113.944,15.52 113.944,14.288 C113.944,13.04 112.936,12.016 111.688,12 L108.184,12 L108.184,16.608 Z M108.184,10.608 L110.856,10.608 C111.56,10.592 112.136,10.016 112.136,9.312 C112.136,8.608 111.576,8.032 110.856,8 L108.184,8 L108.184,10.608 Z M122.376,6.256 C125.656,6.256 128.344,8.928 128.344,12.224 C128.344,15.504 125.656,18.16 122.376,18.16 C119.096,18.16 116.424,15.504 116.424,12.224 C116.424,8.928 119.096,6.256 122.376,6.256 Z M122.376,16.752 C124.872,16.752 126.888,14.704 126.888,12.224 C126.888,9.728 124.872,7.664 122.376,7.664 C119.88,7.664 117.864,9.728 117.864,12.224 C117.864,14.704 119.88,16.752 122.376,16.752 Z M133.928,18.112 C133.544,18.112 133.16,18.064 132.776,17.984 C131.592,17.744 130.424,17.152 129.384,16.256 L130.328,15.184 C131.176,15.92 132.12,16.416 133.064,16.608 C133.864,16.784 134.648,16.72 135.272,16.432 C135.688,16.24 136.408,15.76 136.408,14.784 C136.408,13.584 135.128,13.152 133.88,12.912 C133.768,12.896 131.976,12.528 131.256,12.112 C130.296,11.536 129.784,10.672 129.784,9.616 C129.784,9.024 129.976,8.464 130.312,7.968 C130.648,7.52 131.112,7.152 131.656,6.896 C132.456,6.512 133.4,6.4 134.36,6.56 C135.4,6.736 136.456,7.232 137.384,8 L136.472,9.104 C134.824,7.744 133.224,7.712 132.264,8.16 C131.608,8.464 131.224,9.024 131.224,9.6 C131.224,10.688 132.152,11.104 133.624,11.424 C134.232,11.568 135.496,11.776 136.248,12.208 C137.288,12.784 137.832,13.68 137.832,14.784 C137.832,15.44 137.656,16.048 137.288,16.576 C136.952,17.056 136.44,17.424 135.864,17.712 C135.256,18.016 134.632,18.112 133.928,18.112 Z" id="Excalibur-BOS" fill="#2D8EF8"></path>
            </g>
        </g>
    </g>
</svg>
