<?xml version="1.0" encoding="UTF-8"?>
<svg width="89px" height="24px" viewBox="0 0 89 24" version="1.1" xmlns="http://www.w3.org/2000/svg" xmlns:xlink="http://www.w3.org/1999/xlink">
    <!-- Generator: Sketch 52.5 (67469) - http://www.bohemiancoding.com/sketch -->
    <title>分组 2</title>
    <desc>Created with Sketch.</desc>
    <g id="组件" stroke="none" stroke-width="1" fill="none" fill-rule="evenodd">
        <g id="分组-2">
            <g>
                <polygon id="Fill-1" fill="#FFE15B" points="5 6 7 6 7 24 6 24"></polygon>
                <g id="分组">
                    <path d="M6,0 L7,0 L7,6 L5,6 L5,1 C5,0.448 5.448,0 6,0" id="Fill-2" fill="#FA9493"></path>
                    <polygon id="Fill-4" fill="#FCE995" points="7 6 9 6 8 24 7 24"></polygon>
                    <path d="M7,0 L8,0 C8.552,0 9,0.448 9,1 L9,6 L7,6 L7,0 Z" id="Fill-6" fill="#FBA6A5"></path>
                    <path d="M5,3.3999 C5.699,3.1309 6.441,2.9959 7.19,2.9999 C7.804,2.9989 8.414,3.0889 9,3.2699 L9,5.4899 C8.453,5.1649 7.827,4.9959 7.19,4.9999 C6.393,4.9869 5.618,5.2559 5,5.7599 L5,3.3999 Z" id="Fill-8" fill="#CED4DA"></path>
                    <path d="M7,5 L7,7.34 C4.974,7.294 3.054,8.243 1.86,9.88 L0,8 C1.774,6.013 4.338,4.915 7,5" id="Fill-10" fill="#63A9F5"></path>
                    <path d="M7,5 L7,7.34 C9.026,7.294 10.946,8.243 12.14,9.88 L14,8 C12.226,6.013 9.662,4.915 7,5" id="Fill-12" fill="#4496EF"></path>
                    <path d="M85.791,10.42 L85.791,11.17 C86.558,10.587 87.496,10.267 88.46,10.26 L88.12,11.64 C86.867,11.601 85.82,12.585 85.781,13.838 C85.781,13.842 85.78,13.846 85.78,13.85 L85.78,17.74 L84.4,17.74 L84.4,10.41 L85.791,10.42 Z M76.65,16.96 C76.01,16.345 75.649,15.497 75.65,14.61 L75.6499979,10.41 L77.03,10.41 L77.03,14.6 C77.03,15.705 77.925,16.6 79.03,16.6 C80.134,16.6 81.03,15.705 81.03,14.6 L81.03,10.41 L82.41,10.41 L82.41,14.6 C82.409,15.486 82.048,16.335 81.41,16.95 C80.065,18.208 77.975,18.208 76.63,16.95 L76.65,16.96 Z M70.35,16.56 C71.719,16.571 72.839,15.469 72.85,14.1 C72.861,12.73 71.759,11.611 70.39,11.6 C69.02,11.589 67.901,12.691 67.89,14.06 L67.89,14.08 C67.89,15.438 68.982,16.544 70.34,16.56 L70.35,16.56 Z M73.05,11.36 C74.552,12.841 74.569,15.259 73.088,16.762 C72.366,17.495 71.378,17.905 70.35,17.9 C69.439,17.861 68.57,17.507 67.89,16.9 L67.89,17.74 L66.501,17.74 L66.501,6 L67.88,6 L67.88,11.26 C68.56,10.652 69.429,10.298 70.34,10.26 C71.354,10.249 72.331,10.645 73.05,11.36 Z M62.81,17.74 L64.19,17.74 L64.19,10.41 L62.81,10.41 L62.81,17.74 Z M63.49,9.23 C62.988,9.23 62.58,8.822 62.58,8.32 C62.58,7.82 62.985,7.415 63.485,7.415 C63.985,7.415 64.39,7.82 64.39,8.32 C64.39,8.815 63.995,9.219 63.501,9.23 L63.49,9.23 Z M60.34,17.74 L58.97,17.74 L58.97,6 L60.35,6 L60.34,17.74 Z M53.1,16.56 C54.469,16.571 55.589,15.469 55.6,14.1 C55.611,12.73 54.509,11.611 53.14,11.6 C51.771,11.589 50.651,12.691 50.64,14.06 L50.64,14.08 C50.64,15.442 51.738,16.548 53.1,16.56 Z M55.56,11.26 L55.56,10.41 L56.94,10.41 L56.94,17.74 L55.56,17.74 L55.56,16.89 C54.88,17.498 54.011,17.851 53.1,17.89 C50.988,17.89 49.275,16.177 49.275,14.065 C49.275,11.952 50.988,10.24 53.1,10.24 C54.013,10.284 54.883,10.645 55.56,11.26 Z M47.56,15.52 L48.68,16.339 C48.555,16.501 48.422,16.654 48.28,16.799 C46.773,18.271 44.367,18.271 42.86,16.799 C41.365,15.295 41.365,12.865 42.86,11.36 C44.367,9.889 46.773,9.889 48.28,11.36 C48.42,11.499 48.547,11.649 48.66,11.81 L47.56,12.63 C46.748,11.534 45.201,11.303 44.105,12.115 C43.009,12.927 42.778,14.473 43.59,15.57 C44.053,16.195 44.783,16.565 45.56,16.57 C46.358,16.566 47.104,16.174 47.56,15.52 Z M41,10.41 L38.12,13.87 L41.35,17.74 L39.56,17.74 L37.19,14.94 L34.84,17.74 L33.05,17.74 L36.3,13.87 L33.4,10.41 L35.21,10.41 L37.21,12.79 L39.21,10.41 L41,10.41 Z M25,17.74 L25,6.35 L32.2,6.35 L32.2,7.74 L26.44,7.74 L26.44,10.41 L31.44,10.41 L31.44,11.83 L26.44,11.83 L26.44,16.339 L32.06,16.339 L32.06,17.74 L25,17.74 Z" id="Fill-14" fill="#FFFFFF"></path>
                </g>
            </g>
        </g>
    </g>
</svg>